<?xml version="1.0" encoding="utf-8"?>
<!-- Generator: Adobe Illustrator 21.0.0, SVG Export Plug-In . SVG Version: 6.00 Build 0)  -->
<svg version="1.1" id="Layer_1" xmlns="http://www.w3.org/2000/svg" xmlns:xlink="http://www.w3.org/1999/xlink" x="0px" y="0px"
	 viewBox="0 0 549.2 549.2" style="enable-background:new 0 0 549.2 549.2;" xml:space="preserve">
<path d="M274.7,345.8c-6.4-34.5-29-62.6-59.2-76.9c9.5-10.7,15.2-24.8,15.2-40.2c0-33.5-27.3-60.8-60.8-60.8s-60.8,27.3-60.8,60.8
	c0,15.4,5.8,29.5,15.2,40.2c-30.1,14.3-52.8,42.3-59.2,76.9c-1.6,8.8,0.7,17.8,6.4,24.7c5.7,6.8,14.1,10.8,23,10.8h150.7
	c8.9,0,17.3-3.9,23-10.8C274,363.6,276.4,354.6,274.7,345.8z M170,199.9c15.9,0,28.8,12.9,28.8,28.8s-12.9,28.8-28.8,28.8
	s-28.8-12.9-28.8-28.8S154.1,199.9,170,199.9z M97.2,349.2c7.4-34.1,37.7-58.5,72.8-58.5s65.4,24.5,72.8,58.5H97.2z"/>
<g>
	<path d="M475.9,267.1h-187v-87.5h187V267.1z M320.9,235.1h123v-23.5h-123V235.1z"/>
</g>
<g>
	<rect x="291.2" y="289.3" width="186.5" height="32"/>
</g>
<g>
	<rect x="289.2" y="341.6" width="186.5" height="32"/>
</g>
<g>
	<path d="M493.2,445.5H55.9c-28.8,0-52.3-23.5-52.3-52.3V155.9c0-28.8,23.5-52.3,52.3-52.3h437.3c28.8,0,52.3,23.5,52.3,52.3v237.3
		C545.6,422.1,522.1,445.5,493.2,445.5z M55.9,135.6c-11.2,0-20.3,9.1-20.3,20.3v237.3c0,11.2,9.1,20.3,20.3,20.3h437.3
		c11.2,0,20.3-9.1,20.3-20.3V155.9c0-11.2-9.1-20.3-20.3-20.3H55.9z"/>
</g>
</svg>
