<?xml version="1.0" encoding="utf-8"?>
<!-- Generator: Adobe Illustrator 21.0.0, SVG Export Plug-In . SVG Version: 6.00 Build 0)  -->
<svg version="1.1" id="Layer_1" xmlns="http://www.w3.org/2000/svg" xmlns:xlink="http://www.w3.org/1999/xlink" x="0px" y="0px"
	 viewBox="0 0 500 500" style="enable-background:new 0 0 500 500;" xml:space="preserve">
<style type="text/css">
	.st0{display:none;}
	.st1{display:inline;fill:#111111;}
	.st2{opacity:2.000000e-02;fill:#FFFFFF;enable-background:new    ;}
	.st3{opacity:3.000000e-02;fill:#FFFFFF;enable-background:new    ;}
	.st4{opacity:0.8;fill:#231F20;enable-background:new    ;}
	.st5{fill:#C40000;}
	.st6{fill:#DBB92A;}
	.st7{fill:#BF802F;}
	.st8{fill:#EAC52A;}
	.st9{fill:#FFD62C;}
	.st10{fill:none;}
	.st11{fill:#FFFFFF;}
	.st12{fill:#FFCA3B;}
</style>
<g id="BACKGROUND" class="st0">
	<rect class="st1" width="500" height="500"/>
</g>
<g id="OBJECTS">
	<g>
		<circle class="st2" cx="250.1" cy="250.4" r="246.4"/>
		<circle class="st3" cx="250.1" cy="250.4" r="190.4"/>
		<path class="st4" d="M354.1,382H145.4c-17.8,0-32.2-12.7-32.2-28.4l0,0c0-15.7,14.4-28.4,32.2-28.4h208.7
			c17.8,0,32.2,12.7,32.2,28.4l0,0C386.3,369.2,371.9,382,354.1,382z"/>
		<path class="st4" d="M449.4,275.5l-36.1-4.3l3.3-14.9c1-4.3-2.6-8.3-7.6-8.7l-11.2-1c1.3-11.7,1-21.9,0.7-27.3
			c-0.1-2.3-2.1-4.3-4.8-4.7c-49.7-7.1-99.8-9.3-144-8.9c-44.2-0.3-94.2,1.8-144,8.9c-2.7,0.4-4.7,2.3-4.8,4.7
			c-0.3,5.3-0.5,15.5,0.7,27.3l-11.2,1c-5,0.4-8.5,4.4-7.6,8.7l3.3,14.9l-36.1,4.3l20.3,19.2l-1.9,28l64.2-14.6l-0.6-12l23.1-2.2
			l1.4-14.8c22.5-1.9,53.6-3.5,93.2-3.1v-35v35c39.6-0.4,70.7,1.2,93.2,3.1l1.4,14.8l23.1,2.2l-0.6,12l64.2,14.6l-1.9-28
			L449.4,275.5z"/>
		<path class="st5" d="M350.3,390h-201c-17.1,0-31-12.7-31-28.4l0,0c0-15.7,13.8-28.4,31-28.4h201c17.1,0,31,12.7,31,28.4l0,0
			C381.3,377.3,367.4,390,350.3,390z"/>
		<g>
			<g>
				<polygon class="st6" points="93.8,279.7 50.2,284.9 70.6,304.1 68.7,332 132.9,317.5 				"/>
				<polygon class="st7" points="92.5,309.3 132.9,317.5 131.8,299 				"/>
				<path class="st8" d="M155.2,303.1l-62.7,6.1L83,265.6c-1-4.3,2.6-8.3,7.6-8.7l44.7-3.6L155.2,303.1"/>
				<path class="st7" d="M112.2,288.7c-0.6-5.4,44.8-5.4,44.8-5.4l-1.8,19.9l-40.3-10L112.2,288.7z"/>
			</g>
			<g>
				<polygon class="st6" points="405.8,279.7 449.4,284.9 429.1,304.1 431,332 366.8,317.5 				"/>
				<polygon class="st7" points="407.1,309.3 366.8,317.5 367.9,299 				"/>
				<path class="st8" d="M344.3,303.1l62.7,6.1l9.5-43.6c1-4.3-2.6-8.3-7.6-8.7l-44.7-3.6L344.3,303.1"/>
				<path class="st7" d="M387.4,288.7c0.6-5.4-44.8-5.4-44.8-5.4l1.8,19.9l40.3-10L387.4,288.7z"/>
				<path class="st9" d="M398.5,228.8c-0.1-2.3-2.1-4.3-4.8-4.7c-49.7-7.1-99.8-9.3-144-8.9c-44.2-0.3-94.2,1.8-144,8.9
					c-2.7,0.4-4.7,2.3-4.8,4.7c-0.5,10.4-1,39.1,9.4,61.3c1.1,2.2,3.7,3.4,6.5,3c13.6-2.3,57.8-8.6,132.8-7.9v0c0,0,0.1,0,0.1,0
					c0,0,0.1,0,0.1,0v0c74.9-0.7,119.2,5.5,132.8,7.9c2.8,0.4,5.4-0.7,6.5-3C399.5,267.9,399.1,239.2,398.5,228.8z"/>
			</g>
		</g>
		<g>
			<rect x="12" y="10.7" class="st10" width="478.5" height="478.5"/>
			<polygon class="st11" points="418,342.8 419.7,350.3 426.9,353.2 420.3,357.1 419.8,364.8 414.1,359.8 406.6,361.7 409.6,354.5 
				405.5,348.2 413.1,348.8 			"/>
			<polygon class="st9" points="114.7,57.8 120.2,63.1 127.6,61.6 124.2,68.5 128,75.1 120.4,74.1 115.2,79.7 113.9,72.1 107,69 
				113.8,65.3 			"/>
			<polygon class="st9" points="108.1,419.6 110,426.9 117.2,429.5 110.8,433.7 110.6,441.3 104.6,436.5 97.3,438.7 100.1,431.5 
				95.7,425.2 103.4,425.7 			"/>
			<polygon class="st9" points="312.7,45.1 314.1,50.2 319.1,51.9 314.6,54.9 314.5,60.1 310.4,56.8 305.3,58.3 307.2,53.4 
				304.2,48.9 309.5,49.3 			"/>
			<polygon class="st9" points="415.9,150.5 420.3,153.6 425.3,151.7 423.7,156.8 427,161 421.7,161.1 418.8,165.4 417.1,160.4 
				412,159 416.1,155.8 			"/>
			<polygon class="st11" points="47.4,428.1 51.7,431.2 56.7,429.3 55.1,434.4 58.4,438.4 53.2,438.7 50.2,443 48.5,438 43.4,436.6 
				47.7,433.4 			"/>
			<polygon class="st11" points="469.7,162.3 469.3,167.6 473.6,170.8 468.5,172.2 466.8,177.2 463.9,172.8 458.6,172.7 
				461.9,168.5 460.3,163.5 465.3,165.3 			"/>
			<polygon class="st11" points="205.5,22.3 205.3,27.6 209.4,30.8 204.3,32.2 202.6,37.2 199.7,32.9 194.4,32.8 197.7,28.6 
				196.1,23.5 201.1,25.4 			"/>
			<polygon class="st9" points="432.2,416 433.6,421.1 438.5,422.9 434.1,425.8 433.9,431.1 429.8,427.7 424.7,429.2 426.6,424.3 
				423.7,419.9 428.9,420.1 			"/>
			<polygon class="st9" points="19.9,343.4 23.7,347 28.9,345.9 26.6,350.7 29.3,355.3 24,354.5 20.4,358.5 19.5,353.3 14.7,351.1 
				19.4,348.6 			"/>
			
				<ellipse transform="matrix(0.3967 -0.9179 0.9179 0.3967 76.5049 572.2891)" class="st9" cx="473.6" cy="227.9" rx="4.8" ry="4.8"/>
			
				<ellipse transform="matrix(0.3967 -0.9179 0.9179 0.3967 -181.6341 186.3926)" class="st9" cx="51" cy="231.4" rx="4.8" ry="4.8"/>
			
				<ellipse transform="matrix(0.3967 -0.9179 0.9179 0.3967 -306.1838 386.9675)" class="st9" cx="141.3" cy="426.4" rx="2.3" ry="2.3"/>
			
				<ellipse transform="matrix(0.3967 -0.9179 0.9179 0.3967 -228.5417 568.8988)" class="st9" cx="318.5" cy="458.3" rx="2.3" ry="2.3"/>
			
				<ellipse transform="matrix(0.3967 -0.9179 0.9179 0.3967 -77.442 156.9142)" class="st9" cx="80.7" cy="137.4" rx="2.3" ry="2.3"/>
			
				<ellipse transform="matrix(0.3967 -0.9179 0.9179 0.3967 72.7209 485.4707)" class="st9" cx="405.7" cy="187.4" rx="2.3" ry="2.3"/>
			
				<ellipse transform="matrix(0.3967 -0.9179 0.9179 0.3967 27.4976 226.6815)" class="st11" cx="186.2" cy="92.4" rx="2.3" ry="2.3"/>
			
				<ellipse transform="matrix(0.3967 -0.9179 0.9179 0.3967 144.3213 420.2978)" class="st11" cx="391.9" cy="100.4" rx="2.3" ry="2.3"/>
			
				<ellipse transform="matrix(0.3967 -0.9179 0.9179 0.3967 -113.8909 599.0082)" class="st11" cx="398.8" cy="386.2" rx="2.3" ry="2.3"/>
			
				<ellipse transform="matrix(0.3967 -0.9179 0.9179 0.3967 -297.7136 444.4536)" class="st11" cx="189.3" cy="448.7" rx="2.3" ry="2.3"/>
			
				<ellipse transform="matrix(0.3967 -0.9179 0.9179 0.3967 -160.0689 597.4488)" class="st11" cx="374.5" cy="420.5" rx="2.3" ry="2.3"/>
			
				<ellipse transform="matrix(0.3967 -0.9179 0.9179 0.3967 -239.1411 292.7085)" class="st9" cx="103.1" cy="328.3" rx="2.3" ry="2.3"/>
			
				<ellipse transform="matrix(0.3967 -0.9179 0.9179 0.3967 -39.8847 642.0017)" class="st9" cx="468.5" cy="351.3" rx="2.3" ry="2.3"/>
			
				<ellipse transform="matrix(0.3967 -0.9179 0.9179 0.3967 194.5463 411.5066)" class="st9" cx="410.3" cy="57.7" rx="2.3" ry="2.3"/>
			
				<ellipse transform="matrix(0.3967 -0.9179 0.9179 0.3967 99.0197 335.6479)" class="st9" cx="304.9" cy="92.5" rx="2.3" ry="2.3"/>
			
				<ellipse transform="matrix(0.3967 -0.9179 0.9179 0.3967 -0.5093 201.5496)" class="st9" cx="153.1" cy="101.2" rx="4.8" ry="4.8"/>
			
				<ellipse transform="matrix(0.3967 -0.9179 0.9179 0.3967 -205.9382 525.8079)" class="st11" cx="297.1" cy="419.6" rx="4.8" ry="4.8"/>
			
				<ellipse transform="matrix(0.3967 -0.9179 0.9179 0.3967 -149.082 165.0041)" class="st11" cx="51" cy="195.9" rx="4.8" ry="4.8"/>
			
				<ellipse transform="matrix(0.3967 -0.9179 0.9179 0.3967 109.8776 397.188)" class="st11" cx="357.1" cy="115" rx="4.8" ry="4.8"/>
			
				<ellipse transform="matrix(0.3967 -0.9179 0.9179 0.3967 -284.8741 283.712)" class="st9" cx="73.4" cy="358.6" rx="4.8" ry="4.8"/>
			<g>
				<polygon class="st12" points="124.3,137.3 59.1,71.6 64.5,66.6 				"/>
			</g>
			<g>
				<polygon class="st12" points="334.6,411 393.7,482.3 387.8,486.8 				"/>
			</g>
			<g>
				<polygon class="st12" points="173.5,61.7 156.6,32.1 163.4,29.1 				"/>
			</g>
			<g>
				<polygon class="st11" points="453.7,76.5 376.4,139 448.8,71 				"/>
			</g>
			<g>
				<polygon class="st11" points="114.7,491.5 174,411.7 120.7,495.6 				"/>
			</g>
			<g>
				<polygon class="st11" points="237.9,475.3 245.5,431.1 245.3,475.9 				"/>
			</g>
			<g>
				<polygon class="st11" points="88.7,177.2 30,151.9 33.3,145.2 				"/>
			</g>
			<g>
				<polygon class="st12" points="333.5,103.1 354.5,59.4 360.9,63.1 				"/>
			</g>
			<g>
				<polygon class="st12" points="102.7,379.5 64.3,409.3 60.2,403 				"/>
			</g>
		</g>
	</g>
	<g>
		<g>
			<path class="st11" d="M125,165.9c0,0,1.4,0,5.5-7.5c0.9-1.5,2.6-2.6,4.2-3.4c3.8-2,10.9-5,19.4-3.6c5.2,0.9,8.3,3.4,10.2,6.1
				c2.1,3,3,6.6,2.7,10.3c-0.4,4.7-2,13.6-8.1,19.7c-8.4,8.4-13.7,6.3-13.7,6.3s-1.7-0.5-1.9-5.9c-0.2-4.9-0.4-22.9,3.9-30.3
				c0.4-0.6,0.2-1.5-0.3-1.9c-1-0.9-2.8-1.6-5.4-0.1c-1.5,0.7-2.6,2-3.3,3.6c-1.8,3.9-4.4,14.1-3.4,26.4c0.2,2.3,0.3,4.8,0.7,7.8
				c0.1,1.1,0.3,1.9,0.5,2.9c0.1,0.6,0.5,1.2,1.2,1.4c2.8,1.1,8.2,2.9,14.5,1.1c8.4-2.4,14.1-5.9,17.9-12.8c0,0,5.5-10.1,5.5-19.9
				c0-0.3,0-0.6,0-1.1c0-2.1-0.5-12.2-8.9-16.7c-9.5-5.1-24-3.8-30.7-1.5c-6.8,2.4-12.1,7.8-12.1,14.8
				C123.3,161.2,123.3,166.1,125,165.9z"/>
			
				<ellipse transform="matrix(0.9694 -0.2455 0.2455 0.9694 -31.7601 56.6745)" class="st11" cx="211.4" cy="155.7" rx="6.1" ry="4.8"/>
			<path class="st11" d="M294.5,190.5c-0.7-0.7,0.5-6.5-0.7-8.7c0,0-1-2.9,0-4.8l4.4-4.2c0,0,0.7-2.4-0.7-3.2c0,0-4.4-2.4-7.5,0.5
				c-3.2,2.9-14.3,14.3-15.8,14.5c-1.5,0.2-3.8,3.2-4.2,3.6c-0.2,0.5-4.2,2.7-4.4-1s3.4-6.5,3.4-6.5s7-6.5,6.5-9.9
				c0,0-1.2-7.5-9.9-3.4c0,0-4.6,2.8-10.2,9.5c-0.2,0.2-0.6,0.3-0.9,0c-0.2-0.2-0.2-0.4,0-0.5c1.9-2.6,14.9-20.2,16.4-29.2
				c1.7-9.7-2.1-11.1-8.9-9.7s-12.8,13.1-15,24c-1.8,8.9-2.8,19.5-3.1,23c-0.1,0.7-0.4,1.4-1.1,1.8c-0.7,0.4-1.6,1.1-2.1,1.3
				c-1,0.5-3.2,0-2.9-3.2c0.2-3.2,2.1-12.4,2.1-12.4s1.7-6.1-3.4-7c0,0-4.4-1.2-9.9,10.4c0,0-1.9,3.6-1.7,1.2
				c0.2-2.4,1.2-8.2,1.2-8.2s0.7-4.6-4.2-3.6c0,0-3.8-0.5-5.1,9.7c-1.2,10.1-1.2,10.1-1.2,10.1s-6.3,5.5-7.8,3.2
				c-1.5-2.4,1.5-16.4,3.6-21.7c0,0-1.5-3.4-8.2,1.2c0,0-1.5,6.1-2.7,10.4c0,0-5.3,3.6-6.3-1.2c-1-4.8,1-8.9,1-8.9s-2.1-6.5-9.7,1.5
				c0,0-2.4,6.3-2.9,4.8l-0.5-7c0,0,0.5-1.7-2.7-1.2c0,0-2.9-0.7-3.6,4.6c-0.7,5.3-3.2,16.2-1.2,22.3c0,0,1.9,3.2,3.6,2.4
				c0,0,2.9,0.2,4.4-6.3s3.8-13.3,3.8-13.3s1-1.2,1.2,0.2c0.2,1.5,1.2,8.9,6.5,9.5c0,0,2.9,0.7,4.8-0.2c0,0-1.5,10.4,5.5,9.5
				c7-1,11.6-4.2,11.6-4.2s0,4.4,3.4,3.8c3.4-0.5,4.6-3.6,6.3-7.8c1.7-4.2,6.3-10.1,6.3-10.1s-2,14.5,0.4,16.5
				c0.2,0.2,0.4,0.3,0.5,0.5c0.4,0.5,1.4,1.4,3.4,0.9c2.2-0.5,5.4-1.9,6.7-2.4c0.2-0.1,0.5,0,0.6,0.3c0.2,0.7,0.9,2.1,2.4,2.3
				c0.1,0,0.4,0.1,0.5,0.1c0.7,0.1,2.8,0.1,6.3-6.2c4.4-7.8,10.6-16.2,12.1-13.7s-2.7,4.6-2.7,4.6s-7,7-4.8,12.6
				c2.1,5.5,13.7,3.2,16.2,1.5l0.7-0.5c0,0,0.2,5.1,8,5.1s18.4-1.9,22.3-4.8l0.7-6.5C306.1,186.1,295.2,191.2,294.5,190.5z
				 M252.1,172.6c0,0,0-0.1,0-0.3c0.4-3.4,5.3-33.5,12.2-28.8c0,0,1,1.2-2.9,8.2C256.9,159.9,252.1,172.6,252.1,172.6z M284.1,192.4
				c-4.6,0.5-5.9-4.4-5.9-4.4c6.8-6.3,8.4-6.3,8.4-6.3C288.6,192.4,284.1,192.4,284.1,192.4z"/>
		</g>
		<path class="st11" d="M376.4,174.1c-1.9-8.2-11.1-5.4-15.1-2.1c0,0-1.7-5.4-10.3-2.6l-1.4,3.1c0,0,4-1.6,3.1,2.6l-6.4,16
			c-0.3,0.7-0.9,1.3-1.6,1.6c-1.1,0.4-2.4,0.6-3.1-0.6c0,0-1-0.4,1.4-5c2.3-4.7,7.1-17.7,7.1-17.7h-8.3l-7.7,19
			c-0.6,1.5-1.6,2.9-3,3.8c-1.1,0.7-2.2,1.2-3.1,0.6c-1.6-1-1.6-1.7,0.5-6.2c2.1-4.5,4.5-11.5,4.5-11.5s2.3-5.4-3.5-6.1
			c-5.9-0.5-6.2,0.2-6.2,0.2l-1.2,3.3c0,0,4.5-1.7,1.7,4.9c-2.8,6.6-8.5,16.5-4.3,19.8c3.8,3,9.7,0.4,12.1-1.6
			c0.3-0.2,0.7-0.1,1,0.2c0.9,1.6,3.6,4.8,10.5,1.4c0,0-3.9,9.5-2.3,12.5c1.6,2.9,9.3,1.2,9.3,1.2l1.6-3.1c0,0-4,0.5-3.3-2.7
			c0.7-3.3,3.5-8.3,3.5-8.3s5.9,7,17.5-4.7C369.7,191.9,378.4,182.3,376.4,174.1z M368.6,176.5c-0.4,5.5-6.4,14.5-6.4,14.5
			c-3.8,4.6-6.7,3.9-8,3.2c-0.4-0.2-0.6-0.7-0.4-1.2l6.2-16.1c0.2-0.6,0.6-1.2,1.1-1.6c1.5-1.3,2.7-1.9,3.7-2.1
			C366.9,172.7,368.8,174.4,368.6,176.5z"/>
	</g>
	<g>
		<path class="st7" d="M120,247.2l10.1-1.4c2.3-0.3,4.2,0,5.6,1.1c1.5,1,2.3,2.6,2.7,4.7c0.3,2.1-0.1,3.8-1.3,5.2
			c-1.2,1.4-2.9,2.2-5.1,2.6l-4.7,0.6l1.1,7.6l-5.4,0.7L120,247.2z M130.6,255.1c1-0.1,1.7-0.4,2.1-1s0.5-1.2,0.4-2
			c-0.1-0.9-0.4-1.5-1-1.8c-0.5-0.3-1.3-0.4-2.3-0.3l-3.9,0.5l0.7,5.1L130.6,255.1z"/>
		<path class="st7" d="M142.9,265.4l-2.1-21l14.9-1.5l0.4,4.3l-9.6,1l0.4,4l9.1-1l0.4,4.2l-9.1,1l0.4,4.4l9.6-1l0.4,4.3L142.9,265.4
			z M150.1,241.7l-3.2,0.3l2.7-5l4.8-0.5L150.1,241.7z"/>
		<path class="st7" d="M179.4,262.2l-6.1,0.4l-4.2-6.5c-0.5-0.7-1.3-1.1-2.2-1l-1.7,0.1l0.6,7.9l-5.4,0.4l-1.6-21.1l10-0.7
			c2.6-0.2,4.5,0.2,5.9,1.2c1.4,1,2.1,2.6,2.3,4.7c0.1,1.6-0.2,3-1,4.2c-0.7,1.2-2,2-3.5,2.6c1.3,0.2,2.2,0.9,3.1,2.1L179.4,262.2z
			 M171.3,250.2c0.5-0.4,0.7-1.1,0.6-1.9c-0.1-0.9-0.4-1.5-1-1.8c-0.5-0.3-1.5-0.4-2.7-0.4l-3.8,0.3l0.3,4.9l3.8-0.3
			C170,250.8,170.9,250.6,171.3,250.2z"/>
		<path class="st7" d="M181.5,262.1l-1.3-21.1l5.5-0.3l1.3,21.1L181.5,262.1z"/>
		<path class="st7" d="M195.2,260.3c-1.6-0.9-2.9-2-3.8-3.6s-1.5-3.5-1.5-5.6c-0.1-2.2,0.2-4.2,1.1-5.8c0.7-1.7,1.9-3,3.5-3.9
			c1.6-1,3.4-1.5,5.5-1.6c2.1-0.1,4,0.2,5.6,1.1s2.9,2,3.8,3.6c1,1.6,1.4,3.5,1.5,5.6c0.1,2.1-0.2,4.2-1.1,5.8
			c-0.7,1.7-1.9,3-3.5,3.9c-1.6,1-3.4,1.5-5.5,1.6S196.8,261.2,195.2,260.3z M204.3,255.3c0.9-1.2,1.3-2.9,1.2-5
			c-0.1-2.1-0.6-3.7-1.6-4.9c-1-1.1-2.2-1.6-3.8-1.5c-1.6,0.1-2.8,0.6-3.6,1.8c-0.9,1.2-1.3,2.8-1.2,5c0.1,2.1,0.6,3.8,1.6,4.9
			c1,1.1,2.2,1.6,3.8,1.5C202.2,257.1,203.5,256.5,204.3,255.3z"/>
		<path class="st7" d="M214,239.4l8.6-0.2c2.3-0.1,4.4,0.3,6.1,1.1s3,2,3.9,3.5c1,1.6,1.4,3.4,1.5,5.6c0.1,2.2-0.3,4-1.2,5.8
			c-0.9,1.6-2.1,2.9-3.7,3.7c-1.7,0.9-3.7,1.4-6.1,1.4l-8.6,0.2L214,239.4z M222.6,255.9c2,0,3.6-0.6,4.6-1.6c1-1.1,1.5-2.6,1.4-4.7
			c0-2-0.6-3.6-1.6-4.6c-1.1-1-2.6-1.5-4.7-1.4l-2.7,0.1L220,256L222.6,255.9z"/>
		<path class="st7" d="M237.5,260.1l-0.2-21.1l15-0.1v4.3l-9.7,0.1v4l9.1-0.1v4.3l-9.1,0.1v4.4l9.7-0.1v4.3H237.5z"/>
		<path class="st7" d="M264.2,238.8l8.6,0.1c2.3,0,4.4,0.4,6.1,1.3s3,2.1,3.8,3.7s1.3,3.5,1.3,5.6c0,2.2-0.5,4-1.4,5.6
			c-1,1.6-2.2,2.8-3.9,3.6c-1.7,0.9-3.7,1.2-6.1,1.2l-8.6-0.1L264.2,238.8z M272.2,255.6c2.1,0,3.6-0.4,4.7-1.5
			c1.1-1,1.6-2.6,1.6-4.6c0-2-0.4-3.6-1.5-4.6c-1-1.1-2.6-1.5-4.6-1.6h-2.7l-0.1,12.2H272.2z"/>
		<path class="st7" d="M292.5,239.3l-0.1,3.4c0,1.3-0.3,2.4-0.7,3.4c-0.4,1-1.3,2-2.4,3.1l-1.9-1.6c1.1-1.1,1.8-2,2.1-3l-2.6-0.1
			l0.1-5.4L292.5,239.3z"/>
		<path class="st7" d="M295.1,260.5l0.7-21.1l15,0.5l-0.1,4.3l-9.7-0.3l-0.1,4l9.1,0.3l-0.1,4.3l-9.1-0.3l-0.1,4.4l9.7,0.3l-0.1,4.3
			L295.1,260.5z"/>
		<path class="st7" d="M315.7,260.8c-1.5-0.5-2.8-1.1-3.6-1.9l1.9-3.8c1,0.6,2,1.3,3.2,1.6c1.2,0.4,2.3,0.6,3.5,0.6
			c1.2,0.1,2.1-0.1,2.8-0.3c0.6-0.2,1-0.7,1.1-1.4c0-0.5-0.2-1-0.7-1.4c-0.5-0.3-1.6-0.7-3.2-1.2c-1.9-0.5-3.5-1.1-4.6-1.7
			c-1.1-0.6-1.8-1.4-2.2-2.1c-0.4-0.9-0.6-1.8-0.5-2.9c0.1-1.3,0.5-2.4,1.3-3.4c0.7-1,1.8-1.7,3.2-2.2c1.4-0.5,2.9-0.7,4.6-0.6
			c1.5,0.1,3,0.3,4.4,0.9c1.4,0.5,2.4,1.1,3.3,1.8l-1.9,3.8c-1.8-1.4-3.8-2.1-6-2.2c-1.1,0-1.8,0.1-2.4,0.4c-0.6,0.3-1,0.9-1,1.5
			c0,0.4,0.1,0.7,0.3,1c0.2,0.2,0.6,0.5,1.2,0.7c0.6,0.2,1.5,0.5,2.7,0.9c1.9,0.5,3.4,1.1,4.5,1.7s1.8,1.4,2.2,2.1
			c0.4,0.9,0.6,1.7,0.5,2.8c-0.1,2-1,3.6-2.7,4.8c-1.7,1.2-3.9,1.6-6.8,1.4C318.7,261.7,317.2,261.4,315.7,260.8z"/>
		<path class="st7" d="M335.4,262c-1.5-0.5-2.7-1.2-3.6-1.9l2-3.7c1,0.7,2,1.3,3.2,1.7c1.2,0.4,2.2,0.6,3.4,0.7
			c1.2,0.1,2.1,0,2.8-0.3c0.6-0.3,1-0.7,1.1-1.3c0-0.5-0.2-1-0.7-1.4c-0.5-0.4-1.6-0.7-3.2-1.3c-1.9-0.5-3.4-1.2-4.6-1.8
			c-1.1-0.6-1.8-1.4-2.2-2.2c-0.4-0.9-0.5-1.8-0.4-2.9c0.1-1.3,0.5-2.4,1.4-3.4c0.9-1,1.9-1.7,3.3-2.2c1.4-0.5,2.9-0.6,4.6-0.5
			c1.5,0.1,3,0.4,4.4,1s2.4,1.2,3.2,1.9l-1.9,3.7c-1.8-1.5-3.8-2.2-5.9-2.4c-1.1-0.1-1.8,0.1-2.4,0.4c-0.6,0.3-1,0.9-1.1,1.5
			c0,0.4,0.1,0.7,0.2,1c0.2,0.2,0.6,0.5,1.2,0.7s1.5,0.5,2.7,0.9c1.9,0.5,3.3,1.2,4.4,1.8c1.1,0.6,1.8,1.4,2.2,2.2
			c0.4,0.9,0.5,1.7,0.5,2.9c-0.1,2-1.1,3.6-2.8,4.7c-1.7,1.1-3.9,1.5-6.8,1.3C338.5,262.9,337,262.5,335.4,262z"/>
		<path class="st7" d="M367.8,265l-1.5-4.6l-9.3-0.9l-2.3,4.2l-5.5-0.5l11.8-20l4.4,0.4l7.8,21.9L367.8,265z M359.2,255.6l5.8,0.5
			l-2.2-7L359.2,255.6z"/>
		<path class="st7" d="M374.4,265.8l2.7-21l5.4,0.6l-2.7,21L374.4,265.8z"/>
	</g>
	<g>
		<path class="st11" d="M118.2,245.4l10.1-1.4c2.3-0.3,4.2,0,5.6,1.1c1.5,1,2.3,2.6,2.7,4.7c0.3,2.1-0.1,3.8-1.3,5.2
			c-1.2,1.4-2.9,2.2-5.1,2.6l-4.7,0.6l1.1,7.6l-5.4,0.7L118.2,245.4z M128.8,253.3c1-0.1,1.7-0.4,2.1-1s0.5-1.2,0.4-2
			c-0.1-0.9-0.4-1.5-1-1.8c-0.5-0.3-1.3-0.4-2.3-0.3l-3.9,0.5l0.7,5.1L128.8,253.3z"/>
		<path class="st11" d="M141,263.6l-2.1-21l14.9-1.5l0.4,4.3l-9.6,1l0.4,4l9.1-1l0.4,4.2l-9.1,1l0.4,4.4l9.6-1l0.4,4.3L141,263.6z
			 M148.3,239.9l-3.2,0.3l2.7-5l4.8-0.5L148.3,239.9z"/>
		<path class="st11" d="M177.6,260.4l-6.1,0.4l-4.2-6.5c-0.5-0.7-1.3-1.1-2.2-1l-1.7,0.1l0.6,7.9l-5.4,0.4l-1.6-21.1l10-0.7
			c2.6-0.2,4.5,0.2,5.9,1.2c1.4,1,2.1,2.6,2.3,4.7c0.1,1.6-0.2,3-1,4.2c-0.7,1.2-2,2-3.5,2.6c1.3,0.2,2.2,0.9,3.1,2.1L177.6,260.4z
			 M169.5,248.4c0.5-0.4,0.7-1.1,0.6-1.9c-0.1-0.9-0.4-1.5-1-1.8c-0.5-0.3-1.5-0.4-2.7-0.4l-3.8,0.3l0.3,4.9l3.8-0.3
			C168.1,249,169.1,248.8,169.5,248.4z"/>
		<path class="st11" d="M179.7,260.3l-1.3-21.1l5.5-0.3l1.3,21.1L179.7,260.3z"/>
		<path class="st11" d="M193.3,258.5c-1.6-0.9-2.9-2-3.8-3.6c-1-1.6-1.5-3.5-1.5-5.6c-0.1-2.2,0.2-4.2,1.1-5.8
			c0.7-1.7,1.9-3,3.5-3.9c1.6-1,3.4-1.5,5.5-1.6c2.1-0.1,4,0.2,5.6,1.1s2.9,2,3.8,3.6c1,1.6,1.4,3.5,1.5,5.6
			c0.1,2.1-0.2,4.2-1.1,5.8c-0.7,1.7-1.9,3-3.5,3.9c-1.6,1-3.4,1.5-5.5,1.6C196.9,259.7,194.9,259.3,193.3,258.5z M202.5,253.5
			c0.9-1.2,1.3-2.9,1.2-5c-0.1-2.1-0.6-3.7-1.6-4.9c-1-1.1-2.2-1.6-3.8-1.5c-1.6,0.1-2.8,0.6-3.6,1.8c-0.9,1.2-1.3,2.8-1.2,5
			c0.1,2.1,0.6,3.8,1.6,4.9c1,1.1,2.2,1.6,3.8,1.5C200.4,255.3,201.7,254.7,202.5,253.5z"/>
		<path class="st11" d="M212.2,237.6l8.6-0.2c2.3-0.1,4.4,0.3,6.1,1.1s3,2,3.9,3.5c1,1.6,1.4,3.4,1.5,5.6c0.1,2.2-0.3,4-1.2,5.8
			c-0.9,1.6-2.1,2.9-3.7,3.7c-1.7,0.9-3.7,1.4-6.1,1.4l-8.6,0.2L212.2,237.6z M220.8,254.1c2,0,3.6-0.6,4.6-1.6
			c1-1.1,1.5-2.6,1.4-4.7c0-2-0.6-3.6-1.6-4.6c-1.1-1-2.6-1.5-4.7-1.4l-2.7,0.1l0.3,12.2L220.8,254.1z"/>
		<path class="st11" d="M235.7,258.3l-0.2-21.1l15-0.1v4.3l-9.7,0.1v4l9.1-0.1v4.3l-9.1,0.1v4.4l9.7-0.1v4.3H235.7z"/>
		<path class="st11" d="M262.3,237l8.6,0.1c2.3,0,4.4,0.4,6.1,1.3c1.7,0.9,3,2.1,3.8,3.7s1.3,3.5,1.3,5.6c0,2.2-0.5,4-1.4,5.6
			c-1,1.6-2.2,2.8-3.9,3.6c-1.7,0.9-3.7,1.2-6.1,1.2l-8.6-0.1L262.3,237z M270.4,253.8c2.1,0,3.6-0.4,4.7-1.5c1.1-1,1.6-2.6,1.6-4.6
			c0-2-0.4-3.6-1.5-4.6c-1-1.1-2.6-1.5-4.6-1.6H268l-0.1,12.2H270.4z"/>
		<path class="st11" d="M290.7,237.5l-0.1,3.4c0,1.3-0.3,2.4-0.7,3.4c-0.4,1-1.3,2-2.4,3.1l-1.9-1.6c1.1-1.1,1.8-2,2.1-3l-2.6-0.1
			l0.1-5.4L290.7,237.5z"/>
		<path class="st11" d="M293.3,258.6l0.7-21.1l15,0.5l-0.1,4.3l-9.7-0.3l-0.1,4l9.1,0.3l-0.1,4.3l-9.1-0.3l-0.1,4.4l9.7,0.3
			l-0.1,4.3L293.3,258.6z"/>
		<path class="st11" d="M313.9,259c-1.5-0.5-2.8-1.1-3.6-1.9l1.9-3.8c1,0.6,2,1.3,3.2,1.6c1.2,0.4,2.3,0.6,3.5,0.6
			c1.2,0.1,2.1-0.1,2.8-0.3c0.6-0.2,1-0.7,1.1-1.4c0-0.5-0.2-1-0.7-1.4c-0.5-0.3-1.6-0.7-3.2-1.2c-1.9-0.5-3.5-1.1-4.6-1.7
			s-1.8-1.4-2.2-2.1c-0.4-0.9-0.6-1.8-0.5-2.9c0.1-1.3,0.5-2.4,1.3-3.4c0.7-1,1.8-1.7,3.2-2.2c1.4-0.5,2.9-0.7,4.6-0.6
			c1.5,0.1,3,0.3,4.4,0.9c1.4,0.5,2.4,1.1,3.3,1.8l-1.9,3.8c-1.8-1.4-3.8-2.1-6-2.2c-1.1,0-1.8,0.1-2.4,0.4c-0.6,0.3-1,0.9-1,1.5
			c0,0.4,0.1,0.7,0.3,1c0.2,0.2,0.6,0.5,1.2,0.7c0.6,0.2,1.5,0.5,2.7,0.9c1.9,0.5,3.4,1.1,4.5,1.7s1.8,1.4,2.2,2.1
			c0.4,0.9,0.6,1.7,0.5,2.8c-0.1,2-1,3.6-2.7,4.8c-1.7,1.2-3.9,1.6-6.8,1.4C316.9,259.9,315.4,259.6,313.9,259z"/>
		<path class="st11" d="M333.6,260.2c-1.5-0.5-2.7-1.2-3.6-1.9l2-3.7c1,0.7,2,1.3,3.2,1.7c1.2,0.4,2.2,0.6,3.4,0.7
			c1.2,0.1,2.1,0,2.8-0.3c0.6-0.3,1-0.7,1.1-1.3c0-0.5-0.2-1-0.7-1.4c-0.5-0.4-1.6-0.7-3.2-1.3c-1.9-0.5-3.4-1.2-4.6-1.8
			c-1.1-0.6-1.8-1.4-2.2-2.2c-0.4-0.9-0.5-1.8-0.4-2.9c0.1-1.3,0.5-2.4,1.4-3.4c0.9-1,1.9-1.7,3.3-2.2c1.4-0.5,2.9-0.6,4.6-0.5
			c1.5,0.1,3,0.4,4.4,1c1.4,0.5,2.4,1.2,3.2,1.9l-1.9,3.7c-1.8-1.5-3.8-2.2-5.9-2.4c-1.1-0.1-1.8,0.1-2.4,0.4
			c-0.6,0.3-1,0.9-1.1,1.5c0,0.4,0.1,0.7,0.2,1c0.2,0.2,0.6,0.5,1.2,0.7s1.5,0.5,2.7,0.9c1.9,0.5,3.3,1.2,4.4,1.8
			c1.1,0.6,1.8,1.4,2.2,2.2c0.4,0.9,0.5,1.7,0.5,2.9c-0.1,2-1.1,3.6-2.8,4.7c-1.7,1.1-3.9,1.5-6.8,1.3
			C336.7,260.9,335.1,260.6,333.6,260.2z"/>
		<path class="st11" d="M366,263.2l-1.5-4.6l-9.3-0.9l-2.3,4.2l-5.5-0.5l11.8-20l4.4,0.4l7.8,21.9L366,263.2z M357.3,253.8l5.8,0.5
			l-2.2-7L357.3,253.8z"/>
		<path class="st11" d="M372.4,264l2.7-21l5.4,0.6l-2.7,21L372.4,264z"/>
	</g>
	<g>
		<path class="st9" d="M294.6,70.3l-6,24c-0.3,1.2-1.4,2-2.7,2l-36,0.2l0,0h-36c-1.3,0-2.3-0.9-2.7-2l-6-24.1
			c-0.1-0.3-0.1-0.5-0.1-0.9c-2.3-0.7-4-2.9-4-5.4c0-3.2,2.6-5.8,5.8-5.8c3.2,0,5.8,2.6,5.8,5.8c0,1.8-0.9,3.4-2.1,4.5l7.6,7.6
			c1.9,1.9,4.6,3,7.2,3c3.2,0,6.2-1.5,8.1-4l12.4-16.4c-1.1-1.1-1.7-2.4-1.7-4c0-3.2,2.6-5.8,5.8-5.8s5.8,2.6,5.8,5.8
			c0,1.5-0.6,2.9-1.6,3.9l0,0L266.3,75c1.9,2.6,4.9,4,8.1,4c2.8,0,5.2-1.1,7.2-3l7.6-7.6c-1.3-1.1-2.1-2.7-2.1-4.5
			c0-3.2,2.6-5.8,5.8-5.8s5.8,2.6,5.8,5.8"/>
		<path class="st9" d="M288,105.2c0-1.5-1.3-2.8-2.8-2.8h-70.5c-1.5,0-2.8,1.3-2.8,2.8v6.5c0,1.5,1.3,2.8,2.8,2.8h70.5
			c1.5,0,2.8-1.3,2.8-2.8V105.2z"/>
	</g>
	<g>
		<path class="st11" d="M146.3,344.6h6.3c1.4,0,2.6,0.3,3.3,1.1c0.7,0.7,1.2,1.7,1.2,3.1c0,1.3-0.4,2.3-1.2,3
			c-0.7,0.6-1.9,1.1-3.3,1.1h-2.9v4.7h-3.4V344.6z M152.1,350.4c0.6,0,1.1-0.1,1.4-0.4c0.3-0.2,0.4-0.6,0.4-1.2s-0.1-1-0.4-1.2
			c-0.3-0.2-0.7-0.4-1.4-0.4h-2.4v3.2H152.1z"/>
		<path class="st11" d="M170.3,357.6h-3.7l-2.2-4.2c-0.3-0.4-0.7-0.7-1.4-0.7h-1.1v4.9h-3.3v-13h6.2c1.6,0,2.8,0.3,3.5,1.1
			c0.7,0.6,1.2,1.7,1.2,3c0,1-0.3,1.8-0.9,2.4c-0.5,0.6-1.3,1.2-2.2,1.4c0.7,0.1,1.4,0.6,1.8,1.5L170.3,357.6z M166,349.9
			c0.3-0.2,0.5-0.6,0.5-1.2s-0.2-1-0.5-1.2c-0.3-0.2-0.9-0.3-1.6-0.3H162v3h2.3C165.1,350.3,165.7,350.1,166,349.9z"/>
		<path class="st11" d="M174.3,357c-1-0.5-1.7-1.3-2.2-2.3c-0.5-1-0.7-2.1-0.7-3.5c0-1.4,0.2-2.6,0.7-3.5c0.5-1,1.3-1.8,2.2-2.3
			c1-0.5,2.1-0.9,3.4-0.9c1.3,0,2.4,0.3,3.4,0.9c1,0.5,1.7,1.3,2.2,2.3c0.5,1,0.7,2.1,0.7,3.5c0,1.4-0.2,2.6-0.7,3.5
			c-0.5,1-1.3,1.8-2.2,2.3c-1,0.5-2.1,0.9-3.4,0.9C176.4,357.7,175.3,357.5,174.3,357z M180,354.1c0.5-0.6,0.9-1.7,0.9-3
			s-0.3-2.3-0.9-3c-0.5-0.6-1.3-1.1-2.2-1.1c-1,0-1.7,0.3-2.3,1.1s-0.9,1.7-0.9,3s0.3,2.3,0.9,3s1.3,1.1,2.3,1.1
			S179.5,354.9,180,354.1z"/>
		<path class="st11" d="M186.2,357.6v-13h9.1v2.7h-5.6v2.3h5.3v2.7h-5.3v5.3H186.2z"/>
		<path class="st11" d="M196.9,357.6v-13h3.4v13H196.9z"/>
		<path class="st11" d="M205.5,357.6v-10.2h-3.8v-2.8h11.2v2.8H209v10.2H205.5z"/>
		<path class="st11" d="M214.2,357.6v-13h9.2v2.7h-6v2.4h5.5v2.6h-5.5v2.7h6v2.7L214.2,357.6L214.2,357.6z"/>
		<path class="st11" d="M228.7,355h6.1v2.7H225v-2.4l5.8-7.9H225v-2.7h9.6v2.4L228.7,355z"/>
		<path class="st11" d="M241.8,344.6h5.3c1.4,0,2.7,0.2,3.7,0.7s1.8,1.3,2.3,2.2c0.5,1,0.9,2.1,0.9,3.5c0,1.4-0.3,2.6-0.9,3.5
			c-0.5,1-1.4,1.7-2.3,2.2c-1,0.5-2.2,0.7-3.7,0.7h-5.3V344.6z M246.8,354.9c1.3,0,2.2-0.3,2.9-1c0.6-0.6,1-1.6,1-2.9
			s-0.3-2.2-1-2.8c-0.6-0.6-1.6-1-2.9-1h-1.7v7.6H246.8z"/>
		<path class="st11" d="M256,357.6v-13h9.2v2.7h-6v2.4h5.5v2.6h-5.5v2.7h6v2.7L256,357.6L256,357.6z"/>
		<path class="st11" d="M268.6,357.4c-1-0.2-1.7-0.6-2.3-1.1l1.1-2.3c0.6,0.4,1.3,0.7,2,0.9c0.7,0.2,1.4,0.3,2.1,0.3
			s1.3-0.1,1.7-0.3c0.4-0.2,0.5-0.5,0.5-0.9s-0.2-0.6-0.5-0.9c-0.3-0.2-1.1-0.4-2-0.6c-1.2-0.2-2.1-0.5-2.9-1
			c-0.6-0.3-1.2-0.7-1.5-1.3c-0.3-0.4-0.4-1.1-0.4-1.8s0.2-1.5,0.6-2.1c0.4-0.6,1.1-1.2,1.9-1.5s1.7-0.5,2.8-0.5
			c1,0,1.8,0.1,2.7,0.4c0.9,0.2,1.6,0.6,2,1.1l-1.1,2.3c-1.2-0.9-2.4-1.2-3.7-1.2c-0.6,0-1.2,0.1-1.5,0.3c-0.4,0.2-0.5,0.5-0.5,1
			c0,0.2,0.1,0.4,0.2,0.5c0.1,0.1,0.4,0.3,0.7,0.4c0.3,0.1,1,0.3,1.6,0.4c1.2,0.2,2.1,0.5,2.8,1c0.6,0.3,1.2,0.7,1.4,1.3
			c0.3,0.4,0.4,1.1,0.4,1.7c0,1.3-0.5,2.2-1.5,3s-2.3,1.1-4.2,1.1C270.4,357.7,269.5,357.6,268.6,357.4z"/>
		<path class="st11" d="M286.9,357c-1-0.5-1.7-1.3-2.2-2.3c-0.5-1-0.7-2.1-0.7-3.5c0-1.4,0.2-2.6,0.7-3.5c0.5-1,1.3-1.8,2.2-2.3
			c1-0.5,2.1-0.9,3.4-0.9s2.4,0.3,3.4,0.9c1,0.5,1.7,1.3,2.2,2.3c0.5,1,0.7,2.1,0.7,3.5c0,1.4-0.2,2.6-0.7,3.5
			c-0.5,1-1.3,1.8-2.2,2.3c-1,0.5-2.1,0.9-3.4,0.9C289.1,357.7,287.9,357.5,286.9,357z M292.7,354.1c0.5-0.6,0.9-1.7,0.9-3
			s-0.3-2.3-0.9-3c-0.5-0.6-1.3-1.1-2.2-1.1s-1.7,0.3-2.3,1.1c-0.6,0.7-0.9,1.7-0.9,3s0.3,2.3,0.9,3s1.3,1.1,2.3,1.1
			S292.2,354.9,292.7,354.1z"/>
		<path class="st11" d="M298.9,357.6v-13h9.1v2.7h-5.8v2.3h5.3v2.7h-5.3v5.3H298.9z"/>
		<path class="st11" d="M309.4,357.6v-13h9.1v2.7h-5.6v2.3h5.3v2.7h-5.3v5.3H309.4z"/>
		<path class="st11" d="M331.8,357.6H328l-2.2-4.2c-0.3-0.4-0.7-0.7-1.4-0.7h-1.1v4.9h-3.3v-13h6.2c1.6,0,2.8,0.3,3.5,1.1
			c0.7,0.6,1.2,1.7,1.2,3c0,1-0.3,1.8-0.9,2.4c-0.5,0.6-1.3,1.2-2.2,1.4c0.7,0.1,1.4,0.6,1.8,1.5L331.8,357.6z M327.3,349.9
			c0.3-0.2,0.5-0.6,0.5-1.2s-0.2-1-0.5-1.2s-0.9-0.3-1.6-0.3h-2.3v3h2.3C326.4,350.3,327,350.1,327.3,349.9z"/>
		<path class="st11" d="M333,357.6v-13h9.2v2.7h-6v2.4h5.5v2.6h-5.5v2.7h6v2.7L333,357.6L333,357.6z"/>
		<path class="st11" d="M345.7,357.4c-1-0.2-1.7-0.6-2.3-1.1l1.1-2.3c0.6,0.4,1.3,0.7,2,0.9c0.7,0.2,1.4,0.3,2.1,0.3
			c0.7,0,1.3-0.1,1.7-0.3c0.4-0.2,0.5-0.5,0.5-0.9s-0.2-0.6-0.5-0.9c-0.3-0.2-1.1-0.4-2-0.6c-1.2-0.2-2.1-0.5-2.9-1
			c-0.6-0.3-1.2-0.7-1.5-1.3c-0.3-0.4-0.4-1.1-0.4-1.8s0.2-1.5,0.6-2.1c0.4-0.6,1.1-1.2,1.9-1.5c0.9-0.3,1.7-0.5,2.8-0.5
			c1,0,1.8,0.1,2.7,0.4c0.9,0.2,1.6,0.6,2,1.1l-1.1,2.3c-1.2-0.9-2.4-1.2-3.7-1.2c-0.6,0-1.2,0.1-1.5,0.3c-0.4,0.2-0.5,0.5-0.5,1
			c0,0.2,0.1,0.4,0.2,0.5s0.4,0.3,0.7,0.4c0.3,0.1,1,0.3,1.6,0.4c1.2,0.2,2.1,0.5,2.8,1c0.6,0.3,1.2,0.7,1.4,1.3
			c0.3,0.4,0.4,1.1,0.4,1.7c0,1.3-0.5,2.2-1.5,3s-2.3,1.1-4.2,1.1C347.5,357.7,346.6,357.6,345.7,357.4z"/>
		<path class="st11" d="M185.4,372.3v6.5c-0.6,0.3-1.5,0.5-2.3,0.7c-0.9,0.2-1.7,0.2-2.7,0.2c-1.4,0-2.7-0.3-3.6-0.9
			c-1.1-0.5-1.8-1.3-2.3-2.3c-0.5-1.1-0.9-2.2-0.9-3.5c0-1.4,0.3-2.6,0.9-3.5c0.5-1,1.4-1.8,2.3-2.3s2.2-0.9,3.5-0.9
			c1,0,1.8,0.1,2.7,0.3c0.9,0.2,1.5,0.5,2,1l-1.1,2.3c-0.6-0.4-1.2-0.6-1.7-0.9c-0.5-0.2-1.2-0.2-1.8-0.2c-1.2,0-2,0.3-2.6,1
			c-0.5,0.6-0.9,1.6-0.9,3c0,1.4,0.3,2.4,0.9,3.1c0.6,0.6,1.5,1,2.8,1c0.6,0,1.2-0.1,1.7-0.2v-2.4H180v-2.3h5.3V372.3z"/>
		<path class="st11" d="M199.2,379.7h-3.7l-2.2-4.2c-0.3-0.4-0.7-0.7-1.4-0.7h-1.1v4.9h-3.3v-13h6.2c1.6,0,2.8,0.3,3.5,1.1
			c0.7,0.6,1.2,1.7,1.2,3c0,1-0.3,1.8-0.9,2.4c-0.5,0.6-1.3,1.2-2.2,1.4c0.7,0.1,1.4,0.6,1.8,1.5L199.2,379.7z M194.8,371.9
			c0.3-0.2,0.5-0.6,0.5-1.2s-0.2-1-0.5-1.2c-0.3-0.2-0.9-0.3-1.6-0.3h-2.3v3h2.3C194,372.3,194.5,372.2,194.8,371.9z"/>
		<path class="st11" d="M210.2,379.7L209,377h-5.8l-1.2,2.7h-3.4l6.1-13h2.7l6.1,13H210.2z M204.4,374.5h3.5l-1.8-4.2L204.4,374.5z"
			/>
		<path class="st11" d="M215.6,379.7v-10.2h-3.9v-2.8h11.2v2.8H219v10.2H215.6z"/>
		<path class="st11" d="M225.6,378.4c-1-1-1.5-2.3-1.5-4.2v-7.5h3.3v7.7c0,1,0.2,1.6,0.6,2.1c0.4,0.5,1.1,0.7,1.8,0.7
			c0.7,0,1.4-0.2,1.8-0.7c0.4-0.5,0.6-1.2,0.6-2.1v-7.7h3.3v7.5c0,1.8-0.5,3.2-1.5,4.2c-1,1-2.4,1.5-4.3,1.5
			C228.1,379.9,226.6,379.4,225.6,378.4z"/>
		<path class="st11" d="M238,379.7v-13h3.4v13H238z"/>
		<path class="st11" d="M246.6,379.7v-10.2h-3.8v-2.8h11.2v2.8H250v10.2H246.6z"/>
		<path class="st11" d="M255.3,379.7v-13h9.2v2.7h-6v2.4h5.5v2.6h-5.5v2.7h6v2.7L255.3,379.7L255.3,379.7z"/>
		<path class="st11" d="M276.7,366.7h2.7v13h-3v-6.8l-2.4,4.7h-2.1l-2.4-4.6v6.7h-3v-13h2.7l3.9,7.3L276.7,366.7z"/>
		<path class="st11" d="M281.7,379.7v-13h9.2v2.7h-6v2.4h5.5v2.6h-5.5v2.7h6v2.7L281.7,379.7L281.7,379.7z"/>
		<path class="st11" d="M301.1,366.7h3.2v13h-2.4l-6-7.5v7.5h-3.2v-13h2.4l6,7.5V366.7z"/>
		<path class="st11" d="M309.5,379.7v-10.2h-3.8v-2.8h11.2v2.8H313v10.2H309.5z"/>
		<path class="st11" d="M323.8,375.2l-1-8.5h4l-1.1,8.5H323.8z M323,376.4h3.4v3.3H323V376.4z"/>
	</g>
</g>
</svg>
