<?xml version="1.0" encoding="utf-8"?>
<!-- Generator: Adobe Illustrator 21.0.0, SVG Export Plug-In . SVG Version: 6.00 Build 0)  -->
<svg version="1.1" id="Capa_1" xmlns="http://www.w3.org/2000/svg" xmlns:xlink="http://www.w3.org/1999/xlink" x="0px" y="0px"
	 viewBox="0 0 267.5 267.5" style="enable-background:new 0 0 267.5 267.5;" xml:space="preserve">
<style type="text/css">
	.st0{fill:#A2A2A2;}
</style>
<path class="st0" d="M257,100.3c0,0.7,0,1.5-0.2,2.2l-16.5,66c-0.8,3.3-3.8,5.7-7.2,5.7l-99,0.5l0,0H35c-3.4,0-6.4-2.3-7.3-5.7
	l-16.5-66.3c-0.2-0.8-0.2-1.5-0.2-2.3c-6.4-2-11-8-11-15c0-8.7,7.1-15.8,15.8-15.8s15.8,7.1,15.8,15.8c0,4.9-2.2,9.3-5.8,12.2
	l20.7,20.8c5.2,5.3,12.5,8.3,19.9,8.3c8.8,0,17.1-4.2,22.4-11.1l33.9-45c-2.9-2.8-4.6-6.8-4.6-11.1c0-8.7,7.1-15.8,15.8-15.8
	s15.8,7.1,15.8,15.8c0,4.2-1.7,8-4.4,10.9l0,0l33.7,45.1c5.3,7,13.6,11.2,22.4,11.2c7.5,0,14.5-2.9,19.8-8.2L242,97.7
	c-3.6-2.9-5.9-7.3-5.9-12.3c0-8.7,7.1-15.8,15.8-15.8c8.7,0,15.8,7.1,15.8,15.8C267.5,92.4,263.1,98.2,257,100.3z M238.7,198.3
	c0-4.1-3.4-7.5-7.5-7.5h-194c-4.1,0-7.5,3.4-7.5,7.5v18c0,4.1,3.4,7.5,7.5,7.5h194c4.1,0,7.5-3.4,7.5-7.5V198.3z"/>
</svg>
