<?xml version="1.0" encoding="utf-8"?>
<!-- Generator: Adobe Illustrator 21.0.0, SVG Export Plug-In . SVG Version: 6.00 Build 0)  -->
<svg version="1.1" id="Layer_1" xmlns="http://www.w3.org/2000/svg" xmlns:xlink="http://www.w3.org/1999/xlink" x="0px" y="0px"
	 viewBox="0 0 45 45" style="enable-background:new 0 0 45 45;" xml:space="preserve">
<style type="text/css">
	.st0{fill:#FFFFFF;stroke:#FFFFFF;stroke-width:2;stroke-miterlimit:10;}
</style>
<g>
	<g>
		<path class="st0" d="M39.3,28.3c2.3-6.8,0.4-14.6-5.4-19.6c-6.3-5.3-15-5.5-21.5-1.2l1.5,2.6c5.4-3.7,12.8-3.5,18.1,0.9
			c4.9,4.1,6.4,10.6,4.5,16.3l-2.9-0.9l1.5,2.6l1.5,2.6l2.8-1.2l2.8-1.2L39.3,28.3z"/>
	</g>
	<g>
		<path class="st0" d="M5.7,16.7c-2.3,6.8-0.4,14.6,5.4,19.6c6.3,5.3,15,5.5,21.5,1.2l-1.5-2.6c-5.4,3.7-12.8,3.5-18.1-0.9
			c-4.9-4.1-6.4-10.6-4.5-16.3l2.9,0.9L9.9,16l-1.5-2.6l-2.8,1.2l-2.8,1.2L5.7,16.7z"/>
	</g>
</g>
</svg>
