<?xml version="1.0" encoding="utf-8"?>
<!-- Generator: Adobe Illustrator 21.0.0, SVG Export Plug-In . SVG Version: 6.00 Build 0)  -->
<svg version="1.1" id="Layer_1" xmlns="http://www.w3.org/2000/svg" xmlns:xlink="http://www.w3.org/1999/xlink" x="0px" y="0px"
	 viewBox="0 0 500 306.3" style="enable-background:new 0 0 500 306.3;" xml:space="preserve">
<style type="text/css">
	.st0{clip-path:url(#SVGID_2_);}
	.st1{opacity:0.15;fill:#FFFFFF;enable-background:new    ;}
	.st2{enable-background:new    ;}
	.st3{opacity:0.15;fill:#FFFFFF;}
	.st4{fill:#6B6B6B;}
	.st5{fill:#125317;}
	.st6{fill:#006E8D;}
	.st7{fill:#E40000;}
</style>
<g>
	<g>
		<defs>
			<rect id="SVGID_1_" width="500" height="306.3"/>
		</defs>
		<clipPath id="SVGID_2_">
			<use xlink:href="#SVGID_1_"  style="overflow:visible;"/>
		</clipPath>
		<g class="st0">
			<g>
				<g>
					<g>
						<polygon class="st1" points="56.4,-44.1 33.5,42.9 -5.3,21.8 -9.4,-44.1 						"/>
						<polygon class="st1" points="361.6,-39.4 332.2,52.3 432.7,15.3 432.7,-39.4 						"/>
						<polygon class="st1" points="455.1,12.4 382.4,45.6 412.7,71.2 						"/>
						<polygon class="st1" points="439.8,-39.4 439.8,12.4 511.5,-13.5 513.8,-39.4 						"/>
						<polygon class="st1" points="522.7,-8.2 480.3,6.5 529.7,37.1 						"/>
						<polygon class="st1" points="73,421.6 95.1,498.2 161.9,498.2 172.8,467.2 161.9,436.9 						"/>
						<polygon class="st1" points="172.8,435.6 204.9,498.2 264.9,498.2 269,453.6 						"/>
						<polygon class="st1" points="485.4,373.5 462.9,394.6 529.7,458.7 529.7,416.1 						"/>
						<polygon class="st1" points="405.9,429.1 362.5,454.3 322.3,497.1 437.3,498.2 						"/>
						<g>
							<g>
								<polygon class="st1" points="134.4,246.6 95.1,212.5 95.1,231.2 122,274.7 								"/>
								<polygon class="st1" points="173.5,206.5 95.1,149.1 95.1,201.9 144.1,244.5 127.1,283 139,302.2 183.4,279.3 								"/>
							</g>
						</g>
						<g>
							<g>
								<polygon class="st1" points="232.5,315.2 256.6,299 271.9,286.1 183.4,207.8 192.3,276.8 								"/>
								<polygon class="st1" points="342.2,348.3 278,291.5 261.2,305.6 238.4,320.8 299,378.7 								"/>
							</g>
						</g>
						<g>
							<g>
								<polygon class="st1" points="290.7,218.6 233.8,215.6 215.9,223.6 280.2,279.1 303.1,259.9 								"/>
								<polygon class="st1" points="312.3,262.6 286.4,284.4 349.1,338.4 367.5,333.8 331.4,246.1 306.4,242.9 								"/>
								<polygon class="st1" points="327.9,237.6 320.8,220.2 299.2,219.1 303.8,234.5 								"/>
							</g>
						</g>
						<g>
							<g>
								<polygon class="st1" points="223.1,210.5 200.4,160.6 170.7,158.5 162.1,137.2 100.6,141.8 208.7,215.6 								"/>
								<polygon class="st1" points="196.6,152.3 188.9,135.2 170.5,136.6 176.2,150.8 								"/>
							</g>
						</g>
						<g>
							<g>
								<polygon class="st1" points="283.4,125.8 304.6,121.3 225.7,48.2 195.2,127 206.7,153 262.8,157 								"/>
								<polygon class="st1" points="357.4,170.2 342.1,156 290.5,189.9 296.6,210.2 306.9,210.5 								"/>
								<polygon class="st1" points="266.9,165.3 210.3,161.3 231,208.1 288.1,209.9 281.1,186.5 336.1,150.4 311.8,127.9 
									288.3,132.9 								"/>
							</g>
						</g>
						<g>
							<g>
								<polygon class="st1" points="479.7,162.1 459.1,202.2 488.4,237.1 545.2,226.1 542.3,124.2 455.1,124.2 444.2,146.9 
																	"/>
								<polygon class="st1" points="440.7,154.1 432.7,170.7 453.5,195.5 468.6,166.1 								"/>
							</g>
						</g>
						<g>
							<g>
								<polygon class="st1" points="418.7,167.8 365.7,161.1 438.8,224.1 449.2,203.9 								"/>
								<polygon class="st1" points="445.1,229.5 474.2,254.5 480.3,240.8 454.8,210.5 								"/>
							</g>
						</g>
						<g>
							<g>
								<polygon class="st1" points="264.9,357.6 230.4,326.2 209.8,340 221.3,371.9 245.8,378.7 								"/>
								<polygon class="st1" points="211.9,369.3 200.1,336.9 224.3,320.7 187.1,286.9 145,310.2 169.7,357.6 								"/>
							</g>
						</g>
						<polygon class="st1" points="433.3,234.9 361.5,175.1 328.2,203.9 342.2,239.4 425.5,250.2 						"/>
						<polygon class="st1" points="461.9,303.9 474.2,268.9 439.6,240.1 420.2,277.8 						"/>
						<g>
							<g>
								<polygon class="st1" points="467.6,316.9 461,338.9 466.7,344.9 479.7,324.5 								"/>
								<polygon class="st1" points="489,245.6 470,308.9 490.8,322 472.4,350.8 520.3,400.9 520.3,245.6 								"/>
							</g>
						</g>
						<g>
							<g>
								<polygon class="st1" points="453.2,341.6 378.6,338.4 367.5,344.8 416.5,356.3 444.3,380 462.9,350.9 								"/>
								<polygon class="st1" points="450.4,385.3 456.7,390.7 481,368.2 468.8,356.5 								"/>
							</g>
						</g>
						<polygon class="st1" points="440.2,386.3 417.4,365.7 413.7,397.7 430.8,401.1 						"/>
						<g>
							<g>
								<polygon class="st1" points="405.4,396.1 411,362.2 357.4,348.9 307.7,382.9 343.4,418.4 375.4,390.3 								"/>
								<polygon class="st1" points="377.7,398.9 349.1,424.1 365.3,440.2 401.2,421.6 404.1,404 								"/>
							</g>
						</g>
						<g>
							<g>
								<polygon class="st1" points="315,454.1 300.5,442.8 274.8,466.9 271.7,491.8 307.7,491.8 351.4,444.8 339.4,432.6 								
									"/>
								<polygon class="st1" points="333.8,426.9 326,419 306.4,437.3 314.7,443.7 								"/>
							</g>
						</g>
						<g>
							<g>
								<polygon class="st1" points="277.9,415.1 300.8,432.9 321.7,413.6 269,368.2 253.7,384.9 256.3,400.9 254.5,412 								"/>
								<polygon class="st1" points="274.7,422.8 253.3,419.9 250,440.2 283.7,448.9 294.9,438.5 								"/>
							</g>
						</g>
						<g>
							<g>
								<polygon class="st1" points="187.1,378.7 172.5,396.1 205.7,405.5 226,408.2 216.9,383 209.9,378.7 								"/>
								<polygon class="st1" points="204.1,413.4 203.8,413.3 166.8,402.8 151,421.6 237.4,440.2 242,418.4 								"/>
								<polygon class="st1" points="243.7,410.6 245.8,400.9 227.8,389.8 235,409.4 								"/>
							</g>
						</g>
						<g>
							<g>
								<polygon class="st1" points="110,378.3 137.3,386 102.7,318.4 116.9,286.2 92.1,245.6 40.8,290.9 49.4,327.4 80.8,316.3 
																	"/>
								<polygon class="st1" points="161.4,392.9 173.5,378.7 122,294.5 111.6,318.1 147.8,389 								"/>
								<polygon class="st1" points="104.3,385 76.7,326.3 51.2,335.3 68.9,410.9 137,421.6 155.7,399.6 								"/>
							</g>
						</g>
						<g>
							<g>
								<polygon class="st1" points="14.6,339.8 40.5,330.6 30.3,293.3 -5.3,286.9 -5.3,337.5 								"/>
								<polygon class="st1" points="15.6,347.9 -5.3,345.5 -5.3,411.6 55,384.2 42.6,338.3 								"/>
							</g>
						</g>
						<g class="st2">
							<polygon class="st3" points="87,235.2 87,205.4 73.1,193.3 33.1,230.6 -5.3,208.9 -5.3,276.9 32.9,279.3 							"/>
						</g>
						<g class="st2">
							<polygon class="st3" points="87,194.8 87,138.2 83.6,132.8 53.7,165.9 							"/>
						</g>
						<g class="st2">
							<polygon class="st3" points="32,220.7 67,188.1 42.3,166.6 79.2,125.8 33.5,52.3 -5.3,33.5 -5.3,199.7 							"/>
						</g>
						<polygon class="st1" points="107.2,94.9 112.8,88.7 139.9,81.1 131.7,54.9 115.8,44.7 86.7,71.5 						"/>
						<polygon class="st1" points="88.6,17.7 114.9,34.6 141,10.6 141,-15.9 100.8,-31.1 						"/>
						<polygon class="st1" points="94,135.2 158.5,128.3 142.6,88.7 117.2,95.8 89,126.9 						"/>
						<polygon class="st1" points="101.8,100.9 75.5,70.9 108.8,40.2 79.5,21.4 93.3,-33.9 66.4,-44.1 40.8,47 84.7,119.7 						"/>
						<polygon class="st1" points="149,10.4 184.2,37.3 208.5,29.6 175.2,-2.9 149,-12.8 						"/>
						<g>
							<g>
								<polygon class="st1" points="227.4,32 276.3,78.8 303.5,67.1 274.5,17.1 								"/>
								<polygon class="st1" points="248.2,17 278.2,7.6 310.9,64 317.5,61.2 353.9,-38.8 275.6,-51.4 								"/>
								<polygon class="st1" points="238.4,20.2 267.5,-52.7 226.3,-59.4 183.4,-10 220.8,25.7 								"/>
							</g>
						</g>
						<g>
							<polygon class="st1" points="331.6,115.5 308.3,75.5 283.4,84.7 320.9,117.8 							"/>
							<polygon class="st1" points="357,118.3 328.4,124.4 348.7,142.2 374,125.5 							"/>
							<polygon class="st1" points="409.4,132 433.7,142.4 448,117 371,52.3 355.2,58.2 							"/>
							<polygon class="st1" points="354.9,147.7 357.4,149.9 426.8,154.6 429.8,149.4 382.8,129.3 							"/>
							<polygon class="st1" points="315.9,72.7 339.8,113.8 357.9,109.9 394.9,125.8 347.4,61.1 							"/>
						</g>
						<polygon class="st4" points="245.6,66.6 240,75.5 259.3,91.6 265.4,85 						"/>
						<polygon class="st4" points="123.8,170.1 118.7,180.7 148.6,198.9 154.5,192.6 						"/>
						<rect x="151" y="247.9" class="st4" width="10.9" height="13.6"/>
						<polygon class="st4" points="456.4,152.2 472.5,159.1 480.3,139.6 464,133.1 						"/>
						<polygon class="st4" points="231,208.1 243.9,208.5 249.3,195.1 233,188.6 228,201.2 						"/>
						<g>
							<polygon class="st4" points="75.3,244.7 83.4,238.1 83.4,225.7 75.3,225.7 							"/>
							<polygon class="st4" points="47.9,265.2 47.9,250.1 39.8,250.1 39.8,270 39.8,273.6 39.9,273.6 47.9,267.1 							"/>
							<polygon class="st4" points="71.6,233.8 63.5,233.8 63.5,253.7 63.5,254.4 71.6,247.7 							"/>
							<polygon class="st4" points="59.7,257 59.7,242 51.6,242 51.6,261.9 51.6,264 59.7,257.4 							"/>
						</g>
						<polygon class="st4" points="169.7,357.6 182.4,361.1 183.4,337.6 169.3,322.6 153.9,327.2 						"/>
						<polygon class="st4" points="380.8,19.3 374,19.3 358.5,25.7 359.5,42.3 393.1,29.9 						"/>
						<polygon class="st4" points="417,21.1 425.9,17.8 425.9,-2.8 417,-2.8 						"/>
					</g>
					<g>
						<g>
							<polygon class="st5" points="469.8,12.4 418.6,78.8 460.3,114.1 513.3,114.1 529.7,48.2 							"/>
							<polygon class="st5" points="55,395.6 -5.3,425.6 -5.3,496.2 84.3,496.2 							"/>
							<polygon class="st5" points="451.5,333.8 459.2,311.7 409.8,280.7 421.6,257.7 345.5,247.9 379.2,333.8 							"/>
							<polygon class="st5" points="446.3,391.7 434.6,410 412.8,405.7 411,421.6 451,500.9 517,500.9 529.7,466.9 							"/>
							<polygon class="st5" points="145.2,17.6 121.9,39.1 138.5,49.8 148.8,82.5 166.8,127.4 186.4,125.2 220.9,41.8 215,36 
								182.6,46.2 							"/>
						</g>
						<path class="st6" d="M195.9,66c-0.9-1.6-2.3-2.9-3.3-4.4c0,0-5.8-7.7-19-6.8c-6.2,0.4-11.1,0.2-15.9,4.5
							c-3.7,3.4-2.8,9.9-0.9,14.1c1.3,3,3.1,5.6,4.6,8.4c1.3,2.6,2.5,5.4,4,7.9c2.7,4.7,7.6,7.8,13,7.5c5.5-0.4,12.6-3.4,15.9-8.4
							c3.1-4.7,3.3-9.9,3.3-15.5C197.5,70.2,197.4,68.7,195.9,66z"/>
					</g>
				</g>
			</g>
		</g>
	</g>
</g>
<g>
	<path class="st7" d="M269,158.9c3.3-4.1,5.2-9.3,5.2-15c0-13.4-10.8-24.2-24.2-24.2c-13.4,0-24.2,10.9-24.2,24.2
		c0,5.7,1.9,10.9,5.2,15l19,27.8L269,158.9z"/>
</g>
</svg>
