<?xml version="1.0" encoding="utf-8"?>
<!-- Generator: Adobe Illustrator 21.0.0, SVG Export Plug-In . SVG Version: 6.00 Build 0)  -->
<svg version="1.1" id="Capa_1" xmlns="http://www.w3.org/2000/svg" xmlns:xlink="http://www.w3.org/1999/xlink" x="0px" y="0px"
	 viewBox="0 0 512 512" style="enable-background:new 0 0 512 512;" xml:space="preserve">
<style type="text/css">
	.st0{display:none;fill:#070708;}
	.st1{fill:#1C1C1D;}
	.st2{fill:#5A5A5B;}
	.st3{opacity:0.1;fill:#F8F8FF;enable-background:new    ;}
	.st4{fill:#7C7C7F;}
	.st5{opacity:0.1;enable-background:new    ;}
	.st6{opacity:0.1;}
	.st7{fill:#212121;}
	.st8{opacity:0.25;enable-background:new    ;}
	.st9{opacity:0.15;enable-background:new    ;}
	.st10{opacity:0.12;enable-background:new    ;}
	.st11{opacity:0.5;fill:#FFFFFF;enable-background:new    ;}
	.st12{opacity:0.1;fill:#FFFFFF;enable-background:new    ;}
	.st13{fill:#585859;}
	.st14{opacity:0.5;}
	.st15{fill:#656D78;}
	.st16{fill:#F4F4F4;}
	.st17{fill:#DDDDDD;}
	.st18{fill:#FFFFFF;}
</style>
<rect x="-80" y="-65" class="st0" width="672" height="641"/>
<g>
	<path class="st1" d="M80.1,132.4c-1,0-1.9,0.1-2.9,0.3c-0.7-3.6-3.1-6.7-6.3-8.3c-3.3-1.7-7.1-1.7-10.5-0.2
		c-3-8.3-12.2-12.6-20.5-9.6s-12.6,12.2-9.6,20.5c-7.3,0.2-13,6.2-12.9,13.5s6,13.1,13.3,13.1H80c8.1,0,14.7-6.6,14.7-14.7
		C94.8,139,88.2,132.4,80.1,132.4z"/>
	<g>
		<path class="st2" d="M118.6,163.7c-1.3,0-2.6,0.1-3.8,0.4c-1-4.8-4-8.8-8.4-11c-4.3-2.2-9.4-2.3-13.8-0.3
			c-4-11-16.1-16.6-27.1-12.7s-16.6,16.1-12.7,27.1c-9.6,0.3-17.2,8.3-17.1,17.9c0.1,9.6,8,17.3,17.6,17.4h65.2
			c10.7,0,19.4-8.7,19.4-19.4C138,172.4,129.4,163.7,118.6,163.7z"/>
		<path class="st3" d="M118.6,163.7c-1.3,0-2.6,0.1-3.8,0.4c-1-4.8-4-8.8-8.4-11c-4.3-2.2-9.4-2.3-13.8-0.3
			c-4-11-16.1-16.6-27.1-12.7s-16.6,16.1-12.7,27.1c-9.6,0.3-17.2,8.3-17.1,17.9c0.1,9.6,8,17.3,17.6,17.4h65.2
			c10.7,0,19.4-8.7,19.4-19.4C138,172.4,129.4,163.7,118.6,163.7z"/>
	</g>
</g>
<g>
	<path class="st1" d="M459.9,232.6c-1,0-2,0.1-2.9,0.3c-0.7-3.6-3.1-6.7-6.4-8.4s-7.2-1.7-10.5-0.2c-3-8.4-12.3-12.7-20.6-9.6
		c-8.4,3-12.7,12.3-9.6,20.6c-7.3,0.2-13.1,6.3-13,13.6c0.1,7.3,6.1,13.2,13.4,13.2h49.6c8.2,0,14.8-6.6,14.8-14.8
		C474.7,239.2,468.1,232.6,459.9,232.6z"/>
	<g>
		<path class="st2" d="M479.1,214.5c-0.7,0-1.4,0.1-2.1,0.2c-0.5-2.6-2.2-4.9-4.6-6.1c-2.4-1.2-5.2-1.3-7.7-0.1
			c-2.2-6.1-9-9.2-15.1-7s-9.2,9-7,15.1c-5.3,0.2-9.6,4.6-9.5,9.9c0.1,5.3,4.4,9.6,9.8,9.6h36.2c6,0,10.8-4.8,10.8-10.8
			C489.8,219.3,485,214.5,479.1,214.5z"/>
		<path class="st3" d="M479.1,214.5c-0.7,0-1.4,0.1-2.1,0.2c-0.5-2.6-2.2-4.9-4.6-6.1c-2.4-1.2-5.2-1.3-7.7-0.1
			c-2.2-6.1-9-9.2-15.1-7s-9.2,9-7,15.1c-5.3,0.2-9.6,4.6-9.5,9.9c0.1,5.3,4.4,9.6,9.8,9.6h36.2c6,0,10.8-4.8,10.8-10.8
			C489.8,219.3,485,214.5,479.1,214.5z"/>
	</g>
</g>
<g>
	<g>
		<polygon class="st4" points="123.6,205.2 123.6,386.2 167.6,386.2 167.6,274.5 235.1,274.5 235.1,386.2 326.2,386.2 326.2,205.2 
					"/>
		<rect x="123.6" y="199.9" class="st5" width="202.6" height="50.5"/>
		<g class="st6">
			<rect x="123.6" y="363.8" width="44" height="22.4"/>
			<rect x="235.1" y="363.8" width="91.2" height="22.4"/>
		</g>
		<g>
			<path class="st7" d="M187.3,145.8v62.8c0,20.9,17,37.8,37.8,37.8s37.8-17,37.8-37.8v-62.8H187.3z"/>
			<path class="st1" d="M111.6,145.8v62.8c0,20.9,17,37.8,37.8,37.8s37.8-17,37.8-37.8v-62.8H111.6z"/>
			<path class="st1" d="M263.1,145.8v62.8c0,20.9,17,37.8,37.8,37.8s37.8-17,37.8-37.8v-62.8H263.1z"/>
		</g>
		<rect x="274.5" y="274.3" class="st8" width="51.8" height="19.1"/>
		<rect x="287.4" y="306" class="st9" width="39" height="19.1"/>
		<rect x="111.6" y="145.8" class="st10" width="227.2" height="64.9"/>
	</g>
	<g>
		<circle class="st11" cx="384.9" cy="180.8" r="21.4"/>
		<circle class="st12" cx="384.9" cy="180.8" r="31.2"/>
		<circle class="st12" cx="384.9" cy="180.8" r="39.2"/>
		<rect x="381.2" y="201.2" class="st1" width="7.5" height="148.1"/>
		<rect x="374.4" y="347" class="st13" width="21.1" height="39.3"/>
		<g>
			<path class="st1" d="M398.9,163.3c-3.8-3-8.7-4.9-13.9-4.9s-10,1.9-13.9,4.9H398.9z"/>
			<path class="st1" d="M364,188.8c3.2,8.4,11.4,14.4,21,14.4c9.6,0,17.8-6,21-14.4H364z"/>
		</g>
	</g>
</g>
<g>
	<rect x="209.8" y="384.9" class="st13" width="7" height="7.1"/>
	<rect x="411.5" y="384.9" class="st13" width="7" height="7.1"/>
	<g>
		<rect x="390.5" y="384.9" class="st13" width="14" height="7.1"/>
		<rect x="223.8" y="384.9" class="st13" width="166.8" height="7.1"/>
	</g>
	<g>
		<rect x="119.8" y="384.9" class="st13" width="83" height="7.1"/>
		<rect x="93.5" y="384.9" class="st13" width="19" height="7.1"/>
	</g>
</g>
<g>
	<rect x="166" y="272.7" class="st13" width="71" height="112.6"/>
	<g class="st14">
		<path class="st4" d="M174.7,344.2h11.7v11.7h-11.7V344.2z"/>
		<path class="st4" d="M174.7,365.1h11.7v11.7h-11.7V365.1z"/>
		<path class="st4" d="M216.7,281.2h11.7v11.7h-11.7V281.2z"/>
		<path class="st4" d="M216.7,302.2h11.7v11.6h-11.7V302.2z"/>
		<path class="st4" d="M195.7,281.2h11.7v11.7h-11.7V281.2z"/>
		<path class="st4" d="M216.7,344.2h11.7v11.7h-11.7V344.2z"/>
		<path class="st4" d="M195.7,365.1h11.7v11.7h-11.7V365.1z"/>
		<path class="st4" d="M174.7,281.2h11.7v11.7h-11.7V281.2z"/>
		<path class="st4" d="M174.7,302.2h11.7v11.6h-11.7V302.2z"/>
		<path class="st4" d="M216.7,365.1h11.7v11.7h-11.7V365.1z"/>
		<path class="st4" d="M216.7,323.2h11.7v11.7h-11.7V323.2z"/>
		<path class="st4" d="M195.7,302.2h11.7v53.6h-11.7V302.2z"/>
	</g>
	<path class="st15" d="M176.7,339c-1,0-1.8-0.8-1.8-1.8s0.8-1.8,1.7-1.8h0c1,0,1.8,0.8,1.8,1.8S177.7,339,176.7,339z"/>
	<path class="st16" d="M176.7,326.4c1.5,0,2.6,1.2,2.6,2.6c0,1.5-1.2,2.6-2.6,2.6s-2.6-1.2-2.6-2.6
		C174.1,327.6,175.2,326.4,176.7,326.4z"/>
	<path class="st17" d="M176.7,333.4c-2.4,0-4.4-2-4.4-4.4s2-4.4,4.4-4.4c2.4,0,4.4,2,4.4,4.4S179.1,333.4,176.7,333.4z M176.7,328.1
		c-0.5,0-0.9,0.4-0.9,0.9s0.4,0.9,0.9,0.9s0.9-0.4,0.9-0.9S177.2,328.1,176.7,328.1z"/>
	<path class="st18" d="M184.6,330.8h-7.9c-1,0-1.8-0.8-1.8-1.8s0.8-1.8,1.8-1.8h7.9c1,0,1.8,0.8,1.8,1.8S185.6,330.8,184.6,330.8
		L184.6,330.8z"/>
</g>
</svg>
