<?xml version="1.0" encoding="utf-8"?>
<!-- Generator: Adobe Illustrator 21.0.0, SVG Export Plug-In . SVG Version: 6.00 Build 0)  -->
<svg version="1.1" id="Capa_1" xmlns="http://www.w3.org/2000/svg" xmlns:xlink="http://www.w3.org/1999/xlink" x="0px" y="0px"
	 viewBox="0 0 512 512" style="enable-background:new 0 0 512 512;" xml:space="preserve">
<style type="text/css">
	.st0{opacity:0.15;fill:#E5E5E5;enable-background:new    ;}
	.st1{opacity:0.3;}
	.st2{opacity:0.1;}
	.st3{fill:#212121;}
	.st4{fill:#1C1C1D;}
	.st5{opacity:0.25;}
	.st6{opacity:0.15;}
	.st7{opacity:0.12;enable-background:new    ;}
	.st8{opacity:0.12;fill:#FFFFFF;}
</style>
<circle class="st0" cx="256" cy="256" r="256"/>
<g>
	<g>
		<polygon class="st1" points="107,186.8 107,390.6 156.5,390.6 156.5,264.8 232.5,264.8 232.5,390.6 335,390.6 335,186.8 		"/>
		<rect x="107" y="180.9" class="st2" width="228" height="56.8"/>
		<g class="st2">
			<rect x="107" y="365.4" width="49.5" height="25.2"/>
			<rect x="232.5" y="365.4" width="102.7" height="25.2"/>
		</g>
		<g>
			<path class="st3" d="M178.7,120v70.7c0,23.5,19.1,42.6,42.6,42.6s42.6-19.1,42.6-42.6V120H178.7z"/>
			<path class="st4" d="M93.5,120v70.7c0,23.5,19.1,42.6,42.6,42.6s42.6-19.1,42.6-42.6V120H93.5z"/>
			<path class="st4" d="M264,120v70.7c0,23.5,19.1,42.6,42.6,42.6s42.6-19.1,42.6-42.6V120H264z"/>
		</g>
		<rect x="276.8" y="264.6" class="st5" width="58.3" height="21.5"/>
		<rect x="291.3" y="300.3" class="st6" width="43.9" height="21.5"/>
		<rect x="93.5" y="120" class="st7" width="255.7" height="73"/>
	</g>
	<g>
		<rect x="382.4" y="346.4" class="st1" width="23.7" height="44.2"/>
		<rect x="390.1" y="182.3" class="st4" width="8.4" height="166.7"/>
		<circle class="st8" cx="394.3" cy="159.4" r="24.1"/>
		<g>
			<path class="st4" d="M410,139.7c-4.3-3.4-9.8-5.5-15.7-5.5s-11.3,2.1-15.7,5.5H410z"/>
			<path class="st4" d="M370.7,168.4c3.6,9.5,12.8,16.2,23.6,16.2c10.8,0,20-6.8,23.6-16.2H370.7z"/>
		</g>
	</g>
	<rect x="93.5" y="384.9" class="st4" width="325" height="7.1"/>
</g>
</svg>
