<?xml version="1.0" encoding="utf-8"?>
<!-- Generator: Adobe Illustrator 21.0.0, SVG Export Plug-In . SVG Version: 6.00 Build 0)  -->
<svg version="1.1" id="Layer_1" xmlns="http://www.w3.org/2000/svg" xmlns:xlink="http://www.w3.org/1999/xlink" x="0px" y="0px"
	 viewBox="0 0 1069.1 1070.8" style="enable-background:new 0 0 1069.1 1070.8;" xml:space="preserve">
<style type="text/css">
	.st0{fill:#070708;}
	.st1{fill:#FFFFFF;}
	.st2{opacity:0.1;fill:#FFFFFF;}
</style>
<rect x="-0.1" class="st0" width="1069.2" height="1070.8"/>
<g>
	<g>
		<path class="st1" d="M77.6,337.3c0,0,5,0.1,20-27c3-5.4,9.3-9.3,14.8-12.2c13.7-7.2,38.9-17.9,69.6-13c18.6,3,29.9,12.2,36.7,21.7
			c7.7,10.7,10.9,23.9,9.7,37c-1.6,16.8-7.3,49-29,70.8c-30.4,30.4-49.6,22.6-49.6,22.6s-6.1-1.7-7-20.9
			c-0.7-17.5-1.5-82.2,14.4-109c1.4-2.3,1-5.3-1.1-7c-3.5-3-9.9-5.7-19.7-0.5c-5.2,2.9-9.3,7.4-11.7,12.9
			c-6.3,14.2-15.7,50.5-12.3,94.9c0.7,8.4,1,17.3,2.6,27.8c0.5,3.7,1.1,7,1.8,10.3c0.4,2.3,2,4.1,4.2,4.9c10.1,4,29.7,10.3,52.3,3.8
			c30.4-8.7,50.4-20.9,64.3-46.1c0,0,20-36.5,20.1-71.7c0-1.2-0.1-2.4-0.1-3.7c-0.1-7.7-2-44-32.2-60.3
			c-33.9-18.3-86.1-13.9-110.4-5.2s-43.5,27.8-43.5,53C71.5,320.8,71.5,338.1,77.6,337.3z"/>
		<path class="st1" d="M153.4,459c-10.7,0-21.7-2.3-33-6.7c-2.7-1-4.7-3.3-5.2-6.2c-0.7-3.5-1.3-6.9-1.8-10.4
			c-1.1-7.9-1.7-14.8-2.1-21.4c-0.2-2.3-0.3-4.4-0.5-6.5c-3.6-45.8,6.5-82.6,12.4-95.7c2.6-5.9,7-10.6,12.5-13.7
			c11.1-5.9,18.3-2.1,21.7,0.7c2.7,2.3,3.3,6.2,1.5,9.2c-16.9,28.3-14.5,99.9-14.2,108c0.7,16.3,5.3,19,5.7,19.3h0.2l0,0
			c0.2,0.1,18.6,6.9,47.7-22.3c21.1-21.1,27-52.8,28.5-69.7c1.2-13-2.1-25.7-9.3-35.9c-8.2-11.5-20.1-18.6-35.6-21
			c-22.5-3.6-45.6,0.8-68.5,12.9c-4.7,2.4-11.2,6.3-14.1,11.5c-13.6,24.3-19.3,27.7-21.4,27.8c-1.3,0.2-2.6-0.3-3.7-1.1
			c-4.1-3.6-4.3-15-4.3-17.3c0-23.9,17.1-44.9,44.6-54.7c24.7-8.9,77.4-13.2,111.8,5.3c31,16.7,33,54.3,33.1,61.7c0,0.6,0,1.2,0,1.8
			s0.1,1.2,0.1,1.9c-0.1,35.2-20.1,72.2-20.3,72.6c-13.1,23.8-32.1,37.4-65.4,47C167.1,458.1,160.4,459,153.4,459z M146.6,298.7
			c-2.6,0-5.7,0.8-9.5,2.7c-4.9,2.7-8.7,6.9-11,12c-5.7,12.8-15.7,49-12.1,94c0.2,2.2,0.3,4.3,0.5,6.6c0.4,6.5,1,13.4,2.1,21.1
			c0.5,3.5,1.1,6.9,1.8,10.3c0.3,1.7,1.5,3,3,3.6c18.3,7.2,35,8.4,51.2,3.8c32.3-9.2,50.7-22.3,63.3-45.2
			c0.2-0.3,19.8-36.5,19.9-70.9c0-0.6,0-1.1,0-1.7s-0.1-1.2-0.1-1.9c-0.1-7-2-43-31.2-58.7c-33.6-18.1-84.9-13.7-109-5.1
			c-26.2,9.3-42.4,29-42.4,51.4c0,4.6,0.9,12.7,3.1,14.7c0.3,0.3,0.6,0.3,1,0.3l0,0c0.5-0.2,5.7-2.5,18.7-26.1
			c3.3-6,10-10.1,15.6-13c23.6-12.4,47.4-17,70.6-13.2c16.4,2.6,29.1,10.2,37.8,22.4c7.7,10.8,11.2,24.3,10,38.2
			c-1.7,17.4-7.7,49.9-29.6,71.8c-30.3,30.3-49.9,23.6-51.4,23c-1.1-0.4-7.2-3.4-8.1-22.4c-0.3-8.2-2.7-80.7,14.7-109.9
			c1-1.7,0.6-3.7-0.8-4.8C153.1,300.1,150.3,298.7,146.6,298.7z M150.1,435.6L150.1,435.6L150.1,435.6z"/>
	</g>
	<g>
		
			<ellipse transform="matrix(0.9694 -0.2455 0.2455 0.9694 -62.0369 104.5534)" class="st1" cx="388.3" cy="301.1" rx="22" ry="17.2"/>
		<path class="st1" d="M385.8,320.4c-9.9,0-18.4-5.2-20.5-13.5c-1.3-5,0-10.3,3.6-14.9c3.5-4.5,8.7-7.8,14.8-9.3
			c6.1-1.6,12.3-1.1,17.5,1.1c5.3,2.3,9,6.4,10.3,11.4c2.6,10.2-5.7,21-18.3,24.2C390.6,320.1,388.2,320.4,385.8,320.4z M391,285.3
			c-2.1,0-4.3,0.3-6.3,0.8l0,0c-5.3,1.3-9.9,4.3-12.9,8.1c-2.9,3.7-3.9,8-3,11.9c2.1,8.3,12.6,12.8,23.5,10
			c10.9-2.8,17.9-11.7,15.8-20c-1-3.9-3.9-7.1-8.3-9C397,285.9,394.1,285.3,391,285.3z"/>
	</g>
	<g>
		<path class="st1" d="M687.1,426c-2.6-2.6,1.7-23.5-2.6-31.3c0,0-3.5-10.4,0-17.4l15.7-14.8c0,0,2.6-8.7-2.6-11.3
			c0,0-15.7-8.7-27,1.7c-11.3,10.4-51.3,51.3-56.5,52.2s-13.9,11.3-14.8,13c-0.9,1.7-14.8,9.6-15.7-3.5c-0.9-13,12.2-23.5,12.2-23.5
			s25.2-23.5,23.5-35.7c0,0-4.3-27-35.7-12.2c0,0-16.6,9.9-36.8,33.9c-0.8,1-2.2,1-3,0.2c-0.6-0.6-0.6-1.5-0.2-2.1
			c6.9-9.2,53.5-72.8,59.1-105c6.1-34.8-7.8-40-32.2-34.8c-24.3,5.2-46.1,47-53.9,86.1c-6.4,32.2-9.9,70.3-11,82.8
			c-0.3,2.7-1.7,5.1-3.9,6.5c-2.5,1.7-5.7,3.7-7.7,4.6c-3.5,1.7-11.3,0-10.4-11.3s7.8-44.3,7.8-44.3s6.1-21.7-12.2-25.2
			c0,0-15.7-4.3-35.7,37.4c0,0-7,13-6.1,4.3c0.9-8.7,4.3-29.6,4.3-29.6s2.6-16.5-14.8-13c0,0-13.9-1.7-18.3,34.8s-4.3,36.5-4.3,36.5
			s-22.6,20-27.8,11.3s5.2-59.1,13-78.3c0,0-5.2-12.2-29.6,4.3c0,0-5.2,21.7-9.6,37.4c0,0-19.1,13-22.6-4.3
			c-3.5-17.4,3.5-32.2,3.5-32.2s-7.8-23.5-34.8,5.2c0,0-8.7,22.6-10.4,17.4l-1.7-25.2c0,0,1.7-6.1-9.6-4.3c0,0-10.4-2.6-13,16.5
			s-11.3,58.3-4.3,80c0,0,7,11.3,13,8.7c0,0,10.4,0.9,15.7-22.6c5.2-23.5,13.9-47.8,13.9-47.8s3.5-4.3,4.3,0.9s4.3,32.2,23.5,33.9
			c0,0,10.4,2.6,17.4-0.9c0,0-5.2,37.4,20,33.9s41.7-14.8,41.7-14.8s0,15.7,12.2,13.9s16.5-13,22.6-27.8
			c6.1-14.8,22.6-36.5,22.6-36.5s-7.2,52.2,1.5,59.4c0.7,0.6,1.4,1.2,1.9,2c1.4,1.9,4.9,4.9,12.3,3c8.2-2.1,19.6-6.8,24.1-8.7
			c1-0.4,2.1,0.1,2.4,1.1c0.8,2.8,3,7.5,8.7,8.3c0.4,0.1,1.4,0.3,2.1,0.4c2.7,0.5,9.9,0.5,22.7-22.1c15.7-27.8,38.3-58.3,43.5-49.6
			s-9.6,16.5-9.6,16.5s-25.2,25.2-17.4,45.2c7.8,20,49.6,11.3,58.3,5.2l2.6-1.7c0,0,0.9,18.3,28.7,18.3c27.8,0,66.1-7,80-17.4
			l2.6-23.5C728.9,410.3,689.7,428.6,687.1,426z M535,361.6c0,0,0.1-0.4,0.2-1.1c1.7-12.3,19-120.6,44.2-103.2
			c0,0,3.5,4.3-10.4,29.6C552.2,315.9,535,361.6,535,361.6z M649.7,432.9c-16.5,1.7-20.9-15.7-20.9-15.7
			c24.3-22.6,30.4-22.6,30.4-22.6C666.3,432.9,649.7,432.9,649.7,432.9z"/>
		<path class="st1" d="M646.3,453c-22.3,0-28.3-11.7-29.9-17.1l-0.4,0.3c-7,4.9-31,10.5-46.8,5.7c-7.1-2.2-11.8-6.1-14-11.7
			c-8.2-20.8,16.7-46,17.7-47l0.2-0.2l0.3-0.1c0.1,0,8.1-4.3,9.6-9.7c0.4-1.6,0.3-3-0.6-4.4c-0.3-0.5-0.7-0.7-1-0.7
			c-6.2,0.1-23.8,22.6-39.4,50.2c-9.5,16.8-17.5,24.3-24.5,23c-0.5-0.1-1.2-0.3-1.7-0.3c-0.2-0.1-0.3-0.1-0.4-0.1
			c-4.9-0.7-8.5-4.3-10-9.6h-0.1c-5.7,2.4-16.5,6.8-24.3,8.8c-8.7,2.3-12.8-1.7-14.1-3.7c-0.4-0.6-1-1.1-1.7-1.7
			c-7.5-6.2-4.6-39.4-2.9-54.3c-5.2,7.4-14.3,20.8-18.4,30.7l-0.4,1.1c-5.9,14.5-10.7,25.9-23.5,27.7c-3.7,0.5-6.7-0.3-9-2.3
			c-3.2-2.8-4.4-7.3-4.9-10.3c-5.6,3.3-20,10.8-40,13.6c-6.3,0.9-11.5-0.6-15.3-4.4c-7.6-7.6-7.4-22.3-7-28.6
			c-6.7,1.9-14.5,0.3-15.7-0.1c-13-1.2-21.3-12.9-24.8-34.6l-0.1-0.8c-0.1-0.5-0.2-0.8-0.3-1c-0.3,0.2-0.6,0.4-0.9,0.7
			c-1,2.9-9,25.7-13.7,47.3c-5,22.2-14.7,23.9-17,24c-0.8,0.3-1.5,0.4-2.3,0.4c-6.3,0-11.9-8.8-12.6-9.9l-0.1-0.2l-0.1-0.2
			c-5.8-18.2-1-47.4,2.4-68.7c0.7-4.4,1.4-8.6,1.9-12.1c1.1-8.1,3.7-13.6,7.7-16.3c3-2.1,6-1.9,7-1.7c5-0.7,8.3-0.1,10.2,1.9
			c1.4,1.7,1.3,3.5,1.1,4.3l1.6,22.7c1.9-3,5-9.7,7.2-15.7l0.1-0.3l0.3-0.3c10.6-11.3,19.7-16.2,27.2-14.5
			c7.7,1.7,10.4,9.6,10.5,9.9l0.3,0.7l-0.3,0.6c-0.1,0.2-6.7,14.5-3.3,31.1c0.8,3.7,2.3,6.2,4.7,7.1c4.6,1.9,11.7-1.7,14.7-3.5
			c4.3-15.4,9.3-36.5,9.4-36.7l0.2-0.7l0.5-0.3c11-7.5,19.7-10.3,26-8.4c4.5,1.3,6,4.7,6.1,4.9l0.3,0.7l-0.3,0.7
			c-8.4,20.7-17.7,69.3-13.1,76.7c0.4,0.8,1,1.1,2,1.3c5.7,0.9,17.9-8.3,22.7-12.6l4.3-35.8c2.5-21.4,8.5-30.2,13-33.7
			c3.2-2.5,5.9-2.7,6.9-2.6c5.8-1.1,10.2-0.3,13.1,2.5c4.7,4.5,3.6,12.2,3.5,12.5c0,0.2-3.3,19.7-4.3,28.7c0.9-1.2,1.8-2.9,2.7-4.5
			c19.8-41.3,36-38.6,37.6-38.3c5.2,1,9.1,3.6,11.7,7.5c5,7.9,2.2,18.9,1.8,19.8c-0.3,1.5-7,33.2-7.8,44.1c-0.3,4.4,0.7,7.6,3,9
			c1.7,1.1,3.7,1.1,5,0.5c1.8-1,5-3,7.5-4.5c1.8-1.1,3-3,3.1-5.2c1.2-14.4,4.7-51.5,11-83c7.7-38.3,29.7-81.9,55.2-87.5
			c14.6-3.1,24-2.1,29.6,3.3c6.1,5.8,7.6,16.8,4.6,33.5c-5.7,32.8-53.5,97.6-59.4,105.6c0,0,0.1,0,0.2,0c0.1,0,0.2,0,0.3-0.2
			c20.2-24,36.5-33.9,37.2-34.3l0.2-0.1c11-5.2,20.2-6,27.1-2.3c9.1,4.8,10.9,15.4,11,15.8c1.8,12.7-21.4,34.7-24,37.2l-0.1,0.1
			c-0.1,0.1-12.3,10-11.6,22c0.3,4.7,2.3,5.3,3,5.6c3.4,1,8.5-1.9,9.4-2.9c1.1-1.9,10-12.9,16-13.9c3.6-0.9,26.8-23.7,40.7-37.3
			c6.3-6.2,11.7-11.5,15-14.4c12.1-11.1,28.8-2.1,29-2c6.3,3.2,3.6,12.9,3.4,13.3l-0.2,0.4l-15.7,14.9c-2.7,5.8-0.2,14.4,0.2,15.7
			c2.6,4.9,2.3,13.4,2,21c-0.2,3.5-0.3,8.1,0.2,9.6c1.8,0,9-1.8,37.4-14.5c3.5-1.6,3.7-1.7,4.5-0.8l0.6,0.6l-2.8,25l-0.6,0.4
			C712.8,446.2,673.9,453,646.3,453z M619.2,429.9l0.2,3c0,0.7,1.2,16.6,27,16.6c26.8,0,64.3-6.7,78.3-16.6l2.2-19.7
			c-37.9,17-39.7,15.3-41,14c-1.6-1.6-1.6-5.1-1.2-12.4c0.3-6.8,0.6-15.3-1.7-19.3l-0.1-0.3c-0.2-0.4-3.7-11.2,0.1-18.7l0.2-0.3
			l15.5-14.6c0.3-1.6,1.4-7.2-1.8-8.9c-0.7-0.3-14.8-8-25,1.5c-3.1,2.9-8.6,8.3-14.9,14.4c-25.9,25.4-38.9,37.7-42.5,38.3
			c-4.3,0.7-12.7,10.5-13.5,12.1c-0.9,1.8-7.6,5.7-12.6,4.7c-2.6-0.5-5.9-2.5-6.3-8.9c-0.9-13.5,11.7-24,12.8-24.9
			c6.9-6.4,24.2-24.9,22.9-34.1c0-0.1-1.7-9.3-9.2-13.3c-5.9-3.1-14-2.3-23.9,2.3c-1.1,0.7-17.2,10.8-36.3,33.5
			c-0.7,0.8-1.7,1.3-2.8,1.4c-1,0.1-2.1-0.3-2.9-1.1c-1.1-1.1-1.3-3-0.3-4.3c5.5-7.3,53.2-72.1,58.9-104.3
			c2.7-15.5,1.5-25.4-3.7-30.3c-4.7-4.5-13.1-5.3-26.4-2.4c-24.2,5.2-45.1,47.5-52.6,84.7c-6.3,31.3-9.7,68.2-11,82.6
			c-0.3,3.4-2.1,6.2-4.7,7.8c-1.1,0.8-5.3,3.4-7.8,4.7c-2.1,1-5.5,1.2-8.4-0.8c-1.9-1.3-5.1-4.6-4.5-12.3
			c0.9-11.3,7.6-43.2,7.8-44.6v-0.1c0-0.1,2.8-10.3-1.5-17.1c-1.9-3.1-5-5.1-9.4-5.9H479c-0.1,0-14.7-3-33.7,36.4
			c-4.9,9.1-6.7,8.5-7.7,8.3c-2.1-0.6-1.8-3.5-1.7-4.8c0.9-8.7,4.3-28.8,4.3-29.7c0-0.1,0.9-6.3-2.4-9.5c-2.1-2-5.6-2.5-10.3-1.6
			l-0.3,0.1H427c-0.1,0-12.3-0.6-16.3,33.3l-4.4,37.2l-0.5,0.4c-1.7,1.6-17.5,15.1-26,13.8c-1.9-0.3-3.5-1.3-4.4-3
			c-5.7-9.6,4.9-59.5,12.6-79c-0.5-0.7-1.6-1.8-3.7-2.3c-3.6-1-10.3-0.4-22.4,7.7c-0.9,3.7-5.6,22.8-9.4,36.8l-0.2,0.6l-0.5,0.3
			c-0.4,0.3-10.9,7.3-18.5,4.2c-3.5-1.5-5.8-4.7-6.8-9.7c-3.1-15.8,1.9-29.3,3.3-32.5c-0.7-1.6-3-6-7.7-7c-6-1.3-14.2,3.3-23.7,13.2
			c-7.4,19-10.2,19-11.2,19c-0.5,0-1.7-0.3-2.3-2l-0.1-0.2l-1.7-25.7l0.1-0.3c0,0,0.2-0.8-0.3-1.4c-0.4-0.5-2.1-1.6-7.3-0.7
			l-0.3,0.1l-0.3-0.1c-0.1,0-2.3-0.5-4.7,1.2c-3.1,2.2-5.2,7-6.2,13.9c-0.4,3.5-1.1,7.7-1.9,12.2c-3.2,19.7-8.1,49.5-2.6,66.9
			c1.7,2.7,7,9.5,10.8,7.8l0.4-0.2h0.4c0.1,0,9,0.2,13.8-21.2c5.2-23.3,13.9-47.8,14-48l0.1-0.3l0.2-0.3c0.3-0.5,2.4-2.9,4.7-2.3
			c1.5,0.3,2.3,1.7,2.7,3.9l0.1,0.8c3.2,20,10.5,30.7,21.8,31.7l0.3,0.1c0.1,0,9.9,2.4,16.2-0.7l3-1.5l-0.4,3.3
			c0,0.2-2.7,20.2,5.7,28.5c3,3,7,4.2,12.3,3.4c24.5-3.4,40.9-14.3,41-14.5l2.7-1.8v3.3c0,0.1,0.1,7.3,3.9,10.7
			c1.7,1.4,3.7,1.9,6.3,1.6c10.9-1.6,15-11.7,20.8-25.7l0.4-1.1c6.1-14.8,22.2-36,22.9-36.9l4-5.3l-0.9,6.6c-2.7,19.8-5,53,0.9,57.8
			c0.8,0.7,1.6,1.4,2.3,2.3c1.1,1.5,4,3.9,10.3,2.3c7.7-1.9,18.3-6.3,23.8-8.6c0.9-0.3,1.9-0.4,2.8,0c1,0.4,1.7,1.2,2,2.2
			c0.9,3,2.8,6.5,7.3,7.2c0.3,0.1,0.4,0.1,0.7,0.2c0.4,0.1,1,0.3,1.4,0.3h0.1c5.1,1,12.5-6.5,20.9-21.2c10.1-17.9,31.9-51.8,42.3-52
			c1.7,0,3.2,0.8,4.1,2.3c1.4,2.3,1.7,4.7,1,7.2c-1.7,6.2-9.5,10.8-11,11.7c-2.2,2.3-23.8,25.3-16.9,43.2c1.8,4.6,5.7,7.8,11.8,9.7
			c15.6,4.7,38.3-1.4,43.8-5.2L619.2,429.9z M302.5,371.2L302.5,371.2L302.5,371.2z M647.5,434.8c-15.8,0-20.3-17-20.3-17.1l-0.3-1
			l0.8-0.7c23.7-22,30.5-23,31.7-23h1.5l0.3,1.4c3.1,17.4,2,29.5-3.4,36c-3.3,3.9-7,4.3-7.8,4.3C649,434.8,648.3,434.8,647.5,434.8z
			 M630.9,417.8c1.1,3.5,5.9,14.7,18.7,13.4h0.2c0.2,0,2.9-0.2,5.4-3.2c3-3.7,6-12.3,2.9-31.1C655,398.1,647.4,402.6,630.9,417.8z
			 M659.4,396.4L659.4,396.4L659.4,396.4z M536.6,362.2l-3.3-1c0,0,0.1-0.4,0.2-1c0.1-1,13.4-95.6,36.3-105.7
			c3.6-1.6,7.1-1.1,10.7,1.3l0.2,0.2l0.2,0.2c1,1.2,3.1,7.1-10.3,31.5C553.9,316.3,536.8,361.8,536.6,362.2z M573.8,257.1
			c-1,0-1.8,0.2-2.8,0.6c-15,6.6-26.8,59.4-31.9,88.5c6.5-16,17.5-41.7,28.3-60.3c11-19.9,10.8-26.3,10.5-27.6
			C576.5,257.5,575.1,257.1,573.8,257.1z M577.8,258.2L577.8,258.2L577.8,258.2z"/>
	</g>
</g>
<g>
	<path class="st1" d="M996.8,360.6c-7.3-30.7-41.7-20.4-57-8c0,0-6.6-20.4-38.7-9.5l-5.1,11.7c0,0,15.3-5.8,11.7,9.5l-24.1,60
		c-1.1,2.6-3.1,4.8-5.7,5.8c-3.8,1.6-9,2.5-11.7-2.3c0,0-3.7-1.5,5.1-19c8.8-17.6,27-66.5,27-66.5H867L837.9,414
		c-2.3,5.7-6.2,10.7-11.1,14.3c-4.3,3-8.4,4.4-11.6,2.5c-5.8-3.7-5.8-6.6,2.2-23.4c8-16.8,16.8-43.1,16.8-43.1s8.8-20.4-13.1-22.7
		c-21.9-2.3-23.4,0.7-23.4,0.7l-4.3,12.4c0,0,16.8-6.6,6.6,18.3c-10.3,24.9-32.2,62.1-16.1,74.5c14.6,11.2,36.4,1.5,45.8-5.9
		c1.1-1,3-0.6,3.7,0.8c3.2,6,13.5,18.3,39.7,5.1c0,0-14.6,35.8-8.8,46.8c5.8,11,35,4.3,35,4.3l5.8-11.7c0,0-15.3,2.2-12.4-10.3
		c3-12.4,13.1-31.4,13.1-31.4s21.9,26.3,65.7-17.6C971.3,427.8,1004.2,391.3,996.8,360.6z M967.6,369.8c-1.5,21-24.1,54.3-24.1,54.3
		c-14.4,17.1-25.4,14.6-30.2,12.1c-1.6-0.9-2.3-2.8-1.7-4.5l23.3-60.5c0.9-2.3,2.3-4.3,4.1-6c5.6-5,10.3-7.3,14-8.2
		C960.9,355.4,968.1,361.9,967.6,369.8z"/>
	<path class="st1" d="M881.6,502.1c-7.8,0-16-1.5-19-7.1c-5-9.5,3.8-35.2,7.4-44.5c-25,11-35-1.3-38.3-7.3c-0.2-0.4-0.5-0.5-0.6-0.5
		c-0.3-0.1-0.6,0-0.8,0.2c-10.6,8.3-32.9,17.3-47.7,5.9c-14-10.9-1.7-37.7,9.1-61.6c2.3-5.2,4.6-10.2,6.5-14.7
		c4.6-11.1,3.2-14.8,2-16c-2.1-2.1-6.7-0.3-6.7-0.3c-0.5,0.2-1.1,0.1-1.6-0.3c-0.4-0.4-0.5-1-0.3-1.6l4.3-12.4
		c0-0.1,0.1-0.1,0.1-0.2c1.2-2.4,10.1-3,24.9-1.6c7,0.7,11.7,3.2,14.3,7.5c4.2,7,0.5,16.3,0.2,17.1c-0.4,1.4-9,26.9-16.9,43.2
		c-8.2,17.1-7.3,18.6-2.7,21.5c2.3,1.4,5.7,0.6,9.9-2.4c4.7-3.4,8.3-8.1,10.6-13.7l29.1-71.6c0.3-0.5,0.8-0.9,1.4-0.9h31.4
		c0.5,0,1,0.3,1.2,0.6s0.3,0.8,0.2,1.2l0.1-0.3c0.2-0.3,0.5-0.7,0.9-0.8c12.4-4.3,22.7-4.4,30.3-0.5c5.4,2.7,8.2,6.8,9.4,9.1
		c11.1-8.3,28.5-14.3,41.5-9.8c8.4,2.9,13.9,9.6,16.3,19.8c6.8,28.5-20.1,61.8-25.6,68.2l-0.2,0.2c0,0.1-0.1,0.1-0.2,0.2
		c-17.7,17.7-34.2,26.4-48.8,25.7c-9.2-0.4-15.1-4.5-17.7-6.8c-2.5,5-9.7,19.4-12.1,29.3c-0.6,2.8-0.3,4.9,1,6.3
		c2.3,2.6,7.9,2.5,9.9,2.3c0.5-0.1,1,0.2,1.4,0.6c0.3,0.4,0.3,1,0.1,1.5l-5.8,11.7c-0.2,0.4-0.5,0.7-1,0.8
		C898.8,500.2,890.3,502.1,881.6,502.1z M872.8,446.1c0.3,0,0.7,0.2,1,0.3c0.4,0.4,0.6,1,0.3,1.7c-4,9.8-13.4,37-8.9,45.6
		c4.3,7.9,24.5,5.6,32.8,3.8l4.4-8.8h-0.1c-2.8,0-7.1-0.5-9.7-3.3c-1.9-2.2-2.5-5.1-1.7-8.9c3-12.4,12.9-31,13.3-31.7
		c0.3-0.4,0.7-0.7,1.1-0.8c0.5-0.1,1,0.2,1.3,0.5c0.1,0.1,5.8,6.8,17.1,7.3c13.5,0.6,29.6-8,46.4-24.9c0-0.1,0.1-0.1,0.2-0.2
		c5.3-6.2,31.4-38.5,25-65.7c-2.2-9.2-7-15.2-14.4-17.7c-12.4-4.3-30,2.3-40.2,10.5c-0.3,0.3-0.9,0.4-1.3,0.3c-0.4-0.2-0.9-0.5-1-1
		c0-0.1-2-5.9-8.8-9.3c-6.9-3.4-16.1-3.2-27.5,0.5l-3.7,8.3c2.6-0.5,6.3-0.7,8.8,1.5c2.3,2.1,3,5.7,1.7,10.6c0,0.1,0,0.2-0.1,0.2
		l-24.1,60c-1.3,3.1-3.7,5.6-6.6,6.7c-8.2,3.3-11.8-0.1-13.3-2.6c-0.3-0.3-0.5-0.6-0.8-1.1c-1.1-3,0.8-9.6,5.7-19.5
		c7.7-15.3,22.7-55,26.3-64.3h-28.3L839,414.8c-2.5,6.1-6.5,11.2-11.6,14.9c-5.4,3.8-9.8,4.6-13.2,2.5c-7.2-4.5-6.1-9.1,1.7-25.2
		c7.9-16.5,16.6-42.7,16.8-43v-0.1c0-0.1,3.6-8.6,0-14.6c-2-3.4-6.1-5.5-12-6.1c-17-1.7-21.2-0.3-22,0.2l-3.3,9.5
		c2.2-0.3,5-0.3,7,1.7c3,3.1,2.6,9.4-1.4,19.2c-1.9,4.6-4.2,9.6-6.5,14.8c-10.4,22.8-22.2,48.6-10,58c13.5,10.3,34.2,1.9,44-5.9
		c0.9-0.7,2.1-1,3.3-0.8c1.1,0.3,2.1,1,2.6,2.1c3,5.5,12.6,17,37.7,4.4C872.3,446.1,872.5,446.1,872.8,446.1z M866.9,426.7
		c0.2,0.1,0.3,0.3,0.4,0.5c0.6,1.1,2.5,4.6,9.8,1.7c2.2-0.9,4-2.7,5-5l24.1-60c0.6-2.6,1-6.1-0.9-7.7c-2.3-2-7.2-0.7-9-0.1
		c-0.5,0.2-1.1,0.1-1.6-0.3c-0.1-0.1-0.1-0.1-0.2-0.2c-6.1,15.8-16.3,42.1-22.3,53.9C865.8,422.9,866.8,426.2,866.9,426.7z
		 M866.7,426.5L866.7,426.5L866.7,426.5z M866.7,426.5L866.7,426.5L866.7,426.5z M866.7,426.5L866.7,426.5L866.7,426.5z
		 M798.6,343.3L798.6,343.3L798.6,343.3z M920.7,439.5c-3.7,0-6.3-1-8.1-2c-2.3-1.2-3.3-3.9-2.3-6.3l23.3-60.5
		c1-2.6,2.5-4.9,4.5-6.5c5.1-4.6,10.1-7.5,14.7-8.5c4.1-0.9,8.3,0.2,11.6,3c3.3,2.9,5,7,4.8,11.3l0,0c-1.5,21.1-23.4,53.7-24.3,55
		l-0.1,0.1C934.9,436.6,926.7,439.5,920.7,439.5z M955.5,358.2c-0.7,0-1.5,0.1-2.2,0.3c-4.1,1-8.6,3.6-13.4,7.8
		c-1.6,1.4-2.9,3.3-3.7,5.4l-23.3,60.5c-0.3,1,0,2.2,1,2.7c4.8,2.5,14.7,4.4,28.3-11.7c1.1-1.7,22.4-33.7,23.8-53.6
		c0.3-3.4-1.1-6.7-3.7-9C960.4,359.1,958,358.2,955.5,358.2z M967.6,369.8L967.6,369.8L967.6,369.8z"/>
</g>
<g>
	<path class="st1" d="M182,784.5l-28.3-70.6h19.9l18.4,49.1l18.6-49.1h19.9L202,784.5H182z"/>
	<path class="st1" d="M242.9,749.1c0-20,14-37,37.3-37c23.4,0,37.4,16.9,37.4,37c0,20-14,37.1-37.4,37.1
		C256.9,786.2,242.9,769.1,242.9,749.1z M298.2,749.1c0-11-6.4-20.5-18.1-20.5c-11.5,0-18,9.5-18,20.5c0,11.1,6.4,20.6,18,20.6
		C291.8,769.7,298.2,760.2,298.2,749.1z"/>
	<path class="st1" d="M387.8,784.5v-8.9c-4.8,5.3-13.3,10.7-24.8,10.7c-15.5,0-22.8-8.5-22.8-22.2v-50.1h18.6v42.8
		c0,9.8,5.1,13,13,13c7.2,0,12.9-3.9,16.1-8v-47.8h18.6v70.6H387.8z"/>
	<path class="st1" d="M427.4,775.3l8-13.4c5.3,5,15.6,9.8,24.4,9.8c8,0,11.8-3.1,11.8-7.4c0-11.5-41.8-2-41.8-29.8
		c0-11.8,10.2-22.2,28.9-22.2c11.8,0,21.3,4.1,28.3,9.6l-7.5,13.1c-4.2-4.4-12.3-8.2-20.9-8.2c-6.7,0-11.1,2.9-11.1,6.9
		c0,10.4,41.9,1.6,41.9,30.1c0,13-11.1,22.5-30.7,22.5C446.7,786.2,434.8,782.1,427.4,775.3z"/>
	<path class="st1" d="M553.7,749.1c0-20,14-37,37.3-37c23.4,0,37.4,16.9,37.4,37c0,20-14,37.1-37.4,37.1
		C567.8,786.2,553.7,769.1,553.7,749.1z M609.1,749.1c0-11-6.4-20.5-18.1-20.5c-11.5,0-18,9.5-18,20.5c0,11.1,6.4,20.6,18,20.6
		C602.7,769.7,609.1,760.2,609.1,749.1z"/>
	<path class="st1" d="M655.3,784.5v-54.3h-11.7v-16.2h11.7V711c0-15.9,9.5-25.4,23.7-25.4c6.9,0,14.2,1.9,18.4,6.7l-7,11.2
		c-1.9-1.8-4.4-2.8-7.7-2.8c-5.3,0-8.8,3.4-8.8,10.2v2.9h14.3v16.2h-14.3v54.3H655.3z M726.5,784.5v-54.3h-11.7v-16.2h11.7V711
		c0-15.9,9.5-25.4,23.7-25.4c6.9,0,14.2,1.9,18.4,6.7l-7,11.2c-1.9-1.8-4.4-2.8-7.7-2.8c-5.3,0-8.8,3.4-8.8,10.2v2.9h14.3v16.2
		h-14.3v54.3H726.5z"/>
	<path class="st1" d="M786.8,784.5v-70.6h18.6v9.5c5.1-6.1,13.7-11.2,22.5-11.2v18.1c-1.3-0.3-2.9-0.4-5.1-0.4
		c-6.1,0-14.3,3.5-17.4,8v46.6H786.8z"/>
	<path class="st1" d="M843.6,749.1c0-20.5,15.2-37,36.5-37c21.2,0,35.4,15.8,35.4,38.7v4.4H863c1.3,8.6,8.3,15.8,20.3,15.8
		c6,0,14.2-2.5,18.7-6.9l8.3,12.3c-7,6.4-18.1,9.8-29.1,9.8C859.8,786.2,843.6,771.8,843.6,749.1z M880.1,727.4
		c-11.5,0-16.5,8-17.2,15h34.8C897.1,735.7,892.4,727.4,880.1,727.4z"/>
</g>
<circle class="st2" cx="1154.3" cy="-106.7" r="425.4"/>
<circle class="st2" cx="768.2" cy="0" r="202.8"/>
<circle class="st2" cx="432.1" cy="1070.8" r="202.8"/>
<circle class="st2" cx="685.2" cy="1070.8" r="133.4"/>
<circle class="st2" cx="229.4" cy="492" r="133.4"/>
<circle class="st2" cx="334.1" cy="590.7" r="75.5"/>
<circle class="st2" cx="1052" cy="636.7" r="75.5"/>
<circle class="st2" cx="987.1" cy="619.4" r="58.2"/>
</svg>
