<?xml version="1.0" encoding="utf-8"?>
<!-- Generator: Adobe Illustrator 21.0.0, SVG Export Plug-In . SVG Version: 6.00 Build 0)  -->
<svg version="1.1" id="Capa_1" xmlns="http://www.w3.org/2000/svg" xmlns:xlink="http://www.w3.org/1999/xlink" x="0px" y="0px"
	 viewBox="0 0 512 512" style="enable-background:new 0 0 512 512;" xml:space="preserve">
<style type="text/css">
	.st0{display:none;fill:#070708;}
	.st1{opacity:0.3;fill:#BABABF;enable-background:new    ;}
	.st2{opacity:0.5;fill:#E2E2E8;enable-background:new    ;}
	.st3{fill:#7C7C7F;}
	.st4{fill:#1C1C1D;}
	.st5{fill:#5A5A5B;}
	.st6{opacity:0.1;fill:#F8F8FF;enable-background:new    ;}
</style>
<rect x="-89" y="-55" class="st0" width="672" height="641"/>
<g id="Filled_outline">
	<path class="st1" d="M215.3,126.4l-3.1-3.1c-8.7,8.7-19.9,30.4,0,50.3l6.2-6.2c-18.3-18.3-1.9-35.9,0-37.9L215.3,126.4z"/>
	<path class="st2" d="M203.6,109.8c-10.5,9.8-17,23.2-18.1,37.5c-0.4,13.8,5.6,27.1,17.9,39.4l6.2-6.2
		c-10.5-10.5-15.7-21.6-15.4-32.8c0.5-18.1,15-31.1,15.2-31.3l-2.9-3.3L203.6,109.8z"/>
	<path class="st1" d="M298.8,173.6c19.9-19.9,8.7-41.6,0-50.3l-6.2,6.2c0.8,0.8,18.7,19.1,0,37.9L298.8,173.6z"/>
	<path class="st2" d="M301.4,180.6l6.2,6.2c12.3-12.3,18.4-25.6,17.9-39.4c-1.1-14.3-7.6-27.7-18.1-37.5l-5.8,6.6
		c0.1,0.1,14.6,13.2,15.2,31.3C317.1,159,311.9,170.1,301.4,180.6L301.4,180.6z"/>
</g>
<path class="st3" d="M342.9,390.2L275.4,197h11.4v-35.3h-26.5v-8.8H278v-26.5h-17.6v-17.6h-8.8v17.6H234v26.5h17.6v8.8h-26.5V197
	h11.4l-67.7,194.2l9,0.5l11-31.6h134.4l10.5,30.1H342.9z M312.9,330.6l-47-23.5l33-16.5L312.9,330.6z M299,333.6h-86l43-21.5
	L299,333.6z M220.6,284.5l35.4-24.4l35.4,24.4L256,302.2L220.6,284.5z M293.5,275.2l-29.7-20.4l18.2-12.5L293.5,275.2z M242.8,144
	v-8.8h26.5v8.8H242.8z M234,188.1v-17.6h8.8v8.8h8.8v-8.8h8.8v8.8h8.8v-8.8h8.8v17.6H234z M274.6,221.3l-12.7-14.1l5.6-6.2
	L274.6,221.3z M259.3,196.9l-3.3,3.7l-3.3-3.7H259.3z M250.1,207.2l-12.7,14.1l7.1-20.3L250.1,207.2z M256,213.8l19.8,22L256,249.4
	l-19.8-13.6L256,213.8z M230,242.3l18.2,12.5l-29.7,20.4L230,242.3z M213.1,290.6l33,16.5l-47,23.5L213.1,290.6z M191.9,351.2
	l3.1-8.8h122l3.1,8.8H191.9z"/>
<path class="st4" d="M110.8,150.4c-1,0-1.9,0.1-2.9,0.3c-0.7-3.6-3.1-6.7-6.3-8.3c-3.3-1.7-7.1-1.7-10.5-0.2
	c-3-8.3-12.2-12.6-20.5-9.6S58,144.8,61,153.1c-7.3,0.2-13,6.2-12.9,13.5s6,13.1,13.3,13.1h49.3c8.1,0,14.7-6.6,14.7-14.7
	C125.5,157,118.9,150.4,110.8,150.4z"/>
<path class="st4" d="M405.9,187.6c-1,0-2,0.1-2.9,0.3c-0.7-3.6-3.1-6.7-6.4-8.4s-7.2-1.7-10.5-0.2c-3-8.4-12.3-12.7-20.6-9.6
	c-8.4,3-12.7,12.3-9.6,20.6c-7.3,0.2-13.1,6.3-13,13.6s6.1,13.2,13.4,13.2h49.6c8.2,0,14.8-6.6,14.8-14.8
	C420.7,194.2,414.1,187.6,405.9,187.6z"/>
<g>
	<path class="st5" d="M149.3,181.7c-1.3,0-2.6,0.1-3.8,0.4c-1-4.8-4-8.8-8.4-11c-4.3-2.2-9.4-2.3-13.8-0.3
		c-4-11-16.1-16.6-27.1-12.7s-16.6,16.1-12.7,27.1c-9.6,0.3-17.2,8.3-17.1,17.9c0.1,9.6,8,17.3,17.6,17.4h65.2
		c10.7,0,19.4-8.7,19.4-19.4C168.7,190.4,160.1,181.7,149.3,181.7z"/>
	<path class="st6" d="M149.3,181.7c-1.3,0-2.6,0.1-3.8,0.4c-1-4.8-4-8.8-8.4-11c-4.3-2.2-9.4-2.3-13.8-0.3
		c-4-11-16.1-16.6-27.1-12.7s-16.6,16.1-12.7,27.1c-9.6,0.3-17.2,8.3-17.1,17.9c0.1,9.6,8,17.3,17.6,17.4h65.2
		c10.7,0,19.4-8.7,19.4-19.4C168.7,190.4,160.1,181.7,149.3,181.7z"/>
</g>
<g>
	<path class="st5" d="M425.1,169.5c-0.7,0-1.4,0.1-2.1,0.2c-0.5-2.6-2.2-4.9-4.6-6.1c-2.4-1.2-5.2-1.3-7.7-0.1
		c-2.2-6.1-9-9.2-15.1-7s-9.2,9-7,15.1c-5.3,0.2-9.6,4.6-9.5,9.9c0.1,5.3,4.4,9.6,9.8,9.6h36.2c6,0,10.8-4.8,10.8-10.8
		C435.8,174.3,431,169.5,425.1,169.5z"/>
	<path class="st6" d="M425.1,169.5c-0.7,0-1.4,0.1-2.1,0.2c-0.5-2.6-2.2-4.9-4.6-6.1c-2.4-1.2-5.2-1.3-7.7-0.1
		c-2.2-6.1-9-9.2-15.1-7s-9.2,9-7,15.1c-5.3,0.2-9.6,4.6-9.5,9.9c0.1,5.3,4.4,9.6,9.8,9.6h36.2c6,0,10.8-4.8,10.8-10.8
		C435.8,174.3,431,169.5,425.1,169.5z"/>
</g>
<g>
	<rect x="209.8" y="384.9" class="st3" width="7" height="7.1"/>
	<rect x="411.5" y="384.9" class="st3" width="7" height="7.1"/>
	<g>
		<rect x="397.5" y="384.9" class="st3" width="7" height="7.1"/>
		<rect x="223.8" y="384.9" class="st3" width="166.8" height="7.1"/>
	</g>
	<g>
		<rect x="129" y="384.9" class="st3" width="73.8" height="7.1"/>
		<rect x="93.5" y="384.9" class="st3" width="19" height="7.1"/>
	</g>
</g>
</svg>
