<?xml version="1.0" encoding="utf-8"?>
<!-- Generator: Adobe Illustrator 21.0.0, SVG Export Plug-In . SVG Version: 6.00 Build 0)  -->
<svg version="1.1" id="Capa_1" xmlns="http://www.w3.org/2000/svg" xmlns:xlink="http://www.w3.org/1999/xlink" x="0px" y="0px"
	 viewBox="0 0 512 512" style="enable-background:new 0 0 512 512;" xml:space="preserve">
<style type="text/css">
	.st0{display:none;fill:#070708;}
	.st1{fill:#D9A460;}
	.st2{fill:#F2D383;}
	.st3{fill:#B3874F;}
	.st4{fill:#E94F3D;}
	.st5{fill:#C24232;}
	.st6{opacity:0.5;fill:#FFFFFF;}
	.st7{fill:none;stroke:#FFFFFF;stroke-width:3;stroke-miterlimit:10;}
	.st8{fill:#F4C44E;}
	.st9{fill:#F9DA49;}
	.st10{fill:#EEAF4B;}
	.st11{opacity:0.5;fill:#B3874F;}
	.st12{fill:#FFFFFF;}
	.st13{opacity:0.7;}
	.st14{fill:#E6E6E6;}
	.st15{opacity:0.5;}
</style>
<rect x="-6" y="1" class="st0" width="672" height="641"/>
<g>
	<g>
		<path class="st1" d="M244.4,123.8c-31.7-31.7-70.1-52.6-110.7-62.7L75.8,292.4l231.3-57.9C297,193.9,276.1,155.5,244.4,123.8z"/>
		<path class="st2" d="M220,148.2c-27.1-27.1-60-45-94.7-53.6L75.8,292.2l0,0v0l0,0.1l0,0V334c0,4.7,3.8,8.4,8.4,8.4h0
			c4.7,0,8.4-3.8,8.4-8.4v-40.2c0-3.3,2.2-6.2,5.4-7l0.8-0.2c2.6-0.6,5.1,1.3,5.1,4V307c0,3.7,3,6.6,6.6,6.6h0c3.7,0,6.6-3,6.6-6.6
			v-18.6c0-3.8,2.6-7.1,6.3-8l32.2-8.1l35-8.8l16-4l35-8.8l31.8-8C265,208.2,247.1,175.3,220,148.2z"/>
		<path class="st3" d="M220,148.2c-27.1-27.1-60-45-94.7-53.6l-2.4,9.7c33,8.2,64.3,25.2,90.1,51s42.8,57.1,51,90.1l9.7-2.4
			C265,208.2,247.1,175.3,220,148.2z"/>
		<path class="st4" d="M172.8,241.1c-12.5-12.5-32.7-12.5-45.1,0c-10.7,10.7-12.2,27.1-4.5,39.5l58.9-14.7
			C182.7,256.9,179.6,247.8,172.8,241.1z"/>
		<path class="st4" d="M148.7,147.9c-9.4-9.4-22.8-12.2-34.6-8.6l-14.3,57.3c0,0,0.1,0.1,0.1,0.1c13.5,13.5,35.3,13.5,48.8,0
			C162.2,183.2,162.2,161.4,148.7,147.9z"/>
		
			<ellipse transform="matrix(0.7071 -0.7071 0.7071 0.7071 -86.5362 206.7365)" class="st4" cx="206.3" cy="207.8" rx="34.5" ry="34.5"/>
		<g>
			<path class="st4" d="M205.1,134.7c-18.2-15-38.4-26.3-59.6-34c-5.6,12.6-3.2,28,7.2,38.3c13.5,13.5,35.3,13.5,48.8,0
				C202.8,137.6,204,136.2,205.1,134.7z"/>
			<path class="st5" d="M205.1,134.7c-18.2-15-38.4-26.3-59.6-34c-1.4,3.1-2.2,6.3-2.7,9.6c19.7,7.2,38.4,17.7,55.4,31.5
				c1.1-0.9,2.2-1.8,3.3-2.9C202.8,137.6,204,136.2,205.1,134.7z"/>
		</g>
		<g>
			
				<ellipse transform="matrix(0.7071 -0.7071 0.7071 0.7071 -9.9049 124.7069)" class="st3" cx="145.6" cy="74.3" rx="3.3" ry="3.3"/>
			<ellipse transform="matrix(0.7071 -0.7071 0.7071 0.7071 -22.5074 141.87)" class="st3" cx="160" cy="98.1" rx="3.3" ry="3.3"/>
			
				<ellipse transform="matrix(0.7071 -0.7071 0.7071 0.7071 -15.0886 169.1314)" class="st3" cx="196.6" cy="102.8" rx="3.3" ry="3.3"/>
			
				<ellipse transform="matrix(0.7071 -0.7071 0.7071 0.7071 -30.8665 193.9607)" class="st3" cx="218.7" cy="134.2" rx="3.3" ry="3.3"/>
			<ellipse transform="matrix(0.7071 -0.7071 0.7071 0.7071 -33.156 226.012)" class="st3" cx="256.2" cy="153" rx="3.3" ry="3.3"/>
			
				<ellipse transform="matrix(0.7071 -0.7071 0.7071 0.7071 -52.4426 234.0328)" class="st3" cx="256.3" cy="180.3" rx="3.3" ry="3.3"/>
			
				<ellipse transform="matrix(0.7071 -0.7071 0.7071 0.7071 -74.3775 274.5056)" class="st3" cx="294.2" cy="227" rx="3.3" ry="3.3"/>
			
				<ellipse transform="matrix(0.7071 -0.7071 0.7071 0.7071 -61.5447 256.7864)" class="st3" cx="279.2" cy="202.7" rx="3.3" ry="3.3"/>
		</g>
	</g>
	<g>
		<path class="st6" d="M421.9,263.1H389V285h21.9c6,0,11,4.9,11,11v54.8c0,6-4.9,11-11,11H389v21.9h32.9c12.1,0,21.9-9.9,21.9-21.9
			V285C443.8,273,434,263.1,421.9,263.1z"/>
		<path class="st7" d="M421.9,263.1H389V285h21.9c6,0,11,4.9,11,11v54.8c0,6-4.9,11-11,11H389v21.9h32.9c12.1,0,21.9-9.9,21.9-21.9
			V285C443.8,273,434,263.1,421.9,263.1z"/>
		<path class="st8" d="M332.6,218c0,18.1-14.8,32.9-32.9,32.9c-11.1,0-20.9-5.5-26.8-14c-4,5.1-10.2,8.5-17.2,8.5h-10.8
			c-4.2,0-8-1.2-11.3-3.3v167.7c0,15.1,12.3,27.4,27.4,27.4h109.6c15.1,0,27.4-12.3,27.4-27.4V218H332.6z"/>
		<path class="st9" d="M266.5,289.2c0-9-7.4-16.4-16.4-16.4c-9,0-16.4,7.4-16.4,16.4v115.1h32.9V289.2z"/>
		<path class="st10" d="M299.4,289.2c0-9-7.4-16.4-16.4-16.4s-16.4,7.4-16.4,16.4v115.1h32.9V289.2z"/>
		<path class="st9" d="M332.2,289.2c0-9-7.4-16.4-16.4-16.4s-16.4,7.4-16.4,16.4v115.1h32.9V289.2z"/>
		<path class="st10" d="M365.1,289.2c0-9-7.4-16.4-16.4-16.4s-16.4,7.4-16.4,16.4v115.1h32.9V289.2z"/>
		<path class="st9" d="M398,289.2c0-9-7.4-16.4-16.4-16.4c-9,0-16.4,7.4-16.4,16.4v115.1H398V289.2z"/>
		<path class="st11" d="M297.1,217.7h101v186.6c0,0,5.1,32.9-27.5,32.9s-109.6,0-109.6,0s104.1,4.6,104.1-32.9V263.9
			c0-10.5-5.5-20.2-14.5-25.6C336.1,229.7,313.6,218,297.1,217.7z"/>
		<path class="st12" d="M365.1,174.1c-7.6,0-14.5,2.6-20.1,6.9c-5.5-10.6-16.5-17.9-29.2-17.9c-4.7,0-9.1,1-13.1,2.7
			c-6.5-8.3-16.6-13.7-28-13.7c-17.1,0-31.4,12.1-34.8,28.2c-2-0.5-4.1-0.8-6.3-0.8c-15.1,0-27.4,12.3-27.4,27.4v43.9
			c0,6,4.9,11,11,11h5.5c6,0,11-4.9,11-11v-8.7c3.3,2,7.2,3.3,11.3,3.3h10.8c7,0,13.2-3.4,17.2-8.5c6,8.4,15.8,14,26.8,14
			c18.1,0,32.9-14.8,32.9-32.9h63.5c1.2-3.4,1.9-7.1,1.9-11C398,188.8,383.3,174.1,365.1,174.1z"/>
	</g>
	<g>
		<path class="st12" d="M156.4,303.9v104.9v1.2l1.1,0.6l44.7,22.3h-97.1l44.7-22.3l1.1-0.6v-1.2V303.9H156.4 M158.4,301.9h-9.5
			v106.9l-52.3,26.1h114l-52.3-26.1V301.9L158.4,301.9z"/>
	</g>
	<g>
		<g class="st13">
			<polygon class="st14" points="98.8,434.4 149.4,409.1 149.4,302.4 157.9,302.4 157.9,409.1 208.5,434.4 			"/>
			<path class="st12" d="M157.4,302.9v105.9v0.6l0.6,0.3l48.5,24.2H100.9l48.5-24.2l0.6-0.3v-0.6V302.9H157.4 M158.4,301.9h-9.5
				v106.9l-52.3,26.1h114l-52.3-26.1V301.9L158.4,301.9z"/>
		</g>
		<g class="st15">
			<polygon class="st14" points="98.8,434.4 149.4,409.1 149.4,302.4 157.9,302.4 157.9,409.1 208.5,434.4 			"/>
			<path class="st12" d="M157.4,302.9v105.9v0.6l0.6,0.3l48.5,24.2H100.9l48.5-24.2l0.6-0.3v-0.6V302.9H157.4 M158.4,301.9h-9.5
				v106.9l-52.3,26.1h114l-52.3-26.1V301.9L158.4,301.9z"/>
		</g>
		<g class="st15">
			<polygon class="st14" points="149.1,310.9 59.8,212.2 247.5,212.2 158.2,310.9 			"/>
			<path class="st12" d="M246.4,212.7L158,310.4h-8.6l-88.4-97.8H246.4 M248.7,211.7h-190l90.3,99.8h9.5L248.7,211.7L248.7,211.7z"
				/>
		</g>
	</g>
	<path class="st4" d="M148.9,311.4l-73-80.8h155.5l-73,80.8H148.9z"/>
	<g>
		<path class="st12" d="M241.9,214.7l-84.8,93.8h-6.8l-84.8-93.8H241.9 M248.7,211.7h-190l90.3,99.8h9.5L248.7,211.7L248.7,211.7z"
			/>
	</g>
</g>
<g>
	<rect x="203.3" y="434.4" class="st12" width="9.6" height="9.7"/>
	<rect x="480.1" y="434.4" class="st12" width="9.6" height="9.7"/>
	<g>
		<rect x="445" y="434.4" class="st12" width="25.5" height="9.7"/>
		<rect x="222.5" y="434.4" class="st12" width="211.5" height="9.7"/>
	</g>
	<g>
		<rect x="88.7" y="434.4" class="st12" width="142.2" height="9.7"/>
		<rect x="43.7" y="434.4" class="st12" width="32.6" height="9.7"/>
	</g>
</g>
<path class="st6" d="M135.4,273.1L135.4,273.1c-1.5,1.3-3.8,1.2-5.1-0.3l-12.7-14.1c-1.3-1.5-1.2-3.8,0.3-5.1l0,0
	c1.5-1.3,3.8-1.2,5.1,0.3l12.7,14.1C137,269.5,136.9,271.8,135.4,273.1z"/>
<circle class="st6" cx="112" cy="247.7" r="3.5"/>
</svg>
