<?xml version="1.0" encoding="utf-8"?>
<!-- Generator: Adobe Illustrator 21.0.0, SVG Export Plug-In . SVG Version: 6.00 Build 0)  -->
<svg version="1.1" id="Capa_1" xmlns="http://www.w3.org/2000/svg" xmlns:xlink="http://www.w3.org/1999/xlink" x="0px" y="0px"
	 viewBox="0 0 512 512" style="enable-background:new 0 0 512 512;" xml:space="preserve">
<style type="text/css">
	.st0{display:none;fill:#070708;stroke:#FFFFFF;stroke-width:3;stroke-miterlimit:10;}
	.st1{fill:none;stroke:#FFFFFF;stroke-width:10;stroke-miterlimit:10;}
	.st2{fill:#FFFFFF;}
	.st3{fill:none;stroke:#FFFFFF;stroke-width:14;stroke-miterlimit:10;}
	.st4{fill:none;stroke:#FFFFFF;stroke-width:12;stroke-miterlimit:10;}
</style>
<rect x="-6" y="1" class="st0" width="672" height="641"/>
<g>
	<g>
		<path class="st1" d="M75.8,283.4"/>
		<path class="st1" d="M244.3,168.5c-7.1-10.3-15.2-20.2-24.3-29.3c-27.1-27.1-60-45-94.7-53.6L93.8,211.3"/>
		<path class="st1" d="M244.3,168.5"/>
		<path class="st1" d="M117.6,277.3c-0.2,0.7-0.3,1.4-0.3,2.1V298c0,3.7-3,6.6-6.6,6.6h0c-3.7,0-6.6-3-6.6-6.6v-16.5
			c0-2.7-2.5-4.6-5.1-4l-0.8,0.2c-3.2,0.8-5.4,3.7-5.4,7V325c0,4.7-3.8,8.4-8.4,8.4h0c-4.7,0-8.4-3.8-8.4-8.4l-0.1-41.4l0.1-0.3l0,0
			L86.2,242"/>
		<path class="st1" d="M148.7,138.9c-9.4-9.4-22.8-12.2-34.6-8.6l-14.3,57.3c0,0,0.1,0.1,0.1,0.1c13.5,13.5,35.3,13.5,48.8,0
			C162.2,174.2,162.2,152.4,148.7,138.9z"/>
		<path class="st1" d="M173.9,210.9c-4.6-12.3-1.9-26.6,8-36.4c13.5-13.5,35.3-13.5,48.8,0c1.5,1.5,2.9,3.2,4.1,4.9"/>
		<path class="st1" d="M205.1,125.7c-18.2-15-38.4-26.3-59.6-34c-5.6,12.6-3.2,28,7.2,38.3c13.5,13.5,35.3,13.5,48.8,0
			C202.8,128.6,204,127.2,205.1,125.7z"/>
		<g>
			
				<ellipse transform="matrix(0.7071 -0.7071 0.7071 0.7071 -1.794 131.2884)" class="st2" cx="157.6" cy="67.8" rx="3.3" ry="3.3"/>
			<ellipse transform="matrix(0.7071 -0.7071 0.7071 0.7071 -13.043 148.7192)" class="st2" cx="173" cy="90.1" rx="3.3" ry="3.3"/>
			
				<ellipse transform="matrix(0.7071 -0.7071 0.7071 0.7071 -6.9777 175.7128)" class="st2" cx="208.6" cy="96.3" rx="3.3" ry="3.3"/>
			
				<ellipse transform="matrix(0.7071 -0.7071 0.7071 0.7071 -22.7556 200.5421)" class="st2" cx="230.7" cy="127.7" rx="3.3" ry="3.3"/>
			
				<ellipse transform="matrix(0.7071 -0.7071 0.7071 0.7071 -20.4489 230.6897)" class="st2" cx="268.2" cy="140" rx="3.3" ry="3.3"/>
		</g>
	</g>
	<g>
		<path class="st1" d="M398.6,383.7h23.3c12.1,0,21.9-9.9,21.9-21.9V285c0-12.1-9.9-21.9-21.9-21.9h-23.6"/>
		<path class="st1" d="M398.6,285h12.4c6,0,11,4.9,11,11v54.8c0,6-4.9,11-11,11h-12.6"/>
		<path class="st1" d="M332.6,218c0,18.1-14.8,32.9-32.9,32.9c-11.1,0-20.9-5.5-26.8-14c-4,5.1-10.2,8.5-17.2,8.5h-10.8
			c-4.2,0-8-1.2-11.3-3.3v167.7c0,15.1,12.3,27.4,27.4,27.4h109.6c15.1,0,27.4-12.3,27.4-27.4V218H332.6z"/>
		<path class="st1" d="M266.5,289.2c0-9-7.4-16.4-16.4-16.4c-9,0-16.4,7.4-16.4,16.4v115.1h32.9V289.2z"/>
		<path class="st1" d="M299.4,289.2c0-9-7.4-16.4-16.4-16.4s-16.4,7.4-16.4,16.4v115.1h32.9V289.2z"/>
		<path class="st1" d="M332.2,289.2c0-9-7.4-16.4-16.4-16.4s-16.4,7.4-16.4,16.4v115.1h32.9V289.2z"/>
		<path class="st1" d="M365.1,289.2c0-9-7.4-16.4-16.4-16.4s-16.4,7.4-16.4,16.4v115.1h32.9V289.2z"/>
		<path class="st1" d="M398,289.2c0-9-7.4-16.4-16.4-16.4c-9,0-16.4,7.4-16.4,16.4v115.1H398V289.2z"/>
		<path class="st1" d="M365.1,174.1c-7.6,0-14.5,2.6-20.1,6.9c-5.5-10.6-16.5-17.9-29.2-17.9c-4.7,0-9.1,1-13.1,2.7
			c-6.5-8.3-16.6-13.7-28-13.7c-17.1,0-31.4,12.1-34.8,28.2c-2-0.5-4.1-0.8-6.3-0.8c-15.1,0-27.4,12.3-27.4,27.4v43.9
			c0,6,4.9,11,11,11h5.5c6,0,11-4.9,11-11v-8.7c3.3,2,7.2,3.3,11.3,3.3h10.8c7,0,13.2-3.4,17.2-8.5c6,8.4,15.8,14,26.8,14
			c18.1,0,32.9-14.8,32.9-32.9h63.5c1.2-3.4,1.9-7.1,1.9-11C398,188.8,383.3,174.1,365.1,174.1z"/>
	</g>
	<path class="st1" d="M207.7,256.9l-49.4,54.3l-9.7-0.1l-90-99.4h147.8"/>
</g>
<g>
	<rect x="203.3" y="441.4" class="st2" width="9.6" height="9.7"/>
	<rect x="480.1" y="441.4" class="st2" width="9.6" height="9.7"/>
	<g>
		<rect x="445" y="441.4" class="st2" width="25.5" height="9.7"/>
		<rect x="222.5" y="441.4" class="st2" width="211.5" height="9.7"/>
	</g>
	<g>
		<rect x="65.3" y="441.4" class="st2" width="165.6" height="9.7"/>
		<rect x="43.7" y="441.4" class="st2" width="12" height="9.7"/>
	</g>
</g>
<path class="st1" d="M304.9,164.5c-10.3-15.2-22.1-29.7-35.6-43.2C231,83,184.5,57.7,135.4,45.5l-10.2,40.7"/>
<line class="st1" x1="77.7" y1="232" x2="206.5" y2="232"/>
<line class="st3" x1="153.7" y1="313.8" x2="153.7" y2="432.2"/>
<line class="st4" x1="210.2" y1="436.7" x2="100.2" y2="436.7"/>
</svg>
