<?xml version="1.0" encoding="utf-8"?>
<!-- Generator: Adobe Illustrator 21.0.0, SVG Export Plug-In . SVG Version: 6.00 Build 0)  -->
<svg version="1.1" id="Layer_1" xmlns="http://www.w3.org/2000/svg" xmlns:xlink="http://www.w3.org/1999/xlink" x="0px" y="0px"
	 viewBox="0 0 480 480" style="enable-background:new 0 0 480 480;" xml:space="preserve">
<style type="text/css">
	.st0{fill:none;stroke:#FFFFFF;stroke-width:15;stroke-miterlimit:10;}
	.st1{fill:none;stroke:#FFFFFF;stroke-width:15;stroke-linecap:round;stroke-miterlimit:10;}
	.st2{fill:#FFFFFF;stroke:#FFFFFF;stroke-width:5;stroke-miterlimit:10;}
</style>
<path class="st0" d="M430,180.6c23.8,22.5,40,39,40,42.4v226c0,12.7-10.3,23-23,23H34c-12.7,0-23-10.3-23-23V223
	c0-3.3,15.8-19.5,39-41.5"/>
<path class="st0" d="M190.2,55c14.1-12.4,26.3-23.1,35.1-30.8c8.7-7.6,21.6-7.6,30.3,0c8.8,7.7,21,18.4,35.1,30.8"/>
<path class="st0" d="M11,223l220.4,88.6c5.5,2.2,11.6,2.2,17.1,0L470,223"/>
<path class="st0" d="M50,238.7V77.5C50,65.1,60.1,55,72.5,55h335c12.4,0,22.5,10.1,22.5,22.5V239"/>
<line class="st1" x1="161.6" y1="283.5" x2="108.2" y2="336.9"/>
<line class="st1" x1="318.7" y1="283.5" x2="369.6" y2="334.3"/>
<g>
	<path class="st2" d="M240.1,121c30.5,0,54.9,24.5,54.9,54.9c0,9.3-2,17.7-5.8,25.1c-0.5,0.5-5,9.3-14.3,11.9
		c-1.1,0.3-2.2,0.3-3.1,0.3c-4.2,0-7.2-1.9-8.9-4.2c-1.6-2.4-2.5-4.9-2.5-7.5v-5.3c-5.2,5.8-12.1,9.4-20.3,9.4
		c-15.5,0-28.1-13.5-28.1-29.7c0-16,12.6-29.4,28.1-29.4s27.8,13.3,27.8,29.4v1.3v0.8v23h0.2c-0.2,0.9,0.5,2.5,0.9,3.5
		c0.5,0.6,1.3,1.1,2.8,1.1h1.3c4.7-1.1,8.5-6.6,9.1-8.2c3.5-6.3,5.2-13.7,5.2-21.5c0-25.9-21.4-47.3-47.3-47.3
		c-26.1,0-47.4,21.4-47.4,47.3c0,26.1,21.4,47.4,47.4,47.4c4.1,0,7.8-0.2,11.8-1.3c2-0.5,4.2,0.5,4.4,2.7c0.8,2-0.6,4.2-2.7,4.6
		c-4.2,1.1-8.8,1.7-13.5,1.7c-30.6,0-55.1-24.5-55.1-55.1C185,145.5,209.5,121,240.1,121z M240.1,197.4c10.8,0,20.1-9.4,20.1-21.5
		c0-11.9-9.3-21.7-20.1-21.7c-11,0-19.9,9.7-19.9,21.7C220.1,188,229.1,197.4,240.1,197.4z"/>
</g>
</svg>
