<?xml version="1.0" encoding="utf-8"?>
<!-- Generator: Adobe Illustrator 21.0.0, SVG Export Plug-In . SVG Version: 6.00 Build 0)  -->
<svg version="1.1" id="Layer_1" xmlns="http://www.w3.org/2000/svg" xmlns:xlink="http://www.w3.org/1999/xlink" x="0px" y="0px"
	 viewBox="0 0 480 480" style="enable-background:new 0 0 480 480;" xml:space="preserve">
<style type="text/css">
	.st0{fill:#FFFFFF;}
</style>
<path class="st0" d="M458.6,180.3c0,1.2,0,2.7-0.4,3.9l-29.3,117.2c-1.4,5.9-6.7,10.1-12.8,10.1l-175.8,0.9l0,0h-176
	c-6,0-11.4-4.1-13-10.1L22,184.6c-0.4-1.4-0.4-2.7-0.4-4.1C10.3,177,2.1,166.3,2.1,153.9c0-15.5,12.6-28.1,28.1-28.1
	s28.1,12.6,28.1,28.1c0,8.7-3.9,16.5-10.3,21.7l36.8,36.9c9.2,9.4,22.2,14.7,35.3,14.7c15.6,0,30.4-7.5,39.8-19.7l60.2-79.9
	c-5.2-5-8.2-12.1-8.2-19.7c0-15.5,12.6-28.1,28.1-28.1c15.5,0,28.1,12.6,28.1,28.1c0,7.5-3,14.2-7.8,19.4l0,0l59.9,80.1
	c9.4,12.4,24.2,19.9,39.8,19.9c13.3,0,25.8-5.2,35.2-14.6l36.9-36.9c-6.4-5.2-10.5-13-10.5-21.8c0-15.5,12.6-28.1,28.1-28.1
	c15.5,0,28.1,12.6,28.1,28.1C477.2,166.3,469.4,176.6,458.6,180.3z M426.1,354.4c0-7.3-6-13.3-13.3-13.3H68.2
	c-7.3,0-13.3,6-13.3,13.3v32c0,7.3,6,13.3,13.3,13.3h344.6c7.3,0,13.3-6,13.3-13.3V354.4z"/>
</svg>
