<?xml version="1.0" encoding="utf-8"?>
<!-- Generator: Adobe Illustrator 21.0.0, SVG Export Plug-In . SVG Version: 6.00 Build 0)  -->
<svg version="1.1" id="Layer_1" xmlns="http://www.w3.org/2000/svg" xmlns:xlink="http://www.w3.org/1999/xlink" x="0px" y="0px"
	 viewBox="0 0 480 480" style="enable-background:new 0 0 480 480;" xml:space="preserve">
<style type="text/css">
	.st0{fill:#FFFFFF;}
</style>
<g>
	<path class="st0" d="M436.9,404.5H43.1c-22.4,0-40.6-18.2-40.6-40.6V116.1c0-22.4,18.2-40.6,40.6-40.6h393.9
		c22.4,0,40.6,18.2,40.6,40.6v247.9C477.5,386.3,459.3,404.5,436.9,404.5z M43.1,90.5c-14.1,0-25.6,11.5-25.6,25.6v247.9
		c0,14.1,11.5,25.6,25.6,25.6h393.9c14.1,0,25.6-11.5,25.6-25.6V116.1c0-14.1-11.5-25.6-25.6-25.6H43.1z"/>
</g>
<path class="st0" d="M245.4,310.2c-5.1-23.1-18-44.1-36.5-59.1c-10.6-8.6-22.7-15-35.6-19c12.5-9.4,20.6-24.4,20.6-41.2
	c0-28.4-23.1-51.5-51.5-51.5S91,162.7,91,191.1c0,16.8,8.1,31.7,20.6,41.2c-12.9,4-25,10.4-35.6,19c-18.4,15-31.4,36-36.5,59.1
	c-1.6,7.4,0.2,15,4.9,20.9c4.8,5.9,11.8,9.3,19.4,9.3h157.2c7.6,0,14.7-3.4,19.4-9.3C245.3,325.2,247.1,317.6,245.4,310.2z
	 M106,191.1c0-20.1,16.4-36.5,36.5-36.5s36.5,16.4,36.5,36.5s-16.4,36.5-36.5,36.5S106,211.2,106,191.1z M228.8,321.7
	c-1.9,2.4-4.7,3.7-7.7,3.7H63.9c-3,0-5.8-1.3-7.7-3.7c-1.9-2.3-2.6-5.4-2-8.3c9-41.1,46.1-70.9,88.3-70.9s79.3,29.8,88.3,70.9
	C231.4,316.4,230.7,319.4,228.8,321.7z"/>
<g>
	<path class="st0" d="M430.5,230.5h-169v-71h169V230.5z M276.5,215.5h139v-41h-139V215.5z"/>
</g>
<g>
	<rect x="261.5" y="259.5" class="st0" width="169" height="15"/>
</g>
<g>
	<rect x="261.5" y="302.5" class="st0" width="169" height="15"/>
</g>
</svg>
