<?xml version="1.0" encoding="utf-8"?>
<!-- Generator: Adobe Illustrator 21.0.0, SVG Export Plug-In . SVG Version: 6.00 Build 0)  -->
<svg version="1.1" id="Layer_1" xmlns="http://www.w3.org/2000/svg" xmlns:xlink="http://www.w3.org/1999/xlink" x="0px" y="0px"
	 viewBox="0 0 480 480" style="enable-background:new 0 0 480 480;" xml:space="preserve">
<style type="text/css">
	.st0{fill:#FFFFFF;}
	.st1{fill:#FFFFFF;stroke:#000000;stroke-width:15;stroke-miterlimit:10;}
	.st2{fill:#FFFFFF;stroke:#FFFFFF;stroke-width:15;stroke-miterlimit:10;}
	.st3{fill:none;stroke:#FFFFFF;stroke-width:15;stroke-miterlimit:10;}
	.st4{fill:none;stroke:#FFFFFF;stroke-width:15;stroke-linecap:round;stroke-miterlimit:10;}
	.st5{fill:#FFFFFF;stroke:#FFFFFF;stroke-width:2;stroke-miterlimit:10;}
	.st6{fill:#FFFFFF;stroke:#FFFFFF;stroke-width:5;stroke-miterlimit:10;}
</style>
<circle class="st3" cx="240" cy="240" r="228"/>
<g>
	<path class="st5" d="M228,260.9v-1v-0.3c0-4.3,3.7-7.6,7.6-7.6c31.2,0,56.1-25.2,56.1-56.1c0-31.5-24.9-56.1-56.1-56.4
		c-20.9,0-38.8,11-48.5,28.2c-2,3.3-7,5-10.6,2.7c-4-2.3-5-7-2.7-10.6c12.3-21.6,35.2-35.8,61.7-35.8c39.5,0,71.7,32.2,71.7,72
		c0,36.5-27.9,67-63.7,71v35.5c0,4.3-3.7,7.6-8,7.6c-4,0-7.6-3.3-7.6-7.6V260.9z M228,341.2c0-4.3,3.7-8,7.6-8c4.3,0,8,3.7,8,8v7.3
		c0,4.3-3.7,7.6-8,7.6c-4,0-7.6-3.3-7.6-7.6V341.2z"/>
</g>
</svg>
