<?xml version="1.0" encoding="utf-8"?>
<!-- Generator: Adobe Illustrator 21.0.0, SVG Export Plug-In . SVG Version: 6.00 Build 0)  -->
<svg version="1.1" id="Layer_1" xmlns="http://www.w3.org/2000/svg" xmlns:xlink="http://www.w3.org/1999/xlink" x="0px" y="0px"
	 viewBox="0 0 480 480" style="enable-background:new 0 0 480 480;" xml:space="preserve">
<style type="text/css">
	.st0{fill:#FFFFFF;}
</style>
<g>
	<g>
		<path class="st0" d="M341,258.7h-65.2c-17.9,0-32.4,14.5-32.4,32.4v50c0,17.9,14.5,32.4,32.4,32.4H341c17.9,0,32.4-14.5,32.4-32.4
			v-50C373.4,273.2,358.9,258.7,341,258.7z M349.8,341.1c0,4.9-4,8.8-8.8,8.8h-65.2c-4.9,0-8.8-4-8.8-8.8v-50c0-4.9,4-8.8,8.8-8.8
			H341c4.9,0,8.8,4,8.8,8.8V341.1z"/>
		<path class="st0" d="M480,167.8c0-2.1-0.5-4-1.6-5.8L407,36.4c-2.1-3.6-6-6-10.2-6H83.1c-4.2,0-8.1,2.3-10.2,6L1.6,162
			c-1,1.8-1.6,3.7-1.6,5.8c0,28.1,17,52.3,41.2,63v207c0,6.5,5.3,11.8,11.8,11.8h65c0.1,0,0.2,0,0.3,0h91.2c0.1,0,0.2,0,0.3,0h217.1
			c6.5,0,11.8-5.3,11.8-11.8V232.2c0-0.5,0-0.9-0.1-1.3C462.9,220.2,480,196,480,167.8z M89.9,54.1h300l55.8,98.2H34.2L89.9,54.1z
			 M341.6,175.7c-3.7,21.2-22.3,37.3-44.5,37.3c-22.3,0-40.8-16.1-44.5-37.3H341.6z M227.5,175.7c-3.7,21.2-22.3,37.3-44.5,37.3
			s-40.8-16.1-44.6-37.3H227.5z M24.3,175.7h89.2c-3.7,21.2-22.4,37.3-44.6,37.3C46.6,213.1,28.1,196.9,24.3,175.7z M197.7,426
			h-67.7V299c0-9.2,7.5-16.8,16.8-16.8h34.2c9.2,0,16.8,7.5,16.8,16.8L197.7,426L197.7,426z M415.2,426H221.3V299
			c0-22.2-18-40.3-40.3-40.3h-34.2c-22.2,0-40.3,18-40.3,40.3v127.1H64.7V236.5c1.4,0.1,2.7,0.1,4.1,0.1c23.7,0,44.7-12.1,57.1-30.4
			c12.4,18.3,33.3,30.4,57.1,30.4s44.6-12.1,57.1-30.4c12.4,18.3,33.3,30.4,57,30.4c23.7,0,44.6-12.1,57-30.4
			c12.4,18.3,33.3,30.4,57.1,30.4c1.4,0,2.6-0.1,4-0.1L415.2,426L415.2,426z M411.1,213.1c-22.3,0-40.8-16.1-44.5-37.3h89.2
			C451.9,196.9,433.4,213.1,411.1,213.1z"/>
	</g>
</g>
</svg>
