<?xml version="1.0" encoding="utf-8"?>
<!-- Generator: Adobe Illustrator 21.0.0, SVG Export Plug-In . SVG Version: 6.00 Build 0)  -->
<svg version="1.1" id="Capa_1" xmlns="http://www.w3.org/2000/svg" xmlns:xlink="http://www.w3.org/1999/xlink" x="0px" y="0px"
	 viewBox="0 0 512 512" style="enable-background:new 0 0 512 512;" xml:space="preserve">
<polygon points="403.7,107.2 302.4,95.3 256,0 213.1,95.3 108.3,107.2 183.4,178.6 164.9,281 254.8,226.3 347.1,281 326.3,178.6 "/>
<polygon points="396.1,404.6 256,450.6 115.9,404.6 115.9,404.8 115.9,420.1 115.9,450.7 115.9,466 256,512 256,511.9 256,512 
	396.1,466 396.1,450.7 396.1,420.1 396.1,404.8 "/>
<polygon points="396.1,297.3 256,343.2 115.9,297.3 115.9,297.4 115.9,312.8 115.9,343.3 115.9,358.7 256,404.6 256,404.5 
	256,404.6 396.1,358.7 396.1,343.3 396.1,312.8 396.1,297.4 "/>
</svg>
