<?xml version="1.0" encoding="utf-8"?>
<!-- Generator: Adobe Illustrator 21.0.0, SVG Export Plug-In . SVG Version: 6.00 Build 0)  -->
<svg version="1.1" id="Capa_1" xmlns="http://www.w3.org/2000/svg" xmlns:xlink="http://www.w3.org/1999/xlink" x="0px" y="0px"
	 viewBox="0 0 512 512" style="enable-background:new 0 0 512 512;" xml:space="preserve">
<style type="text/css">
	.st0{opacity:0.15;fill:#FFFFFF;}
	.st1{opacity:0.3;}
</style>
<circle class="st0" cx="256" cy="256" r="256"/>
<path class="st1" d="M400.4,383.4l-64.2-64.1c20.1-21.8,32.4-50.9,32.4-82.8c0-67.4-54.8-122.2-122.2-122.2s-122.2,54.8-122.2,122.2
	s54.8,122.2,122.2,122.2c21.8,0,42.3-5.7,60-15.8l67.3,67.2L400.4,383.4z M161.9,236.5c0-46.5,37.9-84.4,84.4-84.4
	c46.5,0,84.4,37.9,84.4,84.4c0,46.5-37.9,84.4-84.4,84.4C199.8,320.9,161.9,283,161.9,236.5z"/>
</svg>
