<?xml version="1.0" encoding="utf-8"?>
<!-- Generator: Adobe Illustrator 21.0.0, SVG Export Plug-In . SVG Version: 6.00 Build 0)  -->
<svg version="1.1" id="Layer_1" xmlns="http://www.w3.org/2000/svg" xmlns:xlink="http://www.w3.org/1999/xlink" x="0px" y="0px"
	 viewBox="0 0 492.8 492.8" style="enable-background:new 0 0 492.8 492.8;" xml:space="preserve">
<style type="text/css">
	.st0{opacity:2.000000e-02;fill:#FFFFFF;enable-background:new    ;}
	.st1{opacity:3.000000e-02;fill:#FFFFFF;enable-background:new    ;}
	.st2{fill:none;}
	.st3{fill:#FFFFFF;}
	.st4{fill:#A5000C;}
	.st5{fill:#FF001F;}
	.st6{opacity:0.3;fill:#FFFFFF;}
	.st7{opacity:0.2;fill:#5B000B;}
	.st8{opacity:0.8;fill:#FFFFFF;}
	.st9{fill:#FF0000;}
	.st10{opacity:0.5;}
</style>
<g id="OBJECTS">
	<g>
		<circle class="st0" cx="246.4" cy="246.4" r="246.4"/>
		<circle class="st1" cx="246.4" cy="246.4" r="190.4"/>
		<g>
			<rect x="8.3" y="6.7" class="st2" width="478.5" height="478.5"/>
			<polygon class="st3" points="438.6,343.6 440.3,351.1 447.5,354 440.9,357.9 440.4,365.6 434.7,360.6 427.2,362.5 430.2,355.3 
				426.1,349 433.7,349.6 			"/>
			<polygon class="st4" points="111,53.8 116.5,59.1 123.9,57.6 120.5,64.5 124.3,71.1 116.7,70.1 111.5,75.7 110.2,68.1 103.3,65 
				110.1,61.3 			"/>
			<polygon class="st4" points="104.4,415.6 106.3,422.9 113.5,425.5 107.1,429.7 106.9,437.3 100.9,432.5 93.6,434.7 96.4,427.5 
				92,421.2 99.7,421.7 			"/>
			<polygon class="st4" points="309,41.1 310.4,46.2 315.4,47.9 310.9,50.9 310.8,56.1 306.7,52.8 301.6,54.3 303.5,49.4 
				300.5,44.9 305.8,45.3 			"/>
			<polygon class="st4" points="412.2,146.5 416.6,149.6 421.6,147.7 420,152.8 423.3,157 418,157.1 415.1,161.4 413.4,156.4 
				408.3,155 412.4,151.8 			"/>
			<polygon class="st3" points="43.7,424.1 48,427.2 53,425.3 51.4,430.4 54.7,434.4 49.5,434.7 46.5,439 44.8,434 39.7,432.6 
				44,429.4 			"/>
			<polygon class="st3" points="466,158.3 465.6,163.6 469.9,166.8 464.8,168.2 463.1,173.2 460.2,168.8 454.9,168.7 458.2,164.5 
				456.6,159.5 461.6,161.3 			"/>
			<polygon class="st3" points="201.8,18.3 201.6,23.6 205.7,26.8 200.6,28.2 198.9,33.2 196,28.9 190.7,28.8 194,24.6 192.4,19.5 
				197.4,21.4 			"/>
			<polygon class="st4" points="428.5,412 429.9,417.1 434.8,418.9 430.4,421.8 430.2,427.1 426.1,423.7 421,425.2 422.9,420.3 
				420,415.9 425.2,416.1 			"/>
			<polygon class="st4" points="16.2,339.4 20,343 25.2,341.9 22.9,346.7 25.6,351.3 20.3,350.5 16.7,354.5 15.8,349.3 11,347.1 
				15.7,344.6 			"/>
			
				<ellipse transform="matrix(0.3967 -0.9179 0.9179 0.3967 77.8652 566.4371)" class="st4" cx="469.9" cy="224" rx="4.8" ry="4.8"/>
			
				<ellipse transform="matrix(0.3967 -0.9179 0.9179 0.3967 -180.1827 180.5903)" class="st4" cx="47.3" cy="227.4" rx="4.8" ry="4.8"/>
			
				<ellipse transform="matrix(0.3967 -0.9179 0.9179 0.3967 -304.7685 381.1134)" class="st4" cx="137.6" cy="422.4" rx="2.3" ry="2.3"/>
			
				<ellipse transform="matrix(0.3967 -0.9179 0.9179 0.3967 -227.1695 563.0546)" class="st4" cx="314.8" cy="454.4" rx="2.3" ry="2.3"/>
			
				<ellipse transform="matrix(0.3967 -0.9179 0.9179 0.3967 -75.9566 151.1187)" class="st4" cx="77" cy="133.3" rx="2.3" ry="2.3"/>
			
				<ellipse transform="matrix(0.3967 -0.9179 0.9179 0.3967 74.1365 479.6448)" class="st4" cx="402" cy="183.4" rx="2.3" ry="2.3"/>
			
				<ellipse transform="matrix(0.3967 -0.9179 0.9179 0.3967 28.9176 220.8475)" class="st3" cx="182.5" cy="88.4" rx="2.3" ry="2.3"/>
			
				<ellipse transform="matrix(0.3967 -0.9179 0.9179 0.3967 145.7307 414.5434)" class="st3" cx="388.2" cy="96.4" rx="2.3" ry="2.3"/>
			
				<ellipse transform="matrix(0.3967 -0.9179 0.9179 0.3967 -112.4353 593.2314)" class="st3" cx="395.1" cy="382.2" rx="2.3" ry="2.3"/>
			
				<ellipse transform="matrix(0.3967 -0.9179 0.9179 0.3967 -296.268 438.5942)" class="st3" cx="185.5" cy="444.7" rx="2.3" ry="2.3"/>
			
				<ellipse transform="matrix(0.3967 -0.9179 0.9179 0.3967 -158.6489 591.6186)" class="st3" cx="370.8" cy="416.5" rx="2.3" ry="2.3"/>
			
				<ellipse transform="matrix(0.3967 -0.9179 0.9179 0.3967 -237.7276 286.8984)" class="st4" cx="99.4" cy="324.3" rx="2.3" ry="2.3"/>
			
				<ellipse transform="matrix(0.3967 -0.9179 0.9179 0.3967 -38.463 636.1281)" class="st4" cx="464.7" cy="347.3" rx="2.3" ry="2.3"/>
			
				<ellipse transform="matrix(0.3967 -0.9179 0.9179 0.3967 195.9111 405.6575)" class="st4" cx="406.6" cy="53.8" rx="2.3" ry="2.3"/>
			
				<ellipse transform="matrix(0.3967 -0.9179 0.9179 0.3967 100.4814 329.8401)" class="st4" cx="301.2" cy="88.5" rx="2.3" ry="2.3"/>
			
				<ellipse transform="matrix(0.3967 -0.9179 0.9179 0.3967 0.9488 195.7739)" class="st4" cx="149.4" cy="97.2" rx="4.8" ry="4.8"/>
			
				<ellipse transform="matrix(0.3967 -0.9179 0.9179 0.3967 -204.4687 519.9954)" class="st3" cx="293.4" cy="415.6" rx="4.8" ry="4.8"/>
			
				<ellipse transform="matrix(0.3967 -0.9179 0.9179 0.3967 -147.6422 159.1604)" class="st3" cx="47.3" cy="191.9" rx="4.8" ry="4.8"/>
			
				<ellipse transform="matrix(0.3967 -0.9179 0.9179 0.3967 174.0311 310.2007)" class="st3" cx="323" cy="22.7" rx="2.4" ry="2.4"/>
			
				<ellipse transform="matrix(0.3967 -0.9179 0.9179 0.3967 -283.4466 277.9037)" class="st4" cx="69.7" cy="354.6" rx="4.8" ry="4.8"/>
			<g>
				<polygon class="st5" points="91.5,102.4 26.3,36.6 31.7,31.6 				"/>
			</g>
			<g>
				<polygon class="st5" points="330.9,407 390,478.3 384.1,482.8 				"/>
			</g>
			<g>
				<polygon class="st5" points="169.8,57.7 152.9,28.1 159.7,25.1 				"/>
			</g>
			<g>
				<polygon class="st3" points="479.3,47.2 402,109.7 474.4,41.7 				"/>
			</g>
			<g>
				<polygon class="st3" points="111,487.5 170.3,407.7 117,491.6 				"/>
			</g>
			<g>
				<polygon class="st3" points="234.2,471.3 241.8,427.1 241.6,471.9 				"/>
			</g>
			<g>
				<polygon class="st3" points="85,173.2 26.3,147.9 29.6,141.2 				"/>
			</g>
			<g>
				<polygon class="st5" points="329.8,99.1 350.8,55.4 357.2,59.1 				"/>
			</g>
			<g>
				<polygon class="st5" points="99,375.5 60.6,405.3 56.5,399 				"/>
			</g>
		</g>
	</g>
</g>
<g>
	<g>
		<g>
			<polygon class="st6" points="290.7,252.1 306.7,211.6 249.6,229.9 286.3,253.6 298.9,292.7 285.6,303.9 320.6,292.6 303.3,291.3 
							"/>
			<path class="st4" d="M254.4,232.1c0,0,12.4,5.2,21.5,1.1c9.1-4.1,15.3-9,23.8-4.7l-9.9,23.6l-3.1,1L254.4,232.1z"/>
			<path class="st7" d="M273.1,244.5c0,0,5.8,3.1,10.3-1.9c4.5-5,9.3-5.6,12.2-4.6l-5.8,14l-3.1,1L273.1,244.5z"/>
			<g>
				
					<ellipse transform="matrix(0.1113 -0.9938 0.9938 0.1113 27.6122 497.0982)" class="st8" cx="291.7" cy="233.1" rx="1.5" ry="1.5"/>
				<ellipse transform="matrix(0.1113 -0.9938 0.9938 0.1113 20.3804 496.8966)" class="st8" cx="288" cy="237.1" rx="1" ry="1"/>
				
					<ellipse transform="matrix(0.1113 -0.9938 0.9938 0.1113 19.3298 502.551)" class="st8" cx="290.7" cy="240.5" rx="0.9" ry="0.9"/>
			</g>
			<g>
				<path class="st3" d="M305,213.2l-15.2,38.6l-0.1,0.3l0.1,0.3l12.6,39.1l0.2,0.6l0.7,0.1l12.2,1l-25.3,8.2l9.4-7.9l0.5-0.4
					l-0.2-0.6l-12.6-39.1l-0.1-0.3l-0.3-0.2l-34.9-22.5L305,213.2 M306.7,211.6l-57.1,18.4l36.7,23.6l12.6,39.1l-13.2,11.2l35-11.3
					l-17.3-1.4l-12.6-39.1L306.7,211.6L306.7,211.6z"/>
			</g>
		</g>
		<g>
			<polygon class="st6" points="201.9,253 185.9,212.4 243,230.8 206.3,254.4 193.7,293.5 207,304.7 172,293.4 189.3,292.1 			"/>
			<path class="st4" d="M205.8,253.9l-3.1-1l-9.9-23.6c8.5-4.2,14.7,0.7,23.8,4.7s21.5-1.1,21.5-1.1L205.8,253.9z"/>
			<path class="st7" d="M219.5,245.3c0,0-5.8,3.1-10.3-1.9c-4.5-5-9.3-5.6-12.2-4.6l5.8,14l3.1,1L219.5,245.3z"/>
			<g>
				
					<ellipse transform="matrix(0.9938 -0.1113 0.1113 0.9938 -24.7915 23.8101)" class="st8" cx="200.9" cy="233.9" rx="1.5" ry="1.5"/>
				<ellipse transform="matrix(0.9938 -0.1113 0.1113 0.9938 -25.2072 24.2496)" class="st8" cx="204.6" cy="237.9" rx="1" ry="1"/>
				
					<ellipse transform="matrix(0.9938 -0.1113 0.1113 0.9938 -25.6037 23.9774)" class="st8" cx="201.9" cy="241.3" rx="0.9" ry="0.9"/>
			</g>
			<g>
				<path class="st3" d="M187.6,214l53.1,17.1l-34.9,22.5l-0.3,0.2l-0.1,0.3l-12.6,39.1l-0.2,0.6l0.5,0.4l9.4,7.9l-25.3-8.2l12.2-1
					l0.7-0.1l0.2-0.6l12.6-39.1l0.1-0.3l-0.1-0.3L187.6,214 M185.9,212.4l16,40.6l-12.6,39.1l-17.3,1.4l35,11.3l-13.2-11.2
					l12.6-39.1l36.7-23.6L185.9,212.4L185.9,212.4z"/>
			</g>
		</g>
	</g>
	<g>
		<polygon class="st9" points="242.2,220.5 234.5,211.6 234,214.8 		"/>
		<polygon class="st9" points="257.3,211.6 260.5,212.2 251.3,219.2 		"/>
		<polygon class="st9" points="246.4,218.8 244.4,196.4 249.1,196.7 		"/>
	</g>
</g>
<g>
	<path class="st3" d="M103.6,123.7h4.3v17.5h-3.4l-8-10v10h-4.2v-17.5h3.3l8,10V123.7z"/>
	<path class="st3" d="M114.7,140.3c-1.3-0.7-2.3-1.8-3-3.1c-0.7-1.3-1.1-2.9-1.1-4.8s0.4-3.4,1.1-4.8c0.7-1.3,1.7-2.4,3-3.1
		c1.3-0.7,2.9-1.1,4.7-1.1s3.3,0.4,4.7,1.1c1.3,0.7,2.3,1.8,3,3.1c0.7,1.3,1.1,2.9,1.1,4.8s-0.4,3.4-1.1,4.8c-0.7,1.3-1.7,2.4-3,3.1
		c-1.3,0.7-2.9,1.1-4.6,1.1C117.5,141.4,116,141.1,114.7,140.3z M122.4,136.5c0.7-0.9,1.1-2.3,1.1-4.1c0-1.8-0.4-3.1-1.1-4.1
		c-0.8-0.9-1.8-1.4-3.1-1.4c-1.3,0-2.4,0.5-3.1,1.4s-1.1,2.3-1.1,4.1s0.4,3.2,1.1,4.1s1.8,1.4,3.1,1.4S121.7,137.5,122.4,136.5z"/>
	<path class="st3" d="M132.7,139.5c-1.3-1.3-2-3.2-2-5.7v-10.1h4.5V134c0,1.3,0.3,2.2,0.8,2.9c0.6,0.7,1.4,1,2.4,1
		c1.1,0,1.9-0.3,2.4-1c0.6-0.7,0.8-1.6,0.8-2.9v-10.3h4.5v10.1c0,2.5-0.7,4.4-2,5.6c-1.3,1.3-3.3,1.9-5.8,1.9
		C135.9,141.4,134,140.8,132.7,139.5z"/>
	<path class="st3" d="M151.7,140.9c-1.3-0.3-2.3-0.8-3.1-1.4l1.4-3.2c0.8,0.5,1.7,0.9,2.7,1.2c1,0.3,1.9,0.4,2.9,0.4
		c1,0,1.8-0.1,2.3-0.4c0.5-0.3,0.8-0.7,0.8-1.2c0-0.4-0.2-0.8-0.7-1.1c-0.5-0.3-1.4-0.6-2.7-0.8c-1.6-0.3-2.9-0.8-3.8-1.2
		c-0.9-0.5-1.6-1-1.9-1.7c-0.4-0.6-0.6-1.4-0.6-2.4c0-1.1,0.3-2,0.9-2.9c0.6-0.9,1.5-1.5,2.6-2s2.4-0.7,3.8-0.7
		c1.3,0,2.5,0.2,3.7,0.5c1.2,0.4,2.1,0.8,2.8,1.4l-1.4,3.2c-1.6-1.1-3.3-1.6-5-1.6c-0.8,0-1.5,0.2-2,0.5c-0.5,0.3-0.8,0.7-0.8,1.3
		c0,0.3,0.1,0.6,0.3,0.8c0.2,0.2,0.5,0.4,1,0.6c0.5,0.2,1.2,0.4,2.2,0.6c1.6,0.3,2.8,0.8,3.8,1.3c0.9,0.5,1.6,1.1,1.9,1.7
		s0.6,1.4,0.6,2.3c0,1.7-0.7,3.1-2,4c-1.3,1-3.2,1.5-5.6,1.5C154.3,141.4,153,141.3,151.7,140.9z"/>
	<path class="st3" d="M186.2,141.2l-1.6-3.6h-7.7l-1.6,3.6h-4.6l8.2-17.5h3.6l8.2,17.5H186.2z M178.4,134.1h4.8l-2.4-5.6
		L178.4,134.1z"/>
	<path class="st3" d="M202.8,123.7h4.6l-8,17.5h-3.6l-8-17.5h4.7l5.1,11.8L202.8,123.7z"/>
	<path class="st3" d="M211.6,140.3c-1.3-0.7-2.3-1.8-3-3.1c-0.7-1.3-1.1-2.9-1.1-4.8s0.4-3.4,1.1-4.8c0.7-1.3,1.7-2.4,3-3.1
		c1.3-0.7,2.9-1.1,4.7-1.1s3.3,0.4,4.7,1.1c1.3,0.7,2.3,1.8,3,3.1c0.7,1.3,1.1,2.9,1.1,4.8s-0.4,3.4-1.1,4.8c-0.7,1.3-1.7,2.4-3,3.1
		c-1.3,0.7-2.9,1.1-4.6,1.1C214.4,141.4,212.9,141.1,211.6,140.3z M219.3,136.5c0.7-0.9,1.1-2.3,1.1-4.1c0-1.8-0.4-3.1-1.1-4.1
		c-0.8-0.9-1.8-1.4-3.1-1.4c-1.3,0-2.4,0.5-3.1,1.4s-1.1,2.3-1.1,4.1s0.4,3.2,1.1,4.1s1.8,1.4,3.1,1.4S218.6,137.5,219.3,136.5z"/>
	<path class="st3" d="M239,123.7h4.3v17.5h-3.4l-8-10v10h-4.2v-17.5h3.3l8,10V123.7z"/>
	<path class="st3" d="M248.9,140.9c-1.3-0.3-2.3-0.8-3.1-1.4l1.4-3.2c0.8,0.5,1.7,0.9,2.7,1.2c1,0.3,1.9,0.4,2.9,0.4
		c1,0,1.8-0.1,2.3-0.4c0.5-0.3,0.8-0.7,0.8-1.2c0-0.4-0.2-0.8-0.7-1.1c-0.5-0.3-1.4-0.6-2.7-0.8c-1.6-0.3-2.9-0.8-3.8-1.2
		c-0.9-0.5-1.6-1-2-1.7c-0.4-0.6-0.6-1.4-0.6-2.4c0-1.1,0.3-2,0.9-2.9c0.6-0.9,1.5-1.5,2.6-2s2.4-0.7,3.8-0.7c1.3,0,2.5,0.2,3.7,0.5
		s2.1,0.8,2.8,1.4l-1.4,3.2c-1.6-1.1-3.3-1.6-5-1.6c-0.8,0-1.5,0.2-2,0.5c-0.5,0.3-0.8,0.7-0.8,1.3c0,0.3,0.1,0.6,0.3,0.8
		s0.5,0.4,1,0.6c0.5,0.2,1.2,0.4,2.2,0.6c1.6,0.3,2.8,0.8,3.8,1.3s1.6,1.1,1.9,1.7s0.6,1.4,0.6,2.3c0,1.7-0.7,3.1-2,4
		c-1.3,1-3.2,1.5-5.6,1.5C251.5,141.4,250.2,141.3,248.9,140.9z"/>
	<path class="st3" d="M284.2,133.7c0.5,0.7,0.8,1.6,0.8,2.7c0,1-0.3,1.8-0.8,2.5s-1.2,1.3-2.2,1.7c-0.9,0.4-2,0.6-3.3,0.6h-8.7
		v-17.5h8.5c1.8,0,3.3,0.4,4.4,1.2c1.1,0.8,1.6,1.9,1.6,3.3c0,0.9-0.2,1.7-0.7,2.4c-0.5,0.7-1.2,1.2-2,1.5
		C282.9,132.4,283.6,133,284.2,133.7z M274.5,130.6h3.3c0.9,0,1.5-0.1,1.9-0.4c0.4-0.3,0.6-0.7,0.6-1.3c0-0.6-0.2-1.1-0.6-1.3
		c-0.4-0.3-1-0.4-1.9-0.4h-3.3V130.6z M280.2,137.3c0.4-0.3,0.6-0.8,0.6-1.4c0-0.7-0.2-1.1-0.6-1.4c-0.4-0.3-1-0.4-1.9-0.4h-3.7v3.7
		h3.7C279.1,137.7,279.8,137.6,280.2,137.3z"/>
	<path class="st3" d="M287.3,141.2v-17.5h4.6v17.5H287.3z"/>
	<path class="st3" d="M295.1,141.2v-17.5h12.4v3.5h-8v3.3h7.5v3.5h-7.5v3.6h8v3.5H295.1z"/>
	<path class="st3" d="M321.3,123.7h4.3v17.5h-3.4l-8-10v10h-4.2v-17.5h3.3l8,10V123.7z"/>
	<path class="st3" d="M351.6,141.2h-5l-3-5.6c-0.4-0.6-1-1-1.8-1h-1.4v6.6h-4.5v-17.5h8.3c2.1,0,3.7,0.5,4.8,1.4s1.6,2.2,1.6,4
		c0,1.3-0.4,2.4-1.1,3.4s-1.8,1.5-3.1,1.9c1,0.2,1.8,0.9,2.4,2L351.6,141.2z M345.6,130.7c0.4-0.3,0.7-0.8,0.7-1.5
		c0-0.7-0.2-1.3-0.7-1.6c-0.4-0.3-1.2-0.5-2.2-0.5h-3.2v4.1h3.2C344.5,131.2,345.2,131.1,345.6,130.7z"/>
	<path class="st3" d="M353.4,141.2v-17.5h12.4v3.5h-8v3.3h7.5v3.5h-7.5v3.6h8v3.5H353.4z"/>
	<path class="st3" d="M380.3,140.8c-0.9,0.3-1.9,0.5-3,0.6l-0.1,0.8h0.2c0.7,0,1.2,0.2,1.6,0.5c0.4,0.3,0.6,0.7,0.6,1.3
		c0,0.7-0.3,1.2-0.9,1.6c-0.6,0.4-1.5,0.6-2.6,0.6c-0.3,0-0.7,0-1.2-0.1c-0.4-0.1-0.8-0.2-1.2-0.3l0.2-1.6c0.8,0.2,1.5,0.3,2,0.3
		c0.7,0,1-0.2,1-0.5c0-0.3-0.3-0.4-0.8-0.4c-0.2,0-0.5,0-0.8,0.1l-0.5-0.5l0.2-1.7c-1.5-0.2-2.8-0.7-3.9-1.5
		c-1.1-0.8-1.9-1.8-2.5-3.1c-0.6-1.3-0.9-2.7-0.9-4.3c0-1.8,0.4-3.4,1.1-4.7c0.7-1.3,1.8-2.4,3.1-3.1s2.9-1.1,4.8-1.1
		c1.1,0,2.2,0.2,3.3,0.5c1.1,0.3,1.9,0.8,2.6,1.4l-1.4,3.2c-1.4-1-2.9-1.5-4.4-1.5c-1.4,0-2.5,0.4-3.3,1.3c-0.8,0.9-1.1,2.2-1.1,4
		s0.4,3.1,1.1,4c0.8,0.9,1.8,1.4,3.3,1.4c1.5,0,3-0.5,4.4-1.5l1.4,3.2C382.1,140,381.3,140.5,380.3,140.8z"/>
	<path class="st3" d="M386.9,139.5c-1.3-1.3-2-3.2-2-5.7v-10.1h4.5V134c0,1.3,0.3,2.2,0.8,2.9c0.6,0.7,1.4,1,2.4,1s1.9-0.3,2.4-1
		c0.6-0.7,0.8-1.6,0.8-2.9v-10.3h4.5v10.1c0,2.5-0.7,4.4-2,5.6c-1.3,1.3-3.3,1.9-5.8,1.9C390.2,141.4,388.3,140.8,386.9,139.5z"/>
	<path class="st3" d="M151.4,153.5h4.6l-8,17.5h-3.6l-8-17.5h4.7l5.1,11.8L151.4,153.5z"/>
	<path class="st3" d="M160.2,170.1c-1.3-0.7-2.3-1.8-3-3.1c-0.7-1.3-1.1-2.9-1.1-4.8s0.4-3.4,1.1-4.8c0.7-1.3,1.7-2.4,3-3.1
		c1.3-0.7,2.9-1.1,4.7-1.1s3.3,0.4,4.7,1.1c1.3,0.7,2.3,1.8,3,3.1c0.7,1.3,1.1,2.9,1.1,4.8s-0.4,3.4-1.1,4.8c-0.7,1.3-1.7,2.4-3,3.1
		c-1.3,0.7-2.9,1.1-4.6,1.1C163.1,171.2,161.5,170.9,160.2,170.1z M168,166.3c0.7-0.9,1.1-2.3,1.1-4.1c0-1.8-0.4-3.1-1.1-4.1
		c-0.8-0.9-1.8-1.4-3.1-1.4c-1.3,0-2.4,0.5-3.1,1.4s-1.1,2.3-1.1,4.1s0.4,3.2,1.1,4.1s1.8,1.4,3.1,1.4S167.2,167.3,168,166.3z"/>
	<path class="st3" d="M179.3,171v-13.8H174v-3.7h15.1v3.7h-5.2V171H179.3z"/>
	<path class="st3" d="M206.8,171h-5l-3-5.6c-0.4-0.6-1-1-1.8-1h-1.4v6.6H191v-17.5h8.3c2.1,0,3.7,0.5,4.8,1.4s1.6,2.2,1.6,4
		c0,1.3-0.4,2.4-1.1,3.4c-0.7,0.9-1.8,1.5-3.1,1.9c1,0.2,1.8,0.9,2.4,2L206.8,171z M200.8,160.5c0.4-0.3,0.7-0.8,0.7-1.5
		c0-0.7-0.2-1.3-0.7-1.6c-0.4-0.3-1.2-0.5-2.2-0.5h-3.2v4.1h3.2C199.7,161,200.4,160.9,200.8,160.5z"/>
	<path class="st3" d="M208.6,171v-17.5H221v3.5h-8v3.3h7.5v3.5H213v3.6h8v3.5H208.6z"/>
	<path class="st3" d="M230.5,153.5h8.5c1.9,0,3.4,0.5,4.5,1.5c1.1,1,1.6,2.4,1.6,4.1c0,1.7-0.5,3.1-1.6,4.1c-1.1,1-2.6,1.5-4.5,1.5
		h-3.9v6.3h-4.6V153.5z M238.4,161.2c0.8,0,1.5-0.2,1.9-0.5c0.4-0.3,0.6-0.9,0.6-1.6s-0.2-1.3-0.6-1.6c-0.4-0.4-1-0.5-1.9-0.5h-3.3
		v4.3H238.4z"/>
	<path class="st3" d="M258.8,171l-1.6-3.6h-7.7l-1.6,3.6h-4.6l8.2-17.5h3.6l8.2,17.5H258.8z M251,163.9h4.8l-2.4-5.6L251,163.9z"/>
	<path class="st3" d="M264.4,171v-17.5h4.6V171H264.4z"/>
	<path class="st3" d="M272.1,171v-17.5h12.4v3.5h-8v3.3h7.5v3.5h-7.5v3.6h8v3.5H272.1z"/>
	<path class="st3" d="M301.1,153.5h3.5V171h-4v-9.2l-3.4,6.3h-2.9L291,162l0,9h-4v-17.5h3.6l5.3,10L301.1,153.5z"/>
	<path class="st3" d="M307.9,171v-17.5h12.4v3.5h-8v3.3h7.5v3.5h-7.5v3.6h8v3.5H307.9z"/>
	<path class="st3" d="M334,153.5h4.3V171h-3.4l-8-10v10h-4.2v-17.5h3.3l8,10V153.5z"/>
	<path class="st3" d="M345.4,171v-13.8h-5.2v-3.7h15.1v3.7H350V171H345.4z"/>
</g>
<path class="st4" d="M375.8,374.5H117.2c-11.2,0-20.2-9.1-20.2-20.2v0c0-11.2,9.1-20.2,20.2-20.2h258.6c11.2,0,20.2,9.1,20.2,20.2v0
	C396,365.5,387,374.5,375.8,374.5z"/>
<g class="st10">
	<path d="M128.6,352.3h2.2l-3.9,8.5h-1.8l-3.9-8.5h2.3l2.5,5.7L128.6,352.3z"/>
	<path d="M132.9,360.3c-0.6-0.4-1.1-0.9-1.5-1.5c-0.3-0.7-0.5-1.4-0.5-2.3s0.2-1.6,0.5-2.3c0.3-0.7,0.8-1.2,1.5-1.5
		c0.6-0.4,1.4-0.5,2.3-0.5c0.9,0,1.6,0.2,2.3,0.5c0.6,0.4,1.1,0.9,1.5,1.5c0.3,0.7,0.5,1.4,0.5,2.3s-0.2,1.6-0.5,2.3
		c-0.3,0.7-0.8,1.2-1.5,1.5c-0.6,0.4-1.4,0.5-2.2,0.5C134.3,360.9,133.5,360.7,132.9,360.3z M136.6,358.5c0.4-0.5,0.5-1.1,0.5-2
		s-0.2-1.5-0.5-2c-0.4-0.4-0.9-0.7-1.5-0.7c-0.6,0-1.1,0.2-1.5,0.7s-0.5,1.1-0.5,2s0.2,1.5,0.5,2c0.4,0.4,0.9,0.7,1.5,0.7
		C135.8,359.2,136.3,358.9,136.6,358.5z"/>
	<path d="M142.1,360.8v-6.7h-2.5v-1.8h7.3v1.8h-2.5v6.7H142.1z"/>
	<path d="M155.4,360.8H153l-1.5-2.7c-0.2-0.3-0.5-0.5-0.9-0.5h-0.7v3.2h-2.2v-8.5h4c1,0,1.8,0.2,2.3,0.7c0.5,0.4,0.8,1.1,0.8,1.9
		c0,0.6-0.2,1.2-0.5,1.6s-0.8,0.7-1.5,0.9c0.5,0.1,0.9,0.4,1.2,0.9L155.4,360.8z M152.5,355.7c0.2-0.2,0.3-0.4,0.3-0.7
		c0-0.4-0.1-0.6-0.3-0.8c-0.2-0.2-0.6-0.2-1-0.2h-1.5v2h1.5C151.9,355.9,152.3,355.9,152.5,355.7z"/>
	<path d="M156.3,360.8v-8.5h6v1.7h-3.9v1.6h3.6v1.7h-3.6v1.8h3.9v1.7H156.3z"/>
	<path d="M173.3,360.8l-0.8-1.8h-3.7l-0.8,1.8h-2.2l3.9-8.5h1.8l4,8.5H173.3z M169.5,357.3h2.3l-1.2-2.7L169.5,357.3z"/>
	<path d="M182.8,357.1c0.3,0.4,0.4,0.8,0.4,1.3c0,0.5-0.1,0.9-0.4,1.2c-0.2,0.3-0.6,0.6-1,0.8c-0.5,0.2-1,0.3-1.6,0.3H176v-8.5h4.1
		c0.9,0,1.6,0.2,2.1,0.6s0.8,0.9,0.8,1.6c0,0.4-0.1,0.8-0.3,1.1s-0.6,0.6-1,0.7C182.2,356.5,182.5,356.8,182.8,357.1z M178.1,355.6
		h1.6c0.4,0,0.7-0.1,0.9-0.2s0.3-0.3,0.3-0.6c0-0.3-0.1-0.5-0.3-0.6s-0.5-0.2-0.9-0.2h-1.6V355.6z M180.9,358.9
		c0.2-0.1,0.3-0.4,0.3-0.7c0-0.3-0.1-0.5-0.3-0.7c-0.2-0.1-0.5-0.2-0.9-0.2h-1.8v1.8h1.8C180.4,359.1,180.7,359,180.9,358.9z"/>
	<path d="M186.1,360.3c-0.6-0.4-1.1-0.9-1.5-1.5c-0.3-0.7-0.5-1.4-0.5-2.3s0.2-1.6,0.5-2.3c0.3-0.7,0.8-1.2,1.5-1.5
		c0.6-0.4,1.4-0.5,2.3-0.5c0.9,0,1.6,0.2,2.3,0.5c0.6,0.4,1.1,0.9,1.5,1.5c0.3,0.7,0.5,1.4,0.5,2.3s-0.2,1.6-0.5,2.3
		c-0.3,0.7-0.8,1.2-1.5,1.5c-0.6,0.4-1.4,0.5-2.2,0.5C187.5,360.9,186.7,360.7,186.1,360.3z M189.8,358.5c0.4-0.5,0.5-1.1,0.5-2
		s-0.2-1.5-0.5-2c-0.4-0.4-0.9-0.7-1.5-0.7c-0.6,0-1.1,0.2-1.5,0.7s-0.5,1.1-0.5,2s0.2,1.5,0.5,2c0.4,0.4,0.9,0.7,1.5,0.7
		C189,359.2,189.5,358.9,189.8,358.5z"/>
	<path d="M199.4,352.3h2.1v8.5h-1.6l-3.9-4.8v4.8h-2.1v-8.5h1.6l3.9,4.8V352.3z"/>
	<path d="M208.4,352.3h2.1v8.5h-1.6l-3.9-4.8v4.8H203v-8.5h1.6l3.9,4.8V352.3z"/>
	<path d="M212,360.8v-8.5h6v1.7h-3.9v1.6h3.6v1.7h-3.6v1.8h3.9v1.7H212z"/>
	<path d="M226,352.3h1.7v8.5h-1.9v-4.4l-1.6,3h-1.4l-1.6-3l0,4.4h-1.9v-8.5h1.7l2.5,4.8L226,352.3z"/>
	<path d="M229.3,360.8v-8.5h6v1.7h-3.9v1.6h3.6v1.7h-3.6v1.8h3.9v1.7H229.3z"/>
	<path d="M242,352.3h2.1v8.5h-1.6l-3.9-4.8v4.8h-2.1v-8.5h1.6l3.9,4.8V352.3z"/>
	<path d="M247.5,360.8v-6.7h-2.5v-1.8h7.3v1.8h-2.5v6.7H247.5z"/>
	<path d="M263,360.8l-0.8-1.8h-3.7l-0.8,1.8h-2.2l3.9-8.5h1.8l4,8.5H263z M259.2,357.3h2.3l-1.2-2.7L259.2,357.3z"/>
	<path d="M269.1,360.8v-8.5h6v1.7h-3.9v1.6h3.6v1.7h-3.6v1.8h3.9v1.7H269.1z M273,351.6h-1.3l1.2-1.9h1.9L273,351.6z"/>
	<path d="M278.4,360.8v-6.7h-2.5v-1.8h7.3v1.8h-2.5v6.7H278.4z"/>
	<path d="M284.1,360.8v-8.5h6v1.7h-3.9v1.6h3.6v1.7h-3.6v1.8h3.9v1.7H284.1z M287.9,351.6h-1.3l1.2-1.9h1.9L287.9,351.6z"/>
	<path d="M302.3,360.8h-2.4l-1.5-2.7c-0.2-0.3-0.5-0.5-0.9-0.5h-0.7v3.2h-2.2v-8.5h4c1,0,1.8,0.2,2.3,0.7c0.5,0.4,0.8,1.1,0.8,1.9
		c0,0.6-0.2,1.2-0.5,1.6c-0.4,0.4-0.8,0.7-1.5,0.9c0.5,0.1,0.9,0.4,1.2,0.9L302.3,360.8z M299.4,355.7c0.2-0.2,0.3-0.4,0.3-0.7
		c0-0.4-0.1-0.6-0.3-0.8c-0.2-0.2-0.6-0.2-1-0.2h-1.5v2h1.5C298.8,355.9,299.2,355.9,299.4,355.7z"/>
	<path d="M303.2,360.8v-8.5h6v1.7h-3.9v1.6h3.6v1.7h-3.6v1.8h3.9v1.7H303.2z"/>
	<path d="M315.8,352.3h2.1v8.5h-1.6l-3.9-4.8v4.8h-2.1v-8.5h1.6l3.9,4.8V352.3z"/>
	<path d="M321.2,360.3c-0.6-0.4-1.1-0.9-1.5-1.5c-0.3-0.7-0.5-1.4-0.5-2.3s0.2-1.6,0.5-2.3c0.3-0.7,0.8-1.2,1.5-1.5s1.4-0.5,2.3-0.5
		s1.6,0.2,2.3,0.5s1.1,0.9,1.5,1.5c0.3,0.7,0.5,1.4,0.5,2.3s-0.2,1.6-0.5,2.3c-0.3,0.7-0.8,1.2-1.5,1.5c-0.6,0.4-1.4,0.5-2.2,0.5
		C322.6,360.9,321.8,360.7,321.2,360.3z M324.9,358.5c0.4-0.5,0.5-1.1,0.5-2s-0.2-1.5-0.5-2c-0.4-0.4-0.9-0.7-1.5-0.7
		c-0.6,0-1.1,0.2-1.5,0.7s-0.5,1.1-0.5,2s0.2,1.5,0.5,2c0.4,0.4,0.9,0.7,1.5,0.7C324.1,359.2,324.6,358.9,324.9,358.5z"/>
	<path d="M329.9,359.9c-0.6-0.6-1-1.5-1-2.7v-4.9h2.2v5c0,0.6,0.1,1.1,0.4,1.4c0.3,0.3,0.7,0.5,1.2,0.5s0.9-0.2,1.2-0.5
		c0.3-0.3,0.4-0.8,0.4-1.4v-5h2.2v4.9c0,1.2-0.3,2.1-1,2.7s-1.6,0.9-2.8,0.9C331.4,360.9,330.5,360.6,329.9,359.9z"/>
	<path d="M344.1,352.3h2.2l-3.9,8.5h-1.8l-3.9-8.5h2.3l2.5,5.7L344.1,352.3z"/>
	<path d="M346.8,360.8v-8.5h6v1.7H349v1.6h3.6v1.7H349v1.8h3.9v1.7H346.8z"/>
	<path d="M354,360.8v-8.5h2.2v6.7h3.6v1.8H354z"/>
	<path d="M360.8,360.8v-8.5h6v1.7H363v1.6h3.6v1.7H363v1.8h3.9v1.7H360.8z M364.7,351.6h-1.3l1.2-1.9h1.9L364.7,351.6z"/>
	<path d="M371.6,357.8l-0.7-5.5l2.6,0l-0.7,5.5H371.6z M371.2,358.6h2.2v2.2h-2.2V358.6z"/>
</g>
<g>
	<path class="st3" d="M127.6,351.3h2.2l-3.9,8.5h-1.8l-3.9-8.5h2.3l2.5,5.7L127.6,351.3z"/>
	<path class="st3" d="M131.9,359.3c-0.6-0.4-1.1-0.9-1.5-1.5c-0.3-0.7-0.5-1.4-0.5-2.3s0.2-1.6,0.5-2.3c0.3-0.7,0.8-1.2,1.5-1.5
		c0.6-0.4,1.4-0.5,2.3-0.5c0.9,0,1.6,0.2,2.3,0.5c0.6,0.4,1.1,0.9,1.5,1.5c0.3,0.7,0.5,1.4,0.5,2.3s-0.2,1.6-0.5,2.3
		c-0.3,0.7-0.8,1.2-1.5,1.5c-0.6,0.4-1.4,0.5-2.2,0.5C133.3,359.9,132.5,359.7,131.9,359.3z M135.6,357.5c0.4-0.5,0.5-1.1,0.5-2
		s-0.2-1.5-0.5-2c-0.4-0.4-0.9-0.7-1.5-0.7c-0.6,0-1.1,0.2-1.5,0.7s-0.5,1.1-0.5,2s0.2,1.5,0.5,2c0.4,0.4,0.9,0.7,1.5,0.7
		C134.8,358.2,135.3,357.9,135.6,357.5z"/>
	<path class="st3" d="M141.1,359.8v-6.7h-2.5v-1.8h7.3v1.8h-2.5v6.7H141.1z"/>
	<path class="st3" d="M154.4,359.8H152l-1.5-2.7c-0.2-0.3-0.5-0.5-0.9-0.5h-0.7v3.2h-2.2v-8.5h4c1,0,1.8,0.2,2.3,0.7
		c0.5,0.4,0.8,1.1,0.8,1.9c0,0.6-0.2,1.2-0.5,1.6s-0.8,0.7-1.5,0.9c0.5,0.1,0.9,0.4,1.2,0.9L154.4,359.8z M151.5,354.7
		c0.2-0.2,0.3-0.4,0.3-0.7c0-0.4-0.1-0.6-0.3-0.8c-0.2-0.2-0.6-0.2-1-0.2h-1.5v2h1.5C150.9,354.9,151.3,354.9,151.5,354.7z"/>
	<path class="st3" d="M155.3,359.8v-8.5h6v1.7h-3.9v1.6h3.6v1.7h-3.6v1.8h3.9v1.7H155.3z"/>
	<path class="st3" d="M172.3,359.8l-0.8-1.8h-3.7l-0.8,1.8h-2.2l3.9-8.5h1.8l4,8.5H172.3z M168.5,356.3h2.3l-1.2-2.7L168.5,356.3z"
		/>
	<path class="st3" d="M181.8,356.1c0.3,0.4,0.4,0.8,0.4,1.3c0,0.5-0.1,0.9-0.4,1.2c-0.2,0.3-0.6,0.6-1,0.8c-0.5,0.2-1,0.3-1.6,0.3
		H175v-8.5h4.1c0.9,0,1.6,0.2,2.1,0.6s0.8,0.9,0.8,1.6c0,0.4-0.1,0.8-0.3,1.1s-0.6,0.6-1,0.7C181.2,355.5,181.5,355.8,181.8,356.1z
		 M177.1,354.6h1.6c0.4,0,0.7-0.1,0.9-0.2s0.3-0.3,0.3-0.6c0-0.3-0.1-0.5-0.3-0.6s-0.5-0.2-0.9-0.2h-1.6V354.6z M179.9,357.9
		c0.2-0.1,0.3-0.4,0.3-0.7c0-0.3-0.1-0.5-0.3-0.7c-0.2-0.1-0.5-0.2-0.9-0.2h-1.8v1.8h1.8C179.4,358.1,179.7,358,179.9,357.9z"/>
	<path class="st3" d="M185.1,359.3c-0.6-0.4-1.1-0.9-1.5-1.5c-0.3-0.7-0.5-1.4-0.5-2.3s0.2-1.6,0.5-2.3c0.3-0.7,0.8-1.2,1.5-1.5
		c0.6-0.4,1.4-0.5,2.3-0.5c0.9,0,1.6,0.2,2.3,0.5c0.6,0.4,1.1,0.9,1.5,1.5c0.3,0.7,0.5,1.4,0.5,2.3s-0.2,1.6-0.5,2.3
		c-0.3,0.7-0.8,1.2-1.5,1.5c-0.6,0.4-1.4,0.5-2.2,0.5C186.5,359.9,185.7,359.7,185.1,359.3z M188.8,357.5c0.4-0.5,0.5-1.1,0.5-2
		s-0.2-1.5-0.5-2c-0.4-0.4-0.9-0.7-1.5-0.7c-0.6,0-1.1,0.2-1.5,0.7s-0.5,1.1-0.5,2s0.2,1.5,0.5,2c0.4,0.4,0.9,0.7,1.5,0.7
		C188,358.2,188.5,357.9,188.8,357.5z"/>
	<path class="st3" d="M198.4,351.3h2.1v8.5h-1.6l-3.9-4.8v4.8h-2.1v-8.5h1.6l3.9,4.8V351.3z"/>
	<path class="st3" d="M207.4,351.3h2.1v8.5h-1.6l-3.9-4.8v4.8H202v-8.5h1.6l3.9,4.8V351.3z"/>
	<path class="st3" d="M211,359.8v-8.5h6v1.7h-3.9v1.6h3.6v1.7h-3.6v1.8h3.9v1.7H211z"/>
	<path class="st3" d="M225,351.3h1.7v8.5h-1.9v-4.4l-1.6,3h-1.4l-1.6-3l0,4.4h-1.9v-8.5h1.7l2.5,4.8L225,351.3z"/>
	<path class="st3" d="M228.3,359.8v-8.5h6v1.7h-3.9v1.6h3.6v1.7h-3.6v1.8h3.9v1.7H228.3z"/>
	<path class="st3" d="M241,351.3h2.1v8.5h-1.6l-3.9-4.8v4.8h-2.1v-8.5h1.6l3.9,4.8V351.3z"/>
	<path class="st3" d="M246.5,359.8v-6.7h-2.5v-1.8h7.3v1.8h-2.5v6.7H246.5z"/>
	<path class="st3" d="M262,359.8l-0.8-1.8h-3.7l-0.8,1.8h-2.2l3.9-8.5h1.8l4,8.5H262z M258.2,356.3h2.3l-1.2-2.7L258.2,356.3z"/>
	<path class="st3" d="M268.1,359.8v-8.5h6v1.7h-3.9v1.6h3.6v1.7h-3.6v1.8h3.9v1.7H268.1z M272,350.6h-1.3l1.2-1.9h1.9L272,350.6z"/>
	<path class="st3" d="M277.4,359.8v-6.7h-2.5v-1.8h7.3v1.8h-2.5v6.7H277.4z"/>
	<path class="st3" d="M283.1,359.8v-8.5h6v1.7h-3.9v1.6h3.6v1.7h-3.6v1.8h3.9v1.7H283.1z M286.9,350.6h-1.3l1.2-1.9h1.9L286.9,350.6
		z"/>
	<path class="st3" d="M301.3,359.8h-2.4l-1.5-2.7c-0.2-0.3-0.5-0.5-0.9-0.5h-0.7v3.2h-2.2v-8.5h4c1,0,1.8,0.2,2.3,0.7
		c0.5,0.4,0.8,1.1,0.8,1.9c0,0.6-0.2,1.2-0.5,1.6c-0.4,0.4-0.8,0.7-1.5,0.9c0.5,0.1,0.9,0.4,1.2,0.9L301.3,359.8z M298.4,354.7
		c0.2-0.2,0.3-0.4,0.3-0.7c0-0.4-0.1-0.6-0.3-0.8c-0.2-0.2-0.6-0.2-1-0.2h-1.5v2h1.5C297.8,354.9,298.2,354.9,298.4,354.7z"/>
	<path class="st3" d="M302.2,359.8v-8.5h6v1.7h-3.9v1.6h3.6v1.7h-3.6v1.8h3.9v1.7H302.2z"/>
	<path class="st3" d="M314.8,351.3h2.1v8.5h-1.6l-3.9-4.8v4.8h-2.1v-8.5h1.6l3.9,4.8V351.3z"/>
	<path class="st3" d="M320.2,359.3c-0.6-0.4-1.1-0.9-1.5-1.5c-0.3-0.7-0.5-1.4-0.5-2.3s0.2-1.6,0.5-2.3c0.3-0.7,0.8-1.2,1.5-1.5
		s1.4-0.5,2.3-0.5s1.6,0.2,2.3,0.5s1.1,0.9,1.5,1.5c0.3,0.7,0.5,1.4,0.5,2.3s-0.2,1.6-0.5,2.3c-0.3,0.7-0.8,1.2-1.5,1.5
		c-0.6,0.4-1.4,0.5-2.2,0.5C321.6,359.9,320.8,359.7,320.2,359.3z M323.9,357.5c0.4-0.5,0.5-1.1,0.5-2s-0.2-1.5-0.5-2
		c-0.4-0.4-0.9-0.7-1.5-0.7c-0.6,0-1.1,0.2-1.5,0.7s-0.5,1.1-0.5,2s0.2,1.5,0.5,2c0.4,0.4,0.9,0.7,1.5,0.7
		C323.1,358.2,323.6,357.9,323.9,357.5z"/>
	<path class="st3" d="M328.9,358.9c-0.6-0.6-1-1.5-1-2.7v-4.9h2.2v5c0,0.6,0.1,1.1,0.4,1.4c0.3,0.3,0.7,0.5,1.2,0.5s0.9-0.2,1.2-0.5
		c0.3-0.3,0.4-0.8,0.4-1.4v-5h2.2v4.9c0,1.2-0.3,2.1-1,2.7s-1.6,0.9-2.8,0.9C330.4,359.9,329.5,359.6,328.9,358.9z"/>
	<path class="st3" d="M343.1,351.3h2.2l-3.9,8.5h-1.8l-3.9-8.5h2.3l2.5,5.7L343.1,351.3z"/>
	<path class="st3" d="M345.8,359.8v-8.5h6v1.7H348v1.6h3.6v1.7H348v1.8h3.9v1.7H345.8z"/>
	<path class="st3" d="M353,359.8v-8.5h2.2v6.7h3.6v1.8H353z"/>
	<path class="st3" d="M359.8,359.8v-8.5h6v1.7H362v1.6h3.6v1.7H362v1.8h3.9v1.7H359.8z M363.7,350.6h-1.3l1.2-1.9h1.9L363.7,350.6z"
		/>
	<path class="st3" d="M370.6,356.8l-0.7-5.5l2.6,0l-0.7,5.5H370.6z M370.2,357.6h2.2v2.2h-2.2V357.6z"/>
</g>
</svg>
