<?xml version="1.0" encoding="utf-8"?>
<!-- Generator: Adobe Illustrator 21.0.0, SVG Export Plug-In . SVG Version: 6.00 Build 0)  -->
<svg version="1.1" id="Layer_1" xmlns="http://www.w3.org/2000/svg" xmlns:xlink="http://www.w3.org/1999/xlink" x="0px" y="0px"
	 viewBox="0 0 500 500" style="enable-background:new 0 0 500 500;" xml:space="preserve">
<style type="text/css">
	.st0{display:none;}
	.st1{display:inline;fill:#111111;}
	.st2{opacity:2.000000e-02;fill:#FFFFFF;enable-background:new    ;}
	.st3{opacity:3.000000e-02;fill:#FFFFFF;enable-background:new    ;}
	.st4{fill:none;}
	.st5{fill:#FFFFFF;}
	.st6{fill:#A5000C;}
	.st7{fill:#FF001F;}
	.st8{opacity:0.3;fill:#FFFFFF;}
	.st9{opacity:0.2;fill:#5B000B;}
	.st10{opacity:0.8;fill:#FFFFFF;}
	.st11{fill:#FF0000;}
	.st12{opacity:0.5;}
</style>
<g id="BACKGROUND" class="st0">
	<rect class="st1" width="500" height="500"/>
</g>
<g id="OBJECTS">
	<g>
		<circle class="st2" cx="250.1" cy="250.4" r="246.4"/>
		<circle class="st3" cx="250.1" cy="250.4" r="190.4"/>
		<g>
			<rect x="12" y="10.7" class="st4" width="478.5" height="478.5"/>
			<polygon class="st5" points="442.3,347.6 444,355.1 451.2,358 444.6,361.9 444.1,369.6 438.4,364.6 430.9,366.5 433.9,359.3 
				429.8,353 437.4,353.6 			"/>
			<polygon class="st6" points="114.7,57.8 120.2,63.1 127.6,61.6 124.2,68.5 128,75.1 120.4,74.1 115.2,79.7 113.9,72.1 107,69 
				113.8,65.3 			"/>
			<polygon class="st6" points="108.1,419.6 110,426.9 117.2,429.5 110.8,433.7 110.6,441.3 104.6,436.5 97.3,438.7 100.1,431.5 
				95.7,425.2 103.4,425.7 			"/>
			<polygon class="st6" points="312.7,45.1 314.1,50.2 319.1,51.9 314.6,54.9 314.5,60.1 310.4,56.8 305.3,58.3 307.2,53.4 
				304.2,48.9 309.5,49.3 			"/>
			<polygon class="st6" points="415.9,150.5 420.3,153.6 425.3,151.7 423.7,156.8 427,161 421.7,161.1 418.8,165.4 417.1,160.4 
				412,159 416.1,155.8 			"/>
			<polygon class="st5" points="47.4,428.1 51.7,431.2 56.7,429.3 55.1,434.4 58.4,438.4 53.2,438.7 50.2,443 48.5,438 43.4,436.6 
				47.7,433.4 			"/>
			<polygon class="st5" points="469.7,162.3 469.3,167.6 473.6,170.8 468.5,172.2 466.8,177.2 463.9,172.8 458.6,172.7 461.9,168.5 
				460.3,163.5 465.3,165.3 			"/>
			<polygon class="st5" points="205.5,22.3 205.3,27.6 209.4,30.8 204.3,32.2 202.6,37.2 199.7,32.9 194.4,32.8 197.7,28.6 
				196.1,23.5 201.1,25.4 			"/>
			<polygon class="st6" points="432.2,416 433.6,421.1 438.5,422.9 434.1,425.8 433.9,431.1 429.8,427.7 424.7,429.2 426.6,424.3 
				423.7,419.9 428.9,420.1 			"/>
			<polygon class="st6" points="19.9,343.4 23.7,347 28.9,345.9 26.6,350.7 29.3,355.3 24,354.5 20.4,358.5 19.5,353.3 14.7,351.1 
				19.4,348.6 			"/>
			
				<ellipse transform="matrix(0.3967 -0.9179 0.9179 0.3967 76.4256 572.2466)" class="st6" cx="473.6" cy="228" rx="4.8" ry="4.8"/>
			
				<ellipse transform="matrix(0.3967 -0.9179 0.9179 0.3967 -181.6223 186.3998)" class="st6" cx="51" cy="231.4" rx="4.8" ry="4.8"/>
			
				<ellipse transform="matrix(0.3967 -0.9179 0.9179 0.3967 -306.2081 386.9229)" class="st6" cx="141.3" cy="426.4" rx="2.3" ry="2.3"/>
			
				<ellipse transform="matrix(0.3967 -0.9179 0.9179 0.3967 -228.6091 568.8642)" class="st6" cx="318.5" cy="458.4" rx="2.3" ry="2.3"/>
			
				<ellipse transform="matrix(0.3967 -0.9179 0.9179 0.3967 -77.3962 156.9283)" class="st6" cx="80.7" cy="137.3" rx="2.3" ry="2.3"/>
			
				<ellipse transform="matrix(0.3967 -0.9179 0.9179 0.3967 72.6969 485.4543)" class="st6" cx="405.7" cy="187.4" rx="2.3" ry="2.3"/>
			
				<ellipse transform="matrix(0.3967 -0.9179 0.9179 0.3967 27.478 226.6571)" class="st5" cx="186.2" cy="92.4" rx="2.3" ry="2.3"/>
			
				<ellipse transform="matrix(0.3967 -0.9179 0.9179 0.3967 144.2911 420.3529)" class="st5" cx="391.9" cy="100.4" rx="2.3" ry="2.3"/>
			
				<ellipse transform="matrix(0.3967 -0.9179 0.9179 0.3967 -113.8749 599.041)" class="st5" cx="398.8" cy="386.2" rx="2.3" ry="2.3"/>
			
				<ellipse transform="matrix(0.3967 -0.9179 0.9179 0.3967 -297.7076 444.4037)" class="st5" cx="189.2" cy="448.7" rx="2.3" ry="2.3"/>
			
				<ellipse transform="matrix(0.3967 -0.9179 0.9179 0.3967 -160.0885 597.4281)" class="st5" cx="374.5" cy="420.5" rx="2.3" ry="2.3"/>
			
				<ellipse transform="matrix(0.3967 -0.9179 0.9179 0.3967 -239.1672 292.7079)" class="st6" cx="103.1" cy="328.3" rx="2.3" ry="2.3"/>
			
				<ellipse transform="matrix(0.3967 -0.9179 0.9179 0.3967 -39.9026 641.9376)" class="st6" cx="468.4" cy="351.3" rx="2.3" ry="2.3"/>
			
				<ellipse transform="matrix(0.3967 -0.9179 0.9179 0.3967 194.4715 411.467)" class="st6" cx="410.3" cy="57.8" rx="2.3" ry="2.3"/>
			
				<ellipse transform="matrix(0.3967 -0.9179 0.9179 0.3967 99.0418 335.6496)" class="st6" cx="304.9" cy="92.5" rx="2.3" ry="2.3"/>
			
				<ellipse transform="matrix(0.3967 -0.9179 0.9179 0.3967 -0.4908 201.5834)" class="st6" cx="153.1" cy="101.2" rx="4.8" ry="4.8"/>
			
				<ellipse transform="matrix(0.3967 -0.9179 0.9179 0.3967 -205.9083 525.8049)" class="st5" cx="297.1" cy="419.6" rx="4.8" ry="4.8"/>
			
				<ellipse transform="matrix(0.3967 -0.9179 0.9179 0.3967 -149.0818 164.9699)" class="st5" cx="51" cy="195.9" rx="4.8" ry="4.8"/>
			
				<ellipse transform="matrix(0.3967 -0.9179 0.9179 0.3967 172.5914 316.0102)" class="st5" cx="326.7" cy="26.7" rx="2.4" ry="2.4"/>
			
				<ellipse transform="matrix(0.3967 -0.9179 0.9179 0.3967 -284.8862 283.7132)" class="st6" cx="73.4" cy="358.6" rx="4.8" ry="4.8"/>
			<g>
				<polygon class="st7" points="95.2,106.4 30,40.6 35.4,35.6 				"/>
			</g>
			<g>
				<polygon class="st7" points="334.6,411 393.7,482.3 387.8,486.8 				"/>
			</g>
			<g>
				<polygon class="st7" points="173.5,61.7 156.6,32.1 163.4,29.1 				"/>
			</g>
			<g>
				<polygon class="st5" points="483,51.2 405.7,113.7 478.1,45.7 				"/>
			</g>
			<g>
				<polygon class="st5" points="114.7,491.5 174,411.7 120.7,495.6 				"/>
			</g>
			<g>
				<polygon class="st5" points="237.9,475.3 245.5,431.1 245.3,475.9 				"/>
			</g>
			<g>
				<polygon class="st5" points="88.7,177.2 30,151.9 33.3,145.2 				"/>
			</g>
			<g>
				<polygon class="st7" points="333.5,103.1 354.5,59.4 360.9,63.1 				"/>
			</g>
			<g>
				<polygon class="st7" points="102.7,379.5 64.3,409.3 60.2,403 				"/>
			</g>
		</g>
	</g>
</g>
<g>
	<g>
		<g>
			<polygon class="st8" points="294.4,256.1 310.4,215.6 253.3,233.9 290,257.6 302.6,296.7 289.3,307.9 324.3,296.6 307,295.3 			
				"/>
			<path class="st6" d="M258.1,236.1c0,0,12.4,5.2,21.5,1.1c9.1-4.1,15.3-9,23.8-4.7l-9.9,23.6l-3.1,1L258.1,236.1z"/>
			<path class="st9" d="M276.8,248.5c0,0,5.8,3.1,10.3-1.9c4.5-5,9.3-5.6,12.2-4.6l-5.8,14l-3.1,1L276.8,248.5z"/>
			<g>
				
					<ellipse transform="matrix(0.1113 -0.9938 0.9938 0.1113 26.9252 504.33)" class="st10" cx="295.4" cy="237.1" rx="1.5" ry="1.5"/>
				
					<ellipse transform="matrix(0.1113 -0.9938 0.9938 0.1113 19.6934 504.1284)" class="st10" cx="291.7" cy="241.1" rx="1" ry="1"/>
				
					<ellipse transform="matrix(0.1113 -0.9938 0.9938 0.1113 18.6429 509.7828)" class="st10" cx="294.4" cy="244.5" rx="0.9" ry="0.9"/>
			</g>
			<g>
				<path class="st5" d="M308.7,217.2l-15.2,38.6l-0.1,0.3l0.1,0.3l12.6,39.1l0.2,0.6l0.7,0.1l12.2,1l-25.3,8.2l9.4-7.9l0.5-0.4
					l-0.2-0.6l-12.6-39.1l-0.1-0.3l-0.3-0.2l-34.9-22.5L308.7,217.2 M310.4,215.6l-57.1,18.4l36.7,23.6l12.6,39.1l-13.2,11.2
					l35-11.3l-17.3-1.4l-12.6-39.1L310.4,215.6L310.4,215.6z"/>
			</g>
		</g>
		<g>
			<polygon class="st8" points="205.6,257 189.6,216.4 246.7,234.8 210,258.4 197.4,297.5 210.7,308.7 175.7,297.4 193,296.1 			"/>
			<path class="st6" d="M209.5,257.9l-3.1-1l-9.9-23.6c8.5-4.2,14.7,0.7,23.8,4.7s21.5-1.1,21.5-1.1L209.5,257.9z"/>
			<path class="st9" d="M223.2,249.3c0,0-5.8,3.1-10.3-1.9c-4.5-5-9.3-5.6-12.2-4.6l5.8,14l3.1,1L223.2,249.3z"/>
			<g>
				
					<ellipse transform="matrix(0.9938 -0.1113 0.1113 0.9938 -25.2138 24.2468)" class="st10" cx="204.6" cy="237.9" rx="1.5" ry="1.5"/>
				
					<ellipse transform="matrix(0.9938 -0.1113 0.1113 0.9938 -25.6294 24.6863)" class="st10" cx="208.3" cy="241.9" rx="1" ry="1"/>
				
					<ellipse transform="matrix(0.9938 -0.1113 0.1113 0.9938 -26.0259 24.4141)" class="st10" cx="205.6" cy="245.3" rx="0.9" ry="0.9"/>
			</g>
			<g>
				<path class="st5" d="M191.3,218l53.1,17.1l-34.9,22.5l-0.3,0.2l-0.1,0.3l-12.6,39.1l-0.2,0.6l0.5,0.4l9.4,7.9l-25.3-8.2l12.2-1
					l0.7-0.1l0.2-0.6l12.6-39.1l0.1-0.3l-0.1-0.3L191.3,218 M189.6,216.4l16,40.6L193,296.1l-17.3,1.4l35,11.3l-13.2-11.2l12.6-39.1
					l36.7-23.6L189.6,216.4L189.6,216.4z"/>
			</g>
		</g>
	</g>
	<g>
		<polygon class="st11" points="245.9,224.5 238.2,215.6 237.7,218.8 		"/>
		<polygon class="st11" points="261,215.6 264.2,216.2 255,223.2 		"/>
		<polygon class="st11" points="250.1,222.8 248.1,200.4 252.8,200.7 		"/>
	</g>
</g>
<g>
	<path class="st5" d="M107.3,127.7h4.3v17.5h-3.4l-8-10v10h-4.2v-17.5h3.3l8,10V127.7z"/>
	<path class="st5" d="M118.4,144.3c-1.3-0.7-2.3-1.8-3-3.1c-0.7-1.3-1.1-2.9-1.1-4.8s0.4-3.4,1.1-4.8c0.7-1.3,1.7-2.4,3-3.1
		c1.3-0.7,2.9-1.1,4.7-1.1s3.3,0.4,4.7,1.1c1.3,0.7,2.3,1.8,3,3.1c0.7,1.3,1.1,2.9,1.1,4.8s-0.4,3.4-1.1,4.8c-0.7,1.3-1.7,2.4-3,3.1
		c-1.3,0.7-2.9,1.1-4.6,1.1C121.2,145.4,119.7,145.1,118.4,144.3z M126.1,140.5c0.7-0.9,1.1-2.3,1.1-4.1c0-1.8-0.4-3.1-1.1-4.1
		c-0.8-0.9-1.8-1.4-3.1-1.4c-1.3,0-2.4,0.5-3.1,1.4s-1.1,2.3-1.1,4.1s0.4,3.2,1.1,4.1s1.8,1.4,3.1,1.4S125.4,141.5,126.1,140.5z"/>
	<path class="st5" d="M136.4,143.5c-1.3-1.3-2-3.2-2-5.7v-10.1h4.5V138c0,1.3,0.3,2.2,0.8,2.9c0.6,0.7,1.4,1,2.4,1
		c1.1,0,1.9-0.3,2.4-1c0.6-0.7,0.8-1.6,0.8-2.9v-10.3h4.5v10.1c0,2.5-0.7,4.4-2,5.6c-1.3,1.3-3.3,1.9-5.8,1.9
		C139.6,145.4,137.7,144.8,136.4,143.5z"/>
	<path class="st5" d="M155.4,144.9c-1.3-0.3-2.3-0.8-3.1-1.4l1.4-3.2c0.8,0.5,1.7,0.9,2.7,1.2c1,0.3,1.9,0.4,2.9,0.4
		c1,0,1.8-0.1,2.3-0.4c0.5-0.3,0.8-0.7,0.8-1.2c0-0.4-0.2-0.8-0.7-1.1c-0.5-0.3-1.4-0.6-2.7-0.8c-1.6-0.3-2.9-0.8-3.8-1.2
		c-0.9-0.5-1.6-1-1.9-1.7c-0.4-0.6-0.6-1.4-0.6-2.4c0-1.1,0.3-2,0.9-2.9c0.6-0.9,1.5-1.5,2.6-2s2.4-0.7,3.8-0.7
		c1.3,0,2.5,0.2,3.7,0.5c1.2,0.4,2.1,0.8,2.8,1.4l-1.4,3.2c-1.6-1.1-3.3-1.6-5-1.6c-0.8,0-1.5,0.2-2,0.5c-0.5,0.3-0.8,0.7-0.8,1.3
		c0,0.3,0.1,0.6,0.3,0.8c0.2,0.2,0.5,0.4,1,0.6c0.5,0.2,1.2,0.4,2.2,0.6c1.6,0.3,2.8,0.8,3.8,1.3c0.9,0.5,1.6,1.1,1.9,1.7
		s0.6,1.4,0.6,2.3c0,1.7-0.7,3.1-2,4c-1.3,1-3.2,1.5-5.6,1.5C158,145.4,156.7,145.3,155.4,144.9z"/>
	<path class="st5" d="M189.9,145.2l-1.6-3.6h-7.7l-1.6,3.6h-4.6l8.2-17.5h3.6l8.2,17.5H189.9z M182.1,138.1h4.8l-2.4-5.6
		L182.1,138.1z"/>
	<path class="st5" d="M206.5,127.7h4.6l-8,17.5h-3.6l-8-17.5h4.7l5.1,11.8L206.5,127.7z"/>
	<path class="st5" d="M215.3,144.3c-1.3-0.7-2.3-1.8-3-3.1c-0.7-1.3-1.1-2.9-1.1-4.8s0.4-3.4,1.1-4.8c0.7-1.3,1.7-2.4,3-3.1
		c1.3-0.7,2.9-1.1,4.7-1.1s3.3,0.4,4.7,1.1c1.3,0.7,2.3,1.8,3,3.1c0.7,1.3,1.1,2.9,1.1,4.8s-0.4,3.4-1.1,4.8c-0.7,1.3-1.7,2.4-3,3.1
		c-1.3,0.7-2.9,1.1-4.6,1.1C218.1,145.4,216.6,145.1,215.3,144.3z M223,140.5c0.7-0.9,1.1-2.3,1.1-4.1c0-1.8-0.4-3.1-1.1-4.1
		c-0.8-0.9-1.8-1.4-3.1-1.4c-1.3,0-2.4,0.5-3.1,1.4s-1.1,2.3-1.1,4.1s0.4,3.2,1.1,4.1s1.8,1.4,3.1,1.4S222.3,141.5,223,140.5z"/>
	<path class="st5" d="M242.7,127.7h4.3v17.5h-3.4l-8-10v10h-4.2v-17.5h3.3l8,10V127.7z"/>
	<path class="st5" d="M252.6,144.9c-1.3-0.3-2.3-0.8-3.1-1.4l1.4-3.2c0.8,0.5,1.7,0.9,2.7,1.2c1,0.3,1.9,0.4,2.9,0.4
		c1,0,1.8-0.1,2.3-0.4c0.5-0.3,0.8-0.7,0.8-1.2c0-0.4-0.2-0.8-0.7-1.1c-0.5-0.3-1.4-0.6-2.7-0.8c-1.6-0.3-2.9-0.8-3.8-1.2
		c-0.9-0.5-1.6-1-2-1.7c-0.4-0.6-0.6-1.4-0.6-2.4c0-1.1,0.3-2,0.9-2.9c0.6-0.9,1.5-1.5,2.6-2s2.4-0.7,3.8-0.7c1.3,0,2.5,0.2,3.7,0.5
		s2.1,0.8,2.8,1.4l-1.4,3.2c-1.6-1.1-3.3-1.6-5-1.6c-0.8,0-1.5,0.2-2,0.5c-0.5,0.3-0.8,0.7-0.8,1.3c0,0.3,0.1,0.6,0.3,0.8
		s0.5,0.4,1,0.6c0.5,0.2,1.2,0.4,2.2,0.6c1.6,0.3,2.8,0.8,3.8,1.3s1.6,1.1,1.9,1.7s0.6,1.4,0.6,2.3c0,1.7-0.7,3.1-2,4
		c-1.3,1-3.2,1.5-5.6,1.5C255.2,145.4,253.9,145.3,252.6,144.9z"/>
	<path class="st5" d="M287.9,137.7c0.5,0.7,0.8,1.6,0.8,2.7c0,1-0.3,1.8-0.8,2.5s-1.2,1.3-2.2,1.7c-0.9,0.4-2,0.6-3.3,0.6h-8.7
		v-17.5h8.5c1.8,0,3.3,0.4,4.4,1.2c1.1,0.8,1.6,1.9,1.6,3.3c0,0.9-0.2,1.7-0.7,2.4c-0.5,0.7-1.2,1.2-2,1.5
		C286.6,136.4,287.3,137,287.9,137.7z M278.2,134.6h3.3c0.9,0,1.5-0.1,1.9-0.4c0.4-0.3,0.6-0.7,0.6-1.3c0-0.6-0.2-1.1-0.6-1.3
		c-0.4-0.3-1-0.4-1.9-0.4h-3.3V134.6z M283.9,141.3c0.4-0.3,0.6-0.8,0.6-1.4c0-0.7-0.2-1.1-0.6-1.4c-0.4-0.3-1-0.4-1.9-0.4h-3.7v3.7
		h3.7C282.8,141.7,283.5,141.6,283.9,141.3z"/>
	<path class="st5" d="M291,145.2v-17.5h4.6v17.5H291z"/>
	<path class="st5" d="M298.8,145.2v-17.5h12.4v3.5h-8v3.3h7.5v3.5h-7.5v3.6h8v3.5H298.8z"/>
	<path class="st5" d="M325,127.7h4.3v17.5h-3.4l-8-10v10h-4.2v-17.5h3.3l8,10V127.7z"/>
	<path class="st5" d="M355.3,145.2h-5l-3-5.6c-0.4-0.6-1-1-1.8-1H344v6.6h-4.5v-17.5h8.3c2.1,0,3.7,0.5,4.8,1.4s1.6,2.2,1.6,4
		c0,1.3-0.4,2.4-1.1,3.4s-1.8,1.5-3.1,1.9c1,0.2,1.8,0.9,2.4,2L355.3,145.2z M349.3,134.7c0.4-0.3,0.7-0.8,0.7-1.5
		c0-0.7-0.2-1.3-0.7-1.6c-0.4-0.3-1.2-0.5-2.2-0.5H344v4.1h3.2C348.2,135.2,348.9,135.1,349.3,134.7z"/>
	<path class="st5" d="M357.1,145.2v-17.5h12.4v3.5h-8v3.3h7.5v3.5h-7.5v3.6h8v3.5H357.1z"/>
	<path class="st5" d="M384,144.8c-0.9,0.3-1.9,0.5-3,0.6l-0.1,0.8h0.2c0.7,0,1.2,0.2,1.6,0.5c0.4,0.3,0.6,0.7,0.6,1.3
		c0,0.7-0.3,1.2-0.9,1.6c-0.6,0.4-1.5,0.6-2.6,0.6c-0.3,0-0.7,0-1.2-0.1c-0.4-0.1-0.8-0.2-1.2-0.3l0.2-1.6c0.8,0.2,1.5,0.3,2,0.3
		c0.7,0,1-0.2,1-0.5c0-0.3-0.3-0.4-0.8-0.4c-0.2,0-0.5,0-0.8,0.1l-0.5-0.5l0.2-1.7c-1.5-0.2-2.8-0.7-3.9-1.5
		c-1.1-0.8-1.9-1.8-2.5-3.1c-0.6-1.3-0.9-2.7-0.9-4.3c0-1.8,0.4-3.4,1.1-4.7c0.7-1.3,1.8-2.4,3.1-3.1s2.9-1.1,4.8-1.1
		c1.1,0,2.2,0.2,3.3,0.5c1.1,0.3,1.9,0.8,2.6,1.4l-1.4,3.2c-1.4-1-2.9-1.5-4.4-1.5c-1.4,0-2.5,0.4-3.3,1.3c-0.8,0.9-1.1,2.2-1.1,4
		s0.4,3.1,1.1,4c0.8,0.9,1.8,1.4,3.3,1.4c1.5,0,3-0.5,4.4-1.5l1.4,3.2C385.8,144,385,144.5,384,144.8z"/>
	<path class="st5" d="M390.6,143.5c-1.3-1.3-2-3.2-2-5.7v-10.1h4.5V138c0,1.3,0.3,2.2,0.8,2.9c0.6,0.7,1.4,1,2.4,1s1.9-0.3,2.4-1
		c0.6-0.7,0.8-1.6,0.8-2.9v-10.3h4.5v10.1c0,2.5-0.7,4.4-2,5.6c-1.3,1.3-3.3,1.9-5.8,1.9C393.9,145.4,392,144.8,390.6,143.5z"/>
	<path class="st5" d="M155.1,157.5h4.6l-8,17.5h-3.6l-8-17.5h4.7l5.1,11.8L155.1,157.5z"/>
	<path class="st5" d="M163.9,174.1c-1.3-0.7-2.3-1.8-3-3.1c-0.7-1.3-1.1-2.9-1.1-4.8s0.4-3.4,1.1-4.8c0.7-1.3,1.7-2.4,3-3.1
		c1.3-0.7,2.9-1.1,4.7-1.1s3.3,0.4,4.7,1.1c1.3,0.7,2.3,1.8,3,3.1c0.7,1.3,1.1,2.9,1.1,4.8s-0.4,3.4-1.1,4.8c-0.7,1.3-1.7,2.4-3,3.1
		c-1.3,0.7-2.9,1.1-4.6,1.1C166.8,175.2,165.2,174.9,163.9,174.1z M171.7,170.3c0.7-0.9,1.1-2.3,1.1-4.1c0-1.8-0.4-3.1-1.1-4.1
		c-0.8-0.9-1.8-1.4-3.1-1.4c-1.3,0-2.4,0.5-3.1,1.4s-1.1,2.3-1.1,4.1s0.4,3.2,1.1,4.1s1.8,1.4,3.1,1.4S170.9,171.3,171.7,170.3z"/>
	<path class="st5" d="M183,175v-13.8h-5.2v-3.7h15.1v3.7h-5.2V175H183z"/>
	<path class="st5" d="M210.5,175h-5l-3-5.6c-0.4-0.6-1-1-1.8-1h-1.4v6.6h-4.5v-17.5h8.3c2.1,0,3.7,0.5,4.8,1.4s1.6,2.2,1.6,4
		c0,1.3-0.4,2.4-1.1,3.4c-0.7,0.9-1.8,1.5-3.1,1.9c1,0.2,1.8,0.9,2.4,2L210.5,175z M204.5,164.5c0.4-0.3,0.7-0.8,0.7-1.5
		c0-0.7-0.2-1.3-0.7-1.6c-0.4-0.3-1.2-0.5-2.2-0.5h-3.2v4.1h3.2C203.4,165,204.1,164.9,204.5,164.5z"/>
	<path class="st5" d="M212.3,175v-17.5h12.4v3.5h-8v3.3h7.5v3.5h-7.5v3.6h8v3.5H212.3z"/>
	<path class="st5" d="M234.2,157.5h8.5c1.9,0,3.4,0.5,4.5,1.5c1.1,1,1.6,2.4,1.6,4.1c0,1.7-0.5,3.1-1.6,4.1c-1.1,1-2.6,1.5-4.5,1.5
		h-3.9v6.3h-4.6V157.5z M242.1,165.2c0.8,0,1.5-0.2,1.9-0.5c0.4-0.3,0.6-0.9,0.6-1.6s-0.2-1.3-0.6-1.6c-0.4-0.4-1-0.5-1.9-0.5h-3.3
		v4.3H242.1z"/>
	<path class="st5" d="M262.5,175l-1.6-3.6h-7.7l-1.6,3.6H247l8.2-17.5h3.6L267,175H262.5z M254.7,167.9h4.8l-2.4-5.6L254.7,167.9z"
		/>
	<path class="st5" d="M268.1,175v-17.5h4.6V175H268.1z"/>
	<path class="st5" d="M275.8,175v-17.5h12.4v3.5h-8v3.3h7.5v3.5h-7.5v3.6h8v3.5H275.8z"/>
	<path class="st5" d="M304.8,157.5h3.5V175h-4v-9.2l-3.4,6.3H298l-3.4-6.1l0,9h-4v-17.5h3.6l5.3,10L304.8,157.5z"/>
	<path class="st5" d="M311.6,175v-17.5H324v3.5h-8v3.3h7.5v3.5H316v3.6h8v3.5H311.6z"/>
	<path class="st5" d="M337.7,157.5h4.3V175h-3.4l-8-10v10h-4.2v-17.5h3.3l8,10V157.5z"/>
	<path class="st5" d="M349.1,175v-13.8h-5.2v-3.7H359v3.7h-5.2V175H349.1z"/>
</g>
<path class="st6" d="M379.7,378.7H121c-11.2,0-20.2-9.1-20.2-20.2v0c0-11.2,9.1-20.2,20.2-20.2h258.6c11.2,0,20.2,9.1,20.2,20.2v0
	C399.9,369.7,390.8,378.7,379.7,378.7z"/>
<g class="st12">
	<path d="M138.4,347.1h2.2l-3.9,8.5H135l-3.9-8.5h2.3l2.5,5.7L138.4,347.1z"/>
	<path d="M142.6,355.1c-0.6-0.4-1.1-0.9-1.5-1.5c-0.3-0.7-0.5-1.4-0.5-2.3s0.2-1.6,0.5-2.3c0.3-0.7,0.8-1.2,1.5-1.5
		c0.6-0.4,1.4-0.5,2.3-0.5c0.9,0,1.6,0.2,2.3,0.5c0.6,0.4,1.1,0.9,1.5,1.5s0.5,1.4,0.5,2.3s-0.2,1.6-0.5,2.3
		c-0.3,0.7-0.8,1.2-1.5,1.5c-0.6,0.4-1.4,0.5-2.2,0.5C144,355.6,143.2,355.5,142.6,355.1z M146.4,353.3c0.4-0.5,0.5-1.1,0.5-2
		s-0.2-1.5-0.5-2c-0.4-0.4-0.9-0.7-1.5-0.7c-0.6,0-1.1,0.2-1.5,0.7c-0.4,0.4-0.5,1.1-0.5,2s0.2,1.5,0.5,2c0.4,0.4,0.9,0.7,1.5,0.7
		C145.5,353.9,146,353.7,146.4,353.3z"/>
	<path d="M151.3,354.7c-0.6-0.6-1-1.5-1-2.7v-4.9h2.2v5c0,0.6,0.1,1.1,0.4,1.4s0.7,0.5,1.2,0.5c0.5,0,0.9-0.2,1.2-0.5
		s0.4-0.8,0.4-1.4v-5h2.2v4.9c0,1.2-0.3,2.1-1,2.7s-1.6,0.9-2.8,0.9C152.9,355.6,151.9,355.3,151.3,354.7z"/>
	<path d="M160.5,355.4c-0.6-0.2-1.1-0.4-1.5-0.7l0.7-1.6c0.4,0.3,0.8,0.5,1.3,0.6c0.5,0.1,0.9,0.2,1.4,0.2c0.5,0,0.8-0.1,1.1-0.2
		s0.4-0.3,0.4-0.6c0-0.2-0.1-0.4-0.3-0.5s-0.7-0.3-1.3-0.4c-0.8-0.2-1.4-0.4-1.9-0.6c-0.4-0.2-0.8-0.5-0.9-0.8
		c-0.2-0.3-0.3-0.7-0.3-1.2c0-0.5,0.1-1,0.4-1.4s0.7-0.7,1.2-1c0.5-0.2,1.1-0.4,1.8-0.4c0.6,0,1.2,0.1,1.8,0.3
		c0.6,0.2,1,0.4,1.3,0.7l-0.7,1.6c-0.8-0.5-1.6-0.8-2.4-0.8c-0.4,0-0.7,0.1-1,0.2c-0.2,0.2-0.4,0.4-0.4,0.6c0,0.2,0,0.3,0.1,0.4
		s0.3,0.2,0.5,0.3s0.6,0.2,1.1,0.3c0.8,0.2,1.4,0.4,1.8,0.6c0.4,0.2,0.8,0.5,0.9,0.8c0.2,0.3,0.3,0.7,0.3,1.1c0,0.8-0.3,1.5-1,1.9
		c-0.6,0.5-1.5,0.7-2.7,0.7C161.8,355.6,161.1,355.6,160.5,355.4z"/>
	<path d="M170.7,347.1h4.1c0.9,0,1.7,0.2,2.2,0.7s0.8,1.1,0.8,2c0,0.8-0.3,1.5-0.8,2c-0.5,0.5-1.3,0.7-2.2,0.7h-1.9v3.1h-2.2V347.1z
		 M174.5,350.8c0.4,0,0.7-0.1,0.9-0.3c0.2-0.2,0.3-0.4,0.3-0.8c0-0.4-0.1-0.6-0.3-0.8c-0.2-0.2-0.5-0.3-0.9-0.3h-1.6v2.1H174.5z"/>
	<path d="M180.7,355.1c-0.6-0.4-1.1-0.9-1.5-1.5c-0.3-0.7-0.5-1.4-0.5-2.3s0.2-1.6,0.5-2.3c0.3-0.7,0.8-1.2,1.5-1.5
		c0.6-0.4,1.4-0.5,2.3-0.5c0.9,0,1.6,0.2,2.3,0.5c0.6,0.4,1.1,0.9,1.5,1.5s0.5,1.4,0.5,2.3s-0.2,1.6-0.5,2.3
		c-0.3,0.7-0.8,1.2-1.5,1.5c-0.6,0.4-1.4,0.5-2.2,0.5C182,355.6,181.3,355.5,180.7,355.1z M184.4,353.3c0.4-0.5,0.5-1.1,0.5-2
		s-0.2-1.5-0.5-2c-0.4-0.4-0.9-0.7-1.5-0.7c-0.6,0-1.1,0.2-1.5,0.7c-0.4,0.4-0.5,1.1-0.5,2s0.2,1.5,0.5,2c0.4,0.4,0.9,0.7,1.5,0.7
		C183.5,353.9,184,353.7,184.4,353.3z"/>
	<path d="M189.3,354.7c-0.6-0.6-1-1.5-1-2.7v-4.9h2.2v5c0,0.6,0.1,1.1,0.4,1.4s0.7,0.5,1.2,0.5c0.5,0,0.9-0.2,1.2-0.5
		s0.4-0.8,0.4-1.4v-5h2.2v4.9c0,1.2-0.3,2.1-1,2.7s-1.6,0.9-2.8,0.9C190.9,355.6,190,355.3,189.3,354.7z"/>
	<path d="M203.6,347.1h2.2l-3.9,8.5h-1.8l-3.9-8.5h2.3l2.5,5.7L203.6,347.1z"/>
	<path d="M206.3,355.5v-8.5h6v1.7h-3.9v1.6h3.6v1.7h-3.6v1.8h3.9v1.7H206.3z"/>
	<path d="M215.7,353.8h3.9v1.7h-6.4v-1.6l3.8-5.1h-3.8v-1.7h6.2v1.6L215.7,353.8z"/>
	<path d="M231.1,347.1h1.7v8.5h-1.9v-4.4l-1.6,3h-1.4l-1.6-3l0,4.4h-1.9v-8.5h1.7l2.5,4.8L231.1,347.1z"/>
	<path d="M240.8,355.5l-0.8-1.8h-3.7l-0.8,1.8h-2.2l3.9-8.5h1.8l4,8.5H240.8z M237,352.1h2.3l-1.2-2.7L237,352.1z"/>
	<path d="M243.5,355.5v-8.5h2.2v8.5H243.5z"/>
	<path d="M252.8,347.1h2.1v8.5h-1.6l-3.9-4.8v4.8h-2.1v-8.5h1.6l3.9,4.8V347.1z"/>
	<path d="M258.3,355.5v-6.7h-2.5v-1.8h7.3v1.8h-2.5v6.7H258.3z"/>
	<path d="M263.9,355.5v-8.5h6v1.7h-3.9v1.6h3.6v1.7h-3.6v1.8h3.9v1.7H263.9z"/>
	<path d="M276.6,347.1h2.1v8.5H277l-3.9-4.8v4.8h-2.1v-8.5h1.6l3.9,4.8V347.1z"/>
	<path d="M286.6,355.5l-0.8-1.8h-3.7l-0.8,1.8h-2.2l3.9-8.5h1.8l4,8.5H286.6z M282.8,352.1h2.3l-1.2-2.7L282.8,352.1z"/>
	<path d="M294.8,347.1h2.1v8.5h-1.6l-3.9-4.8v4.8h-2.1v-8.5h1.6l3.9,4.8V347.1z"/>
	<path d="M300.3,355.5v-6.7h-2.5v-1.8h7.3v1.8h-2.5v6.7H300.3z"/>
	<path d="M309.4,347.1h4.1c0.9,0,1.7,0.2,2.2,0.7c0.5,0.5,0.8,1.1,0.8,2c0,0.8-0.3,1.5-0.8,2c-0.5,0.5-1.3,0.7-2.2,0.7h-1.9v3.1
		h-2.2V347.1z M313.2,350.8c0.4,0,0.7-0.1,0.9-0.3c0.2-0.2,0.3-0.4,0.3-0.8c0-0.4-0.1-0.6-0.3-0.8s-0.5-0.3-0.9-0.3h-1.6v2.1H313.2z
		"/>
	<path d="M325.1,355.5h-2.4l-1.5-2.7c-0.2-0.3-0.5-0.5-0.9-0.5h-0.7v3.2h-2.2v-8.5h4c1,0,1.8,0.2,2.3,0.7c0.5,0.4,0.8,1.1,0.8,1.9
		c0,0.6-0.2,1.2-0.5,1.6c-0.4,0.4-0.8,0.7-1.5,0.9c0.5,0.1,0.9,0.4,1.2,0.9L325.1,355.5z M322.3,350.5c0.2-0.2,0.3-0.4,0.3-0.7
		c0-0.4-0.1-0.6-0.3-0.8c-0.2-0.2-0.6-0.2-1-0.2h-1.5v2h1.5C321.7,350.7,322.1,350.6,322.3,350.5z"/>
	<path d="M327.7,355.1c-0.6-0.4-1.1-0.9-1.5-1.5c-0.3-0.7-0.5-1.4-0.5-2.3s0.2-1.6,0.5-2.3c0.3-0.7,0.8-1.2,1.5-1.5
		c0.6-0.4,1.4-0.5,2.3-0.5s1.6,0.2,2.3,0.5c0.6,0.4,1.1,0.9,1.5,1.5s0.5,1.4,0.5,2.3s-0.2,1.6-0.5,2.3c-0.3,0.7-0.8,1.2-1.5,1.5
		c-0.6,0.4-1.4,0.5-2.2,0.5C329.1,355.6,328.4,355.5,327.7,355.1z M331.5,353.3c0.4-0.5,0.5-1.1,0.5-2s-0.2-1.5-0.5-2
		c-0.4-0.4-0.9-0.7-1.5-0.7c-0.6,0-1.1,0.2-1.5,0.7c-0.4,0.4-0.5,1.1-0.5,2s0.2,1.5,0.5,2c0.4,0.4,0.9,0.7,1.5,0.7
		C330.6,353.9,331.1,353.7,331.5,353.3z"/>
	<path d="M335.5,355.5v-8.5h5.9v1.7h-3.7v1.6h3.5v1.7h-3.5v3.4H335.5z"/>
	<path d="M342.5,355.5v-8.5h2.2v8.5H342.5z"/>
	<path d="M348.1,355.5v-6.7h-2.5v-1.8h7.3v1.8h-2.5v6.7H348.1z"/>
	<path d="M353.8,355.5v-8.5h6v1.7h-3.9v1.6h3.6v1.7h-3.6v1.8h3.9v1.7H353.8z"/>
	<path d="M363.2,353.8h3.9v1.7h-6.4v-1.6l3.8-5.1h-3.8v-1.7h6.2v1.6L363.2,353.8z"/>
	<path d="M118.3,361.5h3.4c0.9,0,1.7,0.2,2.4,0.5c0.7,0.3,1.2,0.8,1.6,1.5s0.5,1.4,0.5,2.3c0,0.9-0.2,1.6-0.5,2.3s-0.9,1.1-1.5,1.5
		c-0.7,0.3-1.5,0.5-2.4,0.5h-3.4V361.5z M121.6,368.2c0.8,0,1.5-0.2,1.9-0.6c0.4-0.4,0.6-1,0.6-1.8c0-0.8-0.2-1.4-0.6-1.8
		c-0.4-0.4-1-0.6-1.9-0.6h-1.1v4.9H121.6z"/>
	<path d="M127.6,369.9v-8.5h6v1.7h-3.9v1.6h3.6v1.7h-3.6v1.8h3.9v1.7H127.6z"/>
	<path d="M135.8,369.8c-0.6-0.2-1.1-0.4-1.5-0.7l0.7-1.6c0.4,0.3,0.8,0.5,1.3,0.6c0.5,0.1,0.9,0.2,1.4,0.2c0.5,0,0.8-0.1,1.1-0.2
		s0.4-0.3,0.4-0.6c0-0.2-0.1-0.4-0.3-0.5c-0.2-0.1-0.7-0.3-1.3-0.4c-0.8-0.2-1.4-0.4-1.9-0.6c-0.4-0.2-0.8-0.5-0.9-0.8
		c-0.2-0.3-0.3-0.7-0.3-1.2c0-0.5,0.1-1,0.4-1.4s0.7-0.7,1.2-1c0.5-0.2,1.1-0.4,1.8-0.4c0.6,0,1.2,0.1,1.8,0.3
		c0.6,0.2,1,0.4,1.3,0.7l-0.7,1.6c-0.8-0.5-1.6-0.8-2.4-0.8c-0.4,0-0.7,0.1-1,0.2c-0.2,0.2-0.4,0.4-0.4,0.6c0,0.2,0,0.3,0.1,0.4
		c0.1,0.1,0.3,0.2,0.5,0.3s0.6,0.2,1.1,0.3c0.8,0.2,1.4,0.4,1.8,0.6c0.4,0.2,0.8,0.5,0.9,0.8c0.2,0.3,0.3,0.7,0.3,1.1
		c0,0.8-0.3,1.5-1,2s-1.5,0.7-2.7,0.7C137,370,136.4,370,135.8,369.8z"/>
	<path d="M152.5,369.9l-0.8-1.8H148l-0.8,1.8H145l3.9-8.5h1.8l4,8.5H152.5z M148.7,366.5h2.3l-1.2-2.7L148.7,366.5z"/>
	<path d="M160.5,361.5h2.2l-3.9,8.5h-1.8l-3.9-8.5h2.3l2.5,5.7L160.5,361.5z"/>
	<path d="M168.8,369.9l-0.8-1.8h-3.7l-0.8,1.8h-2.2l3.9-8.5h1.8l4,8.5H168.8z M165,366.5h2.3l-1.2-2.7L165,366.5z"/>
	<path d="M177,361.5h2.1v8.5h-1.6l-3.9-4.8v4.8h-2.1v-8.5h1.6l3.9,4.8V361.5z"/>
	<path d="M182.5,369.9v-6.7h-2.5v-1.8h7.3v1.8h-2.5v6.7H182.5z"/>
	<path d="M193.5,369.9l-0.8-1.8H189l-0.8,1.8H186l3.9-8.5h1.8l4,8.5H193.5z M189.7,366.5h2.3l-1.2-2.7L189.7,366.5z"/>
	<path d="M203.4,365.2v4.2c-0.4,0.2-0.9,0.4-1.5,0.5c-0.6,0.1-1.1,0.2-1.7,0.2c-0.9,0-1.7-0.2-2.4-0.5c-0.7-0.3-1.2-0.8-1.6-1.5
		c-0.4-0.7-0.5-1.4-0.5-2.3c0-0.9,0.2-1.6,0.5-2.3c0.4-0.7,0.9-1.2,1.5-1.5c0.7-0.4,1.4-0.5,2.3-0.5c0.6,0,1.2,0.1,1.7,0.2
		c0.5,0.2,1,0.4,1.3,0.7l-0.7,1.6c-0.4-0.3-0.8-0.4-1.1-0.6c-0.4-0.1-0.7-0.2-1.2-0.2c-0.8,0-1.3,0.2-1.7,0.6
		c-0.4,0.4-0.6,1.1-0.6,2c0,0.9,0.2,1.6,0.6,2c0.4,0.4,1,0.7,1.8,0.7c0.4,0,0.8,0,1.1-0.1v-1.6H200v-1.5H203.4z"/>
	<path d="M204.9,369.9v-8.5h6v1.7H207v1.6h3.6v1.7H207v1.8h3.9v1.7H204.9z"/>
	<path d="M213.1,369.8c-0.6-0.2-1.1-0.4-1.5-0.7l0.7-1.6c0.4,0.3,0.8,0.5,1.3,0.6c0.5,0.1,0.9,0.2,1.4,0.2c0.5,0,0.8-0.1,1.1-0.2
		s0.4-0.3,0.4-0.6c0-0.2-0.1-0.4-0.3-0.5c-0.2-0.1-0.7-0.3-1.3-0.4c-0.8-0.2-1.4-0.4-1.9-0.6c-0.4-0.2-0.8-0.5-0.9-0.8
		c-0.2-0.3-0.3-0.7-0.3-1.2c0-0.5,0.1-1,0.4-1.4s0.7-0.7,1.2-1c0.5-0.2,1.1-0.4,1.8-0.4c0.6,0,1.2,0.1,1.8,0.3
		c0.6,0.2,1,0.4,1.3,0.7l-0.7,1.6c-0.8-0.5-1.6-0.8-2.4-0.8c-0.4,0-0.7,0.1-1,0.2c-0.2,0.2-0.4,0.4-0.4,0.6c0,0.2,0,0.3,0.1,0.4
		c0.1,0.1,0.3,0.2,0.5,0.3s0.6,0.2,1.1,0.3c0.8,0.2,1.4,0.4,1.8,0.6c0.4,0.2,0.8,0.5,0.9,0.8c0.2,0.3,0.3,0.7,0.3,1.1
		c0,0.8-0.3,1.5-1,2s-1.5,0.7-2.7,0.7C214.3,370,213.7,370,213.1,369.8z"/>
	<path d="M223.3,369.9v-8.5h6v1.7h-3.9v1.6h3.6v1.7h-3.6v1.8h3.9v1.7H223.3z"/>
	<path d="M235,365.7l3.2,4.3h-2.6l-1.9-2.7l-1.9,2.7h-2.6l3.2-4.3l-3.2-4.2h2.6l1.8,2.6l1.9-2.6h2.6L235,365.7z"/>
	<path d="M240.2,369.5c-0.7-0.4-1.2-0.9-1.5-1.5c-0.3-0.7-0.5-1.4-0.5-2.3c0-0.9,0.2-1.6,0.5-2.3c0.3-0.7,0.8-1.2,1.5-1.5
		c0.7-0.4,1.4-0.5,2.3-0.5c0.6,0,1.1,0.1,1.6,0.3s0.9,0.4,1.3,0.7l-0.7,1.6c-0.7-0.5-1.4-0.7-2.1-0.7c-0.7,0-1.2,0.2-1.6,0.6
		c-0.4,0.4-0.5,1.1-0.5,1.9c0,0.9,0.2,1.5,0.5,1.9c0.4,0.4,0.9,0.7,1.6,0.7c0.7,0,1.4-0.2,2.1-0.7l0.7,1.6c-0.3,0.3-0.8,0.5-1.3,0.7
		s-1.1,0.3-1.6,0.3C241.6,370,240.8,369.9,240.2,369.5z"/>
	<path d="M246.5,369.9v-8.5h2.2v6.7h3.6v1.8H246.5z"/>
	<path d="M253.9,369.1c-0.6-0.6-1-1.5-1-2.7v-4.9h2.2v5c0,0.6,0.1,1.1,0.4,1.4c0.3,0.3,0.7,0.5,1.2,0.5s0.9-0.2,1.2-0.5
		c0.3-0.3,0.4-0.8,0.4-1.4v-5h2.2v4.9c0,1.2-0.3,2.1-1,2.7s-1.6,0.9-2.8,0.9C255.5,370,254.5,369.7,253.9,369.1z"/>
	<path d="M263.1,369.8c-0.6-0.2-1.1-0.4-1.5-0.7l0.7-1.6c0.4,0.3,0.8,0.5,1.3,0.6s0.9,0.2,1.4,0.2c0.5,0,0.8-0.1,1.1-0.2
		s0.4-0.3,0.4-0.6c0-0.2-0.1-0.4-0.3-0.5c-0.2-0.1-0.7-0.3-1.3-0.4c-0.8-0.2-1.4-0.4-1.9-0.6c-0.4-0.2-0.8-0.5-0.9-0.8
		c-0.2-0.3-0.3-0.7-0.3-1.2c0-0.5,0.1-1,0.4-1.4s0.7-0.7,1.2-1s1.1-0.4,1.8-0.4c0.6,0,1.2,0.1,1.8,0.3c0.6,0.2,1,0.4,1.3,0.7
		l-0.7,1.6c-0.8-0.5-1.6-0.8-2.4-0.8c-0.4,0-0.7,0.1-1,0.2c-0.2,0.2-0.4,0.4-0.4,0.6c0,0.2,0,0.3,0.1,0.4c0.1,0.1,0.3,0.2,0.5,0.3
		c0.2,0.1,0.6,0.2,1.1,0.3c0.8,0.2,1.4,0.4,1.8,0.6c0.4,0.2,0.8,0.5,0.9,0.8c0.2,0.3,0.3,0.7,0.3,1.1c0,0.8-0.3,1.5-1,2
		c-0.6,0.5-1.5,0.7-2.7,0.7C264.3,370,263.7,370,263.1,369.8z"/>
	<path d="M269.9,369.9v-8.5h2.2v8.5H269.9z"/>
	<path d="M273.6,369.9v-8.5h5.9v1.7h-3.7v1.6h3.5v1.7h-3.5v3.4H273.6z"/>
	<path d="M281.6,369.8c-0.6-0.2-1.1-0.4-1.5-0.7l0.7-1.6c0.4,0.3,0.8,0.5,1.3,0.6s0.9,0.2,1.4,0.2c0.5,0,0.8-0.1,1.1-0.2
		s0.4-0.3,0.4-0.6c0-0.2-0.1-0.4-0.3-0.5c-0.2-0.1-0.7-0.3-1.3-0.4c-0.8-0.2-1.4-0.4-1.9-0.6c-0.4-0.2-0.8-0.5-0.9-0.8
		c-0.2-0.3-0.3-0.7-0.3-1.2c0-0.5,0.1-1,0.4-1.4s0.7-0.7,1.2-1s1.1-0.4,1.8-0.4c0.6,0,1.2,0.1,1.8,0.3c0.6,0.2,1,0.4,1.3,0.7
		l-0.7,1.6c-0.8-0.5-1.6-0.8-2.4-0.8c-0.4,0-0.7,0.1-1,0.2c-0.2,0.2-0.4,0.4-0.4,0.6c0,0.2,0,0.3,0.1,0.4c0.1,0.1,0.3,0.2,0.5,0.3
		c0.2,0.1,0.6,0.2,1.1,0.3c0.8,0.2,1.4,0.4,1.8,0.6c0.4,0.2,0.8,0.5,0.9,0.8c0.2,0.3,0.3,0.7,0.3,1.1c0,0.8-0.3,1.5-1,2
		c-0.6,0.5-1.5,0.7-2.7,0.7C282.8,370,282.2,370,281.6,369.8z"/>
	<path d="M291.8,361.5h3.4c0.9,0,1.7,0.2,2.4,0.5s1.2,0.8,1.6,1.5c0.4,0.6,0.5,1.4,0.5,2.3c0,0.9-0.2,1.6-0.5,2.3
		c-0.4,0.6-0.9,1.1-1.5,1.5c-0.7,0.3-1.5,0.5-2.4,0.5h-3.4V361.5z M295.1,368.2c0.8,0,1.5-0.2,1.9-0.6c0.4-0.4,0.6-1,0.6-1.8
		c0-0.8-0.2-1.4-0.6-1.8c-0.4-0.4-1-0.6-1.9-0.6H294v4.9H295.1z"/>
	<path d="M301.1,369.9v-8.5h6v1.7h-3.9v1.6h3.6v1.7h-3.6v1.8h3.9v1.7H301.1z"/>
	<path d="M311.7,361.5h3.4c0.9,0,1.7,0.2,2.4,0.5s1.2,0.8,1.6,1.5c0.4,0.6,0.5,1.4,0.5,2.3c0,0.9-0.2,1.6-0.5,2.3
		c-0.4,0.6-0.9,1.1-1.5,1.5c-0.7,0.3-1.5,0.5-2.4,0.5h-3.4V361.5z M315,368.2c0.8,0,1.5-0.2,1.9-0.6c0.4-0.4,0.6-1,0.6-1.8
		c0-0.8-0.2-1.4-0.6-1.8c-0.4-0.4-1-0.6-1.9-0.6h-1.1v4.9H315z"/>
	<path d="M328.6,369.9h-2.4l-1.5-2.7c-0.2-0.3-0.5-0.5-0.9-0.5h-0.7v3.2H321v-8.5h4c1,0,1.8,0.2,2.3,0.7c0.5,0.4,0.8,1.1,0.8,1.9
		c0,0.6-0.2,1.2-0.5,1.6c-0.4,0.4-0.8,0.7-1.5,0.9c0.5,0.1,0.9,0.4,1.2,0.9L328.6,369.9z M325.7,364.9c0.2-0.2,0.3-0.4,0.3-0.7
		c0-0.4-0.1-0.6-0.3-0.8c-0.2-0.2-0.6-0.2-1-0.2h-1.5v2h1.5C325.1,365.1,325.5,365,325.7,364.9z"/>
	<path d="M329.4,369.9v-8.5h2.2v8.5H329.4z"/>
	<path d="M338.7,361.5h2.1v8.5h-1.6l-3.9-4.8v4.8h-2.1v-8.5h1.6l3.9,4.8V361.5z"/>
	<path d="M350.5,369.9h-2.6l-3.4-3.8v3.8h-2.2v-8.5h2.2v3.6l3.3-3.6h2.6l-3.7,4L350.5,369.9z"/>
	<path d="M351.7,369.8c-0.6-0.2-1.1-0.4-1.5-0.7l0.7-1.6c0.4,0.3,0.8,0.5,1.3,0.6s0.9,0.2,1.4,0.2c0.5,0,0.8-0.1,1.1-0.2
		s0.4-0.3,0.4-0.6c0-0.2-0.1-0.4-0.3-0.5c-0.2-0.1-0.7-0.3-1.3-0.4c-0.8-0.2-1.4-0.4-1.9-0.6c-0.4-0.2-0.8-0.5-0.9-0.8
		c-0.2-0.3-0.3-0.7-0.3-1.2c0-0.5,0.1-1,0.4-1.4s0.7-0.7,1.2-1s1.1-0.4,1.8-0.4c0.6,0,1.2,0.1,1.8,0.3c0.6,0.2,1,0.4,1.3,0.7
		l-0.7,1.6c-0.8-0.5-1.6-0.8-2.4-0.8c-0.4,0-0.7,0.1-1,0.2c-0.2,0.2-0.4,0.4-0.4,0.6c0,0.2,0,0.3,0.1,0.4c0.1,0.1,0.3,0.2,0.5,0.3
		c0.2,0.1,0.6,0.2,1.1,0.3c0.8,0.2,1.4,0.4,1.8,0.6c0.4,0.2,0.8,0.5,0.9,0.8c0.2,0.3,0.3,0.7,0.3,1.1c0,0.8-0.3,1.5-1,2
		c-0.6,0.5-1.5,0.7-2.7,0.7C352.9,370,352.3,370,351.7,369.8z"/>
	<path d="M362.8,369.1c-0.6-0.6-1-1.5-1-2.7v-4.9h2.2v5c0,0.6,0.1,1.1,0.4,1.4c0.3,0.3,0.7,0.5,1.2,0.5s0.9-0.2,1.2-0.5
		c0.3-0.3,0.4-0.8,0.4-1.4v-5h2.2v4.9c0,1.2-0.3,2.1-1,2.7s-1.6,0.9-2.8,0.9C364.4,370,363.4,369.7,362.8,369.1z"/>
	<path d="M370.8,361.5h4.1c0.9,0,1.7,0.2,2.2,0.7c0.5,0.5,0.8,1.1,0.8,2c0,0.8-0.3,1.5-0.8,2c-0.5,0.5-1.3,0.7-2.2,0.7h-1.9v3.1
		h-2.2V361.5z M374.6,365.2c0.4,0,0.7-0.1,0.9-0.3s0.3-0.4,0.3-0.8c0-0.4-0.1-0.6-0.3-0.8s-0.5-0.3-0.9-0.3h-1.6v2.1H374.6z"/>
	<path d="M382.6,367l-0.7-5.5l2.6,0l-0.7,5.5H382.6z M382.1,367.7h2.2v2.2h-2.2V367.7z"/>
</g>
<g>
	<path class="st5" d="M137.5,346.1h2.2l-3.9,8.5h-1.8l-3.9-8.5h2.3l2.5,5.7L137.5,346.1z"/>
	<path class="st5" d="M141.7,354.1c-0.6-0.4-1.1-0.9-1.5-1.5c-0.3-0.7-0.5-1.4-0.5-2.3s0.2-1.6,0.5-2.3c0.3-0.7,0.8-1.2,1.5-1.5
		c0.6-0.4,1.4-0.5,2.3-0.5c0.9,0,1.6,0.2,2.3,0.5c0.6,0.4,1.1,0.9,1.5,1.5s0.5,1.4,0.5,2.3s-0.2,1.6-0.5,2.3
		c-0.3,0.7-0.8,1.2-1.5,1.5c-0.6,0.4-1.4,0.5-2.2,0.5C143.1,354.6,142.4,354.5,141.7,354.1z M145.5,352.3c0.4-0.5,0.5-1.1,0.5-2
		s-0.2-1.5-0.5-2c-0.4-0.4-0.9-0.7-1.5-0.7c-0.6,0-1.1,0.2-1.5,0.7c-0.4,0.4-0.5,1.1-0.5,2s0.2,1.5,0.5,2c0.4,0.4,0.9,0.7,1.5,0.7
		C144.6,353,145.1,352.7,145.5,352.3z"/>
	<path class="st5" d="M150.4,353.7c-0.6-0.6-1-1.5-1-2.7v-4.9h2.2v5c0,0.6,0.1,1.1,0.4,1.4s0.7,0.5,1.2,0.5c0.5,0,0.9-0.2,1.2-0.5
		s0.4-0.8,0.4-1.4v-5h2.2v4.9c0,1.2-0.3,2.1-1,2.7s-1.6,0.9-2.8,0.9C152,354.6,151.1,354.3,150.4,353.7z"/>
	<path class="st5" d="M159.7,354.4c-0.6-0.2-1.1-0.4-1.5-0.7l0.7-1.6c0.4,0.3,0.8,0.5,1.3,0.6c0.5,0.1,0.9,0.2,1.4,0.2
		c0.5,0,0.8-0.1,1.1-0.2s0.4-0.3,0.4-0.6c0-0.2-0.1-0.4-0.3-0.5s-0.7-0.3-1.3-0.4c-0.8-0.2-1.4-0.4-1.9-0.6
		c-0.4-0.2-0.8-0.5-0.9-0.8c-0.2-0.3-0.3-0.7-0.3-1.2c0-0.5,0.1-1,0.4-1.4s0.7-0.7,1.2-1c0.5-0.2,1.1-0.4,1.8-0.4
		c0.6,0,1.2,0.1,1.8,0.3c0.6,0.2,1,0.4,1.3,0.7l-0.7,1.6c-0.8-0.5-1.6-0.8-2.4-0.8c-0.4,0-0.7,0.1-1,0.2c-0.2,0.2-0.4,0.4-0.4,0.6
		c0,0.2,0,0.3,0.1,0.4s0.3,0.2,0.5,0.3s0.6,0.2,1.1,0.3c0.8,0.2,1.4,0.4,1.8,0.6c0.4,0.2,0.8,0.5,0.9,0.8c0.2,0.3,0.3,0.7,0.3,1.1
		c0,0.8-0.3,1.5-1,1.9c-0.6,0.5-1.5,0.7-2.7,0.7C160.9,354.6,160.3,354.6,159.7,354.4z"/>
	<path class="st5" d="M169.9,346.1h4.1c0.9,0,1.7,0.2,2.2,0.7s0.8,1.1,0.8,2c0,0.8-0.3,1.5-0.8,2c-0.5,0.5-1.3,0.7-2.2,0.7h-1.9v3.1
		h-2.2V346.1z M173.7,349.8c0.4,0,0.7-0.1,0.9-0.3c0.2-0.2,0.3-0.4,0.3-0.8c0-0.4-0.1-0.6-0.3-0.8c-0.2-0.2-0.5-0.3-0.9-0.3h-1.6
		v2.1H173.7z"/>
	<path class="st5" d="M179.8,354.1c-0.6-0.4-1.1-0.9-1.5-1.5c-0.3-0.7-0.5-1.4-0.5-2.3s0.2-1.6,0.5-2.3c0.3-0.7,0.8-1.2,1.5-1.5
		c0.6-0.4,1.4-0.5,2.3-0.5c0.9,0,1.6,0.2,2.3,0.5c0.6,0.4,1.1,0.9,1.5,1.5s0.5,1.4,0.5,2.3s-0.2,1.6-0.5,2.3
		c-0.3,0.7-0.8,1.2-1.5,1.5c-0.6,0.4-1.4,0.5-2.2,0.5C181.2,354.6,180.4,354.5,179.8,354.1z M183.5,352.3c0.4-0.5,0.5-1.1,0.5-2
		s-0.2-1.5-0.5-2c-0.4-0.4-0.9-0.7-1.5-0.7c-0.6,0-1.1,0.2-1.5,0.7c-0.4,0.4-0.5,1.1-0.5,2s0.2,1.5,0.5,2c0.4,0.4,0.9,0.7,1.5,0.7
		C182.7,353,183.2,352.7,183.5,352.3z"/>
	<path class="st5" d="M188.5,353.7c-0.6-0.6-1-1.5-1-2.7v-4.9h2.2v5c0,0.6,0.1,1.1,0.4,1.4s0.7,0.5,1.2,0.5c0.5,0,0.9-0.2,1.2-0.5
		s0.4-0.8,0.4-1.4v-5h2.2v4.9c0,1.2-0.3,2.1-1,2.7s-1.6,0.9-2.8,0.9C190,354.6,189.1,354.3,188.5,353.7z"/>
	<path class="st5" d="M202.7,346.1h2.2l-3.9,8.5h-1.8l-3.9-8.5h2.3l2.5,5.7L202.7,346.1z"/>
	<path class="st5" d="M205.4,354.5v-8.5h6v1.7h-3.9v1.6h3.6v1.7h-3.6v1.8h3.9v1.7H205.4z"/>
	<path class="st5" d="M214.9,352.8h3.9v1.7h-6.4v-1.6l3.8-5.1h-3.8v-1.7h6.2v1.6L214.9,352.8z"/>
	<path class="st5" d="M230.3,346.1h1.7v8.5h-1.9v-4.4l-1.6,3H227l-1.6-3l0,4.4h-1.9v-8.5h1.7l2.5,4.8L230.3,346.1z"/>
	<path class="st5" d="M240,354.5l-0.8-1.8h-3.7l-0.8,1.8h-2.2l3.9-8.5h1.8l4,8.5H240z M236.2,351.1h2.3l-1.2-2.7L236.2,351.1z"/>
	<path class="st5" d="M242.7,354.5v-8.5h2.2v8.5H242.7z"/>
	<path class="st5" d="M251.9,346.1h2.1v8.5h-1.6l-3.9-4.8v4.8h-2.1v-8.5h1.6l3.9,4.8V346.1z"/>
	<path class="st5" d="M257.4,354.5v-6.7h-2.5v-1.8h7.3v1.8h-2.5v6.7H257.4z"/>
	<path class="st5" d="M263.1,354.5v-8.5h6v1.7h-3.9v1.6h3.6v1.7h-3.6v1.8h3.9v1.7H263.1z"/>
	<path class="st5" d="M275.7,346.1h2.1v8.5h-1.6l-3.9-4.8v4.8h-2.1v-8.5h1.6l3.9,4.8V346.1z"/>
	<path class="st5" d="M285.8,354.5l-0.8-1.8h-3.7l-0.8,1.8h-2.2l3.9-8.5h1.8l4,8.5H285.8z M282,351.1h2.3l-1.2-2.7L282,351.1z"/>
	<path class="st5" d="M293.9,346.1h2.1v8.5h-1.6l-3.9-4.8v4.8h-2.1v-8.5h1.6l3.9,4.8V346.1z"/>
	<path class="st5" d="M299.4,354.5v-6.7h-2.5v-1.8h7.3v1.8h-2.5v6.7H299.4z"/>
	<path class="st5" d="M308.6,346.1h4.1c0.9,0,1.7,0.2,2.2,0.7c0.5,0.5,0.8,1.1,0.8,2c0,0.8-0.3,1.5-0.8,2c-0.5,0.5-1.3,0.7-2.2,0.7
		h-1.9v3.1h-2.2V346.1z M312.3,349.8c0.4,0,0.7-0.1,0.9-0.3c0.2-0.2,0.3-0.4,0.3-0.8c0-0.4-0.1-0.6-0.3-0.8s-0.5-0.3-0.9-0.3h-1.6
		v2.1H312.3z"/>
	<path class="st5" d="M324.3,354.5h-2.4l-1.5-2.7c-0.2-0.3-0.5-0.5-0.9-0.5h-0.7v3.2h-2.2v-8.5h4c1,0,1.8,0.2,2.3,0.7
		c0.5,0.4,0.8,1.1,0.8,1.9c0,0.6-0.2,1.2-0.5,1.6c-0.4,0.4-0.8,0.7-1.5,0.9c0.5,0.1,0.9,0.4,1.2,0.9L324.3,354.5z M321.4,349.5
		c0.2-0.2,0.3-0.4,0.3-0.7c0-0.4-0.1-0.6-0.3-0.8c-0.2-0.2-0.6-0.2-1-0.2h-1.5v2h1.5C320.8,349.7,321.2,349.6,321.4,349.5z"/>
	<path class="st5" d="M326.9,354.1c-0.6-0.4-1.1-0.9-1.5-1.5c-0.3-0.7-0.5-1.4-0.5-2.3s0.2-1.6,0.5-2.3c0.3-0.7,0.8-1.2,1.5-1.5
		c0.6-0.4,1.4-0.5,2.3-0.5s1.6,0.2,2.3,0.5c0.6,0.4,1.1,0.9,1.5,1.5s0.5,1.4,0.5,2.3s-0.2,1.6-0.5,2.3c-0.3,0.7-0.8,1.2-1.5,1.5
		c-0.6,0.4-1.4,0.5-2.2,0.5C328.3,354.6,327.5,354.5,326.9,354.1z M330.6,352.3c0.4-0.5,0.5-1.1,0.5-2s-0.2-1.5-0.5-2
		c-0.4-0.4-0.9-0.7-1.5-0.7c-0.6,0-1.1,0.2-1.5,0.7c-0.4,0.4-0.5,1.1-0.5,2s0.2,1.5,0.5,2c0.4,0.4,0.9,0.7,1.5,0.7
		C329.8,353,330.3,352.7,330.6,352.3z"/>
	<path class="st5" d="M334.7,354.5v-8.5h5.9v1.7h-3.7v1.6h3.5v1.7h-3.5v3.4H334.7z"/>
	<path class="st5" d="M341.6,354.5v-8.5h2.2v8.5H341.6z"/>
	<path class="st5" d="M347.2,354.5v-6.7h-2.5v-1.8h7.3v1.8h-2.5v6.7H347.2z"/>
	<path class="st5" d="M352.9,354.5v-8.5h6v1.7h-3.9v1.6h3.6v1.7h-3.6v1.8h3.9v1.7H352.9z"/>
	<path class="st5" d="M362.4,352.8h3.9v1.7h-6.4v-1.6l3.8-5.1h-3.8v-1.7h6.2v1.6L362.4,352.8z"/>
	<path class="st5" d="M117.4,360.5h3.4c0.9,0,1.7,0.2,2.4,0.5c0.7,0.3,1.2,0.8,1.6,1.5s0.5,1.4,0.5,2.3c0,0.9-0.2,1.6-0.5,2.3
		s-0.9,1.1-1.5,1.5c-0.7,0.3-1.5,0.5-2.4,0.5h-3.4V360.5z M120.7,367.2c0.8,0,1.5-0.2,1.9-0.6c0.4-0.4,0.6-1,0.6-1.8
		c0-0.8-0.2-1.4-0.6-1.8c-0.4-0.4-1-0.6-1.9-0.6h-1.1v4.9H120.7z"/>
	<path class="st5" d="M126.7,368.9v-8.5h6v1.7h-3.9v1.6h3.6v1.7h-3.6v1.8h3.9v1.7H126.7z"/>
	<path class="st5" d="M134.9,368.8c-0.6-0.2-1.1-0.4-1.5-0.7l0.7-1.6c0.4,0.3,0.8,0.5,1.3,0.6c0.5,0.1,0.9,0.2,1.4,0.2
		c0.5,0,0.8-0.1,1.1-0.2s0.4-0.3,0.4-0.6c0-0.2-0.1-0.4-0.3-0.5c-0.2-0.1-0.7-0.3-1.3-0.4c-0.8-0.2-1.4-0.4-1.9-0.6
		c-0.4-0.2-0.8-0.5-0.9-0.8c-0.2-0.3-0.3-0.7-0.3-1.2c0-0.5,0.1-1,0.4-1.4s0.7-0.7,1.2-1c0.5-0.2,1.1-0.4,1.8-0.4
		c0.6,0,1.2,0.1,1.8,0.3c0.6,0.2,1,0.4,1.3,0.7l-0.7,1.6c-0.8-0.5-1.6-0.8-2.4-0.8c-0.4,0-0.7,0.1-1,0.2c-0.2,0.2-0.4,0.4-0.4,0.6
		c0,0.2,0,0.3,0.1,0.4c0.1,0.1,0.3,0.2,0.5,0.3s0.6,0.2,1.1,0.3c0.8,0.2,1.4,0.4,1.8,0.6c0.4,0.2,0.8,0.5,0.9,0.8
		c0.2,0.3,0.3,0.7,0.3,1.1c0,0.8-0.3,1.5-1,2s-1.5,0.7-2.7,0.7C136.2,369,135.6,369,134.9,368.8z"/>
	<path class="st5" d="M151.6,368.9l-0.8-1.8h-3.7l-0.8,1.8h-2.2l3.9-8.5h1.8l4,8.5H151.6z M147.8,365.5h2.3l-1.2-2.7L147.8,365.5z"
		/>
	<path class="st5" d="M159.6,360.5h2.2l-3.9,8.5h-1.8l-3.9-8.5h2.3l2.5,5.7L159.6,360.5z"/>
	<path class="st5" d="M167.9,368.9l-0.8-1.8h-3.7l-0.8,1.8h-2.2l3.9-8.5h1.8l4,8.5H167.9z M164.1,365.5h2.3l-1.2-2.7L164.1,365.5z"
		/>
	<path class="st5" d="M176.1,360.5h2.1v8.5h-1.6l-3.9-4.8v4.8h-2.1v-8.5h1.6l3.9,4.8V360.5z"/>
	<path class="st5" d="M181.6,368.9v-6.7h-2.5v-1.8h7.3v1.8h-2.5v6.7H181.6z"/>
	<path class="st5" d="M192.6,368.9l-0.8-1.8h-3.7l-0.8,1.8h-2.2l3.9-8.5h1.8l4,8.5H192.6z M188.8,365.5h2.3l-1.2-2.7L188.8,365.5z"
		/>
	<path class="st5" d="M202.6,364.2v4.2c-0.4,0.2-0.9,0.4-1.5,0.5c-0.6,0.1-1.1,0.2-1.7,0.2c-0.9,0-1.7-0.2-2.4-0.5
		c-0.7-0.3-1.2-0.8-1.6-1.5c-0.4-0.7-0.5-1.4-0.5-2.3c0-0.9,0.2-1.6,0.5-2.3c0.4-0.7,0.9-1.2,1.5-1.5c0.7-0.4,1.4-0.5,2.3-0.5
		c0.6,0,1.2,0.1,1.7,0.2c0.5,0.2,1,0.4,1.3,0.7l-0.7,1.6c-0.4-0.3-0.8-0.4-1.1-0.6c-0.4-0.1-0.7-0.2-1.2-0.2c-0.8,0-1.3,0.2-1.7,0.6
		c-0.4,0.4-0.6,1.1-0.6,2c0,0.9,0.2,1.6,0.6,2c0.4,0.4,1,0.7,1.8,0.7c0.4,0,0.8,0,1.1-0.1v-1.6h-1.5v-1.5H202.6z"/>
	<path class="st5" d="M204,368.9v-8.5h6v1.7h-3.9v1.6h3.6v1.7h-3.6v1.8h3.9v1.7H204z"/>
	<path class="st5" d="M212.2,368.8c-0.6-0.2-1.1-0.4-1.5-0.7l0.7-1.6c0.4,0.3,0.8,0.5,1.3,0.6c0.5,0.1,0.9,0.2,1.4,0.2
		c0.5,0,0.8-0.1,1.1-0.2s0.4-0.3,0.4-0.6c0-0.2-0.1-0.4-0.3-0.5c-0.2-0.1-0.7-0.3-1.3-0.4c-0.8-0.2-1.4-0.4-1.9-0.6
		c-0.4-0.2-0.8-0.5-0.9-0.8c-0.2-0.3-0.3-0.7-0.3-1.2c0-0.5,0.1-1,0.4-1.4s0.7-0.7,1.2-1c0.5-0.2,1.1-0.4,1.8-0.4
		c0.6,0,1.2,0.1,1.8,0.3c0.6,0.2,1,0.4,1.3,0.7l-0.7,1.6c-0.8-0.5-1.6-0.8-2.4-0.8c-0.4,0-0.7,0.1-1,0.2c-0.2,0.2-0.4,0.4-0.4,0.6
		c0,0.2,0,0.3,0.1,0.4c0.1,0.1,0.3,0.2,0.5,0.3s0.6,0.2,1.1,0.3c0.8,0.2,1.4,0.4,1.8,0.6c0.4,0.2,0.8,0.5,0.9,0.8
		c0.2,0.3,0.3,0.7,0.3,1.1c0,0.8-0.3,1.5-1,2s-1.5,0.7-2.7,0.7C213.5,369,212.8,369,212.2,368.8z"/>
	<path class="st5" d="M222.4,368.9v-8.5h6v1.7h-3.9v1.6h3.6v1.7h-3.6v1.8h3.9v1.7H222.4z"/>
	<path class="st5" d="M234.1,364.7l3.2,4.3h-2.6l-1.9-2.7l-1.9,2.7h-2.6l3.2-4.3l-3.2-4.2h2.6l1.8,2.6l1.9-2.6h2.6L234.1,364.7z"/>
	<path class="st5" d="M239.3,368.5c-0.7-0.4-1.2-0.9-1.5-1.5c-0.3-0.7-0.5-1.4-0.5-2.3c0-0.9,0.2-1.6,0.5-2.3
		c0.3-0.7,0.8-1.2,1.5-1.5c0.7-0.4,1.4-0.5,2.3-0.5c0.6,0,1.1,0.1,1.6,0.3s0.9,0.4,1.3,0.7l-0.7,1.6c-0.7-0.5-1.4-0.7-2.1-0.7
		c-0.7,0-1.2,0.2-1.6,0.6c-0.4,0.4-0.5,1.1-0.5,1.9c0,0.9,0.2,1.5,0.5,1.9c0.4,0.4,0.9,0.7,1.6,0.7c0.7,0,1.4-0.2,2.1-0.7l0.7,1.6
		c-0.3,0.3-0.8,0.5-1.3,0.7s-1.1,0.3-1.6,0.3C240.7,369,239.9,368.9,239.3,368.5z"/>
	<path class="st5" d="M245.6,368.9v-8.5h2.2v6.7h3.6v1.8H245.6z"/>
	<path class="st5" d="M253,368.1c-0.6-0.6-1-1.5-1-2.7v-4.9h2.2v5c0,0.6,0.1,1.1,0.4,1.4c0.3,0.3,0.7,0.5,1.2,0.5s0.9-0.2,1.2-0.5
		c0.3-0.3,0.4-0.8,0.4-1.4v-5h2.2v4.9c0,1.2-0.3,2.1-1,2.7s-1.6,0.9-2.8,0.9C254.6,369,253.7,368.7,253,368.1z"/>
	<path class="st5" d="M262.2,368.8c-0.6-0.2-1.1-0.4-1.5-0.7l0.7-1.6c0.4,0.3,0.8,0.5,1.3,0.6s0.9,0.2,1.4,0.2
		c0.5,0,0.8-0.1,1.1-0.2s0.4-0.3,0.4-0.6c0-0.2-0.1-0.4-0.3-0.5c-0.2-0.1-0.7-0.3-1.3-0.4c-0.8-0.2-1.4-0.4-1.9-0.6
		c-0.4-0.2-0.8-0.5-0.9-0.8c-0.2-0.3-0.3-0.7-0.3-1.2c0-0.5,0.1-1,0.4-1.4s0.7-0.7,1.2-1s1.1-0.4,1.8-0.4c0.6,0,1.2,0.1,1.8,0.3
		c0.6,0.2,1,0.4,1.3,0.7l-0.7,1.6c-0.8-0.5-1.6-0.8-2.4-0.8c-0.4,0-0.7,0.1-1,0.2c-0.2,0.2-0.4,0.4-0.4,0.6c0,0.2,0,0.3,0.1,0.4
		c0.1,0.1,0.3,0.2,0.5,0.3c0.2,0.1,0.6,0.2,1.1,0.3c0.8,0.2,1.4,0.4,1.8,0.6c0.4,0.2,0.8,0.5,0.9,0.8c0.2,0.3,0.3,0.7,0.3,1.1
		c0,0.8-0.3,1.5-1,2c-0.6,0.5-1.5,0.7-2.7,0.7C263.5,369,262.9,369,262.2,368.8z"/>
	<path class="st5" d="M269,368.9v-8.5h2.2v8.5H269z"/>
	<path class="st5" d="M272.8,368.9v-8.5h5.9v1.7h-3.7v1.6h3.5v1.7h-3.5v3.4H272.8z"/>
	<path class="st5" d="M280.7,368.8c-0.6-0.2-1.1-0.4-1.5-0.7l0.7-1.6c0.4,0.3,0.8,0.5,1.3,0.6s0.9,0.2,1.4,0.2
		c0.5,0,0.8-0.1,1.1-0.2s0.4-0.3,0.4-0.6c0-0.2-0.1-0.4-0.3-0.5c-0.2-0.1-0.7-0.3-1.3-0.4c-0.8-0.2-1.4-0.4-1.9-0.6
		c-0.4-0.2-0.8-0.5-0.9-0.8c-0.2-0.3-0.3-0.7-0.3-1.2c0-0.5,0.1-1,0.4-1.4s0.7-0.7,1.2-1s1.1-0.4,1.8-0.4c0.6,0,1.2,0.1,1.8,0.3
		c0.6,0.2,1,0.4,1.3,0.7l-0.7,1.6c-0.8-0.5-1.6-0.8-2.4-0.8c-0.4,0-0.7,0.1-1,0.2c-0.2,0.2-0.4,0.4-0.4,0.6c0,0.2,0,0.3,0.1,0.4
		c0.1,0.1,0.3,0.2,0.5,0.3c0.2,0.1,0.6,0.2,1.1,0.3c0.8,0.2,1.4,0.4,1.8,0.6c0.4,0.2,0.8,0.5,0.9,0.8c0.2,0.3,0.3,0.7,0.3,1.1
		c0,0.8-0.3,1.5-1,2c-0.6,0.5-1.5,0.7-2.7,0.7C282,369,281.4,369,280.7,368.8z"/>
	<path class="st5" d="M290.9,360.5h3.4c0.9,0,1.7,0.2,2.4,0.5s1.2,0.8,1.6,1.5c0.4,0.6,0.5,1.4,0.5,2.3c0,0.9-0.2,1.6-0.5,2.3
		c-0.4,0.6-0.9,1.1-1.5,1.5c-0.7,0.3-1.5,0.5-2.4,0.5h-3.4V360.5z M294.2,367.2c0.8,0,1.5-0.2,1.9-0.6c0.4-0.4,0.6-1,0.6-1.8
		c0-0.8-0.2-1.4-0.6-1.8c-0.4-0.4-1-0.6-1.9-0.6h-1.1v4.9H294.2z"/>
	<path class="st5" d="M300.2,368.9v-8.5h6v1.7h-3.9v1.6h3.6v1.7h-3.6v1.8h3.9v1.7H300.2z"/>
	<path class="st5" d="M310.8,360.5h3.4c0.9,0,1.7,0.2,2.4,0.5s1.2,0.8,1.6,1.5c0.4,0.6,0.5,1.4,0.5,2.3c0,0.9-0.2,1.6-0.5,2.3
		c-0.4,0.6-0.9,1.1-1.5,1.5c-0.7,0.3-1.5,0.5-2.4,0.5h-3.4V360.5z M314.1,367.2c0.8,0,1.5-0.2,1.9-0.6c0.4-0.4,0.6-1,0.6-1.8
		c0-0.8-0.2-1.4-0.6-1.8c-0.4-0.4-1-0.6-1.9-0.6H313v4.9H314.1z"/>
	<path class="st5" d="M327.7,368.9h-2.4l-1.5-2.7c-0.2-0.3-0.5-0.5-0.9-0.5h-0.7v3.2h-2.2v-8.5h4c1,0,1.8,0.2,2.3,0.7
		c0.5,0.4,0.8,1.1,0.8,1.9c0,0.6-0.2,1.2-0.5,1.6c-0.4,0.4-0.8,0.7-1.5,0.9c0.5,0.1,0.9,0.4,1.2,0.9L327.7,368.9z M324.8,363.9
		c0.2-0.2,0.3-0.4,0.3-0.7c0-0.4-0.1-0.6-0.3-0.8c-0.2-0.2-0.6-0.2-1-0.2h-1.5v2h1.5C324.3,364.1,324.6,364,324.8,363.9z"/>
	<path class="st5" d="M328.6,368.9v-8.5h2.2v8.5H328.6z"/>
	<path class="st5" d="M337.8,360.5h2.1v8.5h-1.6l-3.9-4.8v4.8h-2.1v-8.5h1.6l3.9,4.8V360.5z"/>
	<path class="st5" d="M349.6,368.9H347l-3.4-3.8v3.8h-2.2v-8.5h2.2v3.6l3.3-3.6h2.6l-3.7,4L349.6,368.9z"/>
	<path class="st5" d="M350.8,368.8c-0.6-0.2-1.1-0.4-1.5-0.7l0.7-1.6c0.4,0.3,0.8,0.5,1.3,0.6s0.9,0.2,1.4,0.2
		c0.5,0,0.8-0.1,1.1-0.2s0.4-0.3,0.4-0.6c0-0.2-0.1-0.4-0.3-0.5c-0.2-0.1-0.7-0.3-1.3-0.4c-0.8-0.2-1.4-0.4-1.9-0.6
		c-0.4-0.2-0.8-0.5-0.9-0.8c-0.2-0.3-0.3-0.7-0.3-1.2c0-0.5,0.1-1,0.4-1.4s0.7-0.7,1.2-1s1.1-0.4,1.8-0.4c0.6,0,1.2,0.1,1.8,0.3
		c0.6,0.2,1,0.4,1.3,0.7l-0.7,1.6c-0.8-0.5-1.6-0.8-2.4-0.8c-0.4,0-0.7,0.1-1,0.2c-0.2,0.2-0.4,0.4-0.4,0.6c0,0.2,0,0.3,0.1,0.4
		c0.1,0.1,0.3,0.2,0.5,0.3c0.2,0.1,0.6,0.2,1.1,0.3c0.8,0.2,1.4,0.4,1.8,0.6c0.4,0.2,0.8,0.5,0.9,0.8c0.2,0.3,0.3,0.7,0.3,1.1
		c0,0.8-0.3,1.5-1,2c-0.6,0.5-1.5,0.7-2.7,0.7C352.1,369,351.4,369,350.8,368.8z"/>
	<path class="st5" d="M361.9,368.1c-0.6-0.6-1-1.5-1-2.7v-4.9h2.2v5c0,0.6,0.1,1.1,0.4,1.4c0.3,0.3,0.7,0.5,1.2,0.5s0.9-0.2,1.2-0.5
		c0.3-0.3,0.4-0.8,0.4-1.4v-5h2.2v4.9c0,1.2-0.3,2.1-1,2.7s-1.6,0.9-2.8,0.9C363.5,369,362.6,368.7,361.9,368.1z"/>
	<path class="st5" d="M370,360.5h4.1c0.9,0,1.7,0.2,2.2,0.7c0.5,0.5,0.8,1.1,0.8,2c0,0.8-0.3,1.5-0.8,2c-0.5,0.5-1.3,0.7-2.2,0.7
		h-1.9v3.1H370V360.5z M373.8,364.2c0.4,0,0.7-0.1,0.9-0.3s0.3-0.4,0.3-0.8c0-0.4-0.1-0.6-0.3-0.8s-0.5-0.3-0.9-0.3h-1.6v2.1H373.8z
		"/>
	<path class="st5" d="M381.8,366l-0.7-5.5l2.6,0L383,366H381.8z M381.3,366.8h2.2v2.2h-2.2V366.8z"/>
</g>
</svg>
