<?xml version="1.0" encoding="utf-8"?>
<!-- Generator: Adobe Illustrator 21.0.0, SVG Export Plug-In . SVG Version: 6.00 Build 0)  -->
<svg version="1.1" id="Layer_1" xmlns="http://www.w3.org/2000/svg" xmlns:xlink="http://www.w3.org/1999/xlink" x="0px" y="0px"
	 viewBox="0 0 512 512" style="enable-background:new 0 0 512 512;" xml:space="preserve">
<style type="text/css">
	.st0{opacity:2.000000e-02;fill:#FFFFFF;}
	.st1{fill:#A5000C;}
	.st2{fill:#D0D0D0;}
</style>
<circle class="st0" cx="256" cy="256" r="228.5"/>
<g>
	<g>
		<path class="st1" d="M227.7,236c0,0-37.3,5.4-60.9-12.8s-39.2-36.7-67-30.3l15.3,80.5l122.5-32L227.7,236z"/>
		<g>
			<path class="st2" d="M95.3,160.8l128.1,78.4l-105.3,28.2L95.3,160.8 M80.7,140.3l29.9,139.4l137.8-36.9L80.7,140.3L80.7,140.3z"
				/>
			<g>
				
					<rect x="-6.3" y="335.9" transform="matrix(0.5217 -0.8531 0.8531 0.5217 -255.7833 225.4818)" class="st2" width="158.9" height="9.9"/>
			</g>
			<g>
				
					<rect x="26.8" y="374.5" transform="matrix(0.5217 -0.8531 0.8531 0.5217 -333.4415 222.5264)" class="st2" width="9.9" height="68.3"/>
			</g>
		</g>
		<circle class="st2" cx="120.7" cy="218.1" r="4.4"/>
		<circle class="st2" cx="130.5" cy="231.1" r="3"/>
		<circle class="st2" cx="121.5" cy="240.4" r="2.6"/>
	</g>
	<g>
		<path class="st1" d="M284.3,236c0,0,37.3,5.4,60.9-12.8s39.2-36.7,67-30.3l-15.3,80.5l-122.5-32L284.3,236z"/>
		<g>
			<path class="st2" d="M416.7,160.8l-22.8,106.6l-105.3-28.2L416.7,160.8 M431.3,140.3L263.7,242.8l137.8,36.9L431.3,140.3
				L431.3,140.3z"/>
			<g>
				
					<rect x="433.8" y="261.4" transform="matrix(0.8531 -0.5217 0.5217 0.8531 -113.3748 278.9764)" class="st2" width="9.9" height="158.9"/>
			</g>
			<g>
				
					<rect x="446.1" y="403.7" transform="matrix(0.8531 -0.5217 0.5217 0.8531 -142.6557 310.5817)" class="st2" width="68.3" height="9.9"/>
			</g>
		</g>
		<circle class="st2" cx="391.3" cy="218.1" r="4.4"/>
		<circle class="st2" cx="381.5" cy="231.1" r="3"/>
		<circle class="st2" cx="390.5" cy="240.4" r="2.6"/>
	</g>
	<polygon class="st2" points="224.9,178.2 205.3,142.3 183.2,150.1 	"/>
	<polygon class="st2" points="278.9,158.2 298.5,122.3 320.5,130.1 	"/>
	<polygon class="st2" points="254.1,154.3 236.1,81.3 260.6,81.3 	"/>
</g>
</svg>
