<?xml version="1.0" encoding="utf-8"?>
<!-- Generator: Adobe Illustrator 21.0.0, SVG Export Plug-In . SVG Version: 6.00 Build 0)  -->
<svg version="1.1" id="Capa_1" xmlns="http://www.w3.org/2000/svg" xmlns:xlink="http://www.w3.org/1999/xlink" x="0px" y="0px"
	 viewBox="0 0 267.5 267.5" style="enable-background:new 0 0 267.5 267.5;" xml:space="preserve">
<style type="text/css">
	.st0{fill:#008A2C;}
	.st1{fill:#D60000;}
</style>
<circle class="st0" cx="100.3" cy="113" r="59"/>
<path class="st0" d="M141.4,176c-11.8,7.7-25.9,12.2-41.1,12.2S71,183.8,59.2,176C24.3,191.7,0,226.8,0,267.5h200.5
	C200.5,226.8,176.2,191.7,141.4,176z"/>
<path class="st0" d="M167.2,0c-25.5,0-47.3,16.2-55.5,39c35.9,5.5,63.4,36.6,63.4,74c0,1.5-0.1,3-0.1,4.4
	c28.9-3.8,51.2-28.5,51.2-58.4C226.2,26.4,199.8,0,167.2,0z"/>
<path class="st0" d="M204.7,213.5h62.8c0-40.7-24.3-75.8-59.2-91.5c-10.5,6.9-22.9,11.2-36.2,12c-3.3,11.1-9,21.1-16.6,29.4
	C176.6,174.8,193.8,192.3,204.7,213.5z"/>
<rect x="121" y="-71.3" transform="matrix(0.7071 -0.7071 0.7071 0.7071 -54.6762 132)" class="st1" width="22" height="406.6"/>
</svg>
