<?xml version="1.0" encoding="utf-8"?>
<!-- Generator: Adobe Illustrator 21.0.0, SVG Export Plug-In . SVG Version: 6.00 Build 0)  -->
<svg version="1.1" id="Capa_1" xmlns="http://www.w3.org/2000/svg" xmlns:xlink="http://www.w3.org/1999/xlink" x="0px" y="0px"
	 viewBox="0 0 58 58" style="enable-background:new 0 0 58 58;" xml:space="preserve">
<style type="text/css">
	.st0{fill:#306FC5;}
	.st1{fill:#FFFFFF;stroke:#FFFFFF;stroke-miterlimit:10;}
</style>
<path id="XMLID_128_" class="st0" d="M54.8,50H3.2C1.4,50,0,48.6,0,46.8V11.2C0,9.4,1.4,8,3.2,8h51.6c1.8,0,3.2,1.4,3.2,3.2v35.6
	C58,48.6,56.6,50,54.8,50"/>
<g>
	<g>
		<path class="st1" d="M28.4,27.1l-1.1-2.4h-7.8l-1.1,2.4h-4.4l7-14h4.9l7,14H28.4z M23.4,16.1l-2.8,6h5.7L23.4,16.1z"/>
		<path class="st1" d="M48.4,27.1V17l-5.1,10.1h-1.7L36.5,17v10.1h-3.9v-14H38l4.4,8.8l4.4-8.8h5.5v14H48.4z"/>
	</g>
	<g>
		<path class="st1" d="M21.8,44V30h12.9v2.6h-9v2.9h8.8v2.6h-8.8v3.2h9V44H21.8z"/>
		<path class="st1" d="M47.6,44l-4.6-5.1L38.5,44h-4.6l6.6-7.2L34.3,30h4.6l4.2,4.8l4.1-4.8h4.7l-6.2,6.8l6.6,7.2H47.6z"/>
	</g>
</g>
</svg>
