<?xml version="1.0" encoding="utf-8"?>
<!-- Generator: Adobe Illustrator 21.0.0, SVG Export Plug-In . SVG Version: 6.00 Build 0)  -->
<svg version="1.1" id="Capa_1" xmlns="http://www.w3.org/2000/svg" xmlns:xlink="http://www.w3.org/1999/xlink" x="0px" y="0px"
	 viewBox="0 0 58 58" style="enable-background:new 0 0 58 58;" xml:space="preserve">
<style type="text/css">
	.st0{display:none;}
	.st1{fill:#FFFFFF;}
	.st2{opacity:0.15;}
	.st3{opacity:5.000000e-02;}
</style>
<rect x="-3.6" y="-2.6" class="st0" width="64.2" height="64.2"/>
<path id="XMLID_128_" class="st1" d="M54.8,50H3.2C1.4,50,0,48.6,0,46.8V11.2C0,9.4,1.4,8,3.2,8h51.6c1.8,0,3.2,1.4,3.2,3.2v35.6
	C58,48.6,56.6,50,54.8,50"/>
<g class="st2">
	<path id="XMLID_127_" d="M15,36H6c-0.6,0-1,0.4-1,1s0.4,1,1,1h9c0.6,0,1-0.4,1-1S15.6,36,15,36"/>
	<path id="XMLID_126_" d="M29,37c0-0.6-0.4-1-1-1h-9c-0.6,0-1,0.4-1,1s0.4,1,1,1h9C28.6,38,29,37.6,29,37"/>
	<path id="XMLID_125_" d="M7,41H6c-0.6,0-1,0.4-1,1s0.4,1,1,1h1c0.6,0,1-0.4,1-1S7.6,41,7,41"/>
	<path id="XMLID_124_" d="M13,41h-2c-0.6,0-1,0.4-1,1s0.4,1,1,1h2c0.6,0,1-0.4,1-1S13.6,41,13,41"/>
	<path id="XMLID_123_" d="M18,41h-1c-0.6,0-1,0.4-1,1s0.4,1,1,1h1c0.6,0,1-0.4,1-1S18.6,41,18,41"/>
	<path id="XMLID_122_" d="M24,41h-2c-0.6,0-1,0.4-1,1s0.4,1,1,1h2c0.6,0,1-0.4,1-1S24.6,41,24,41"/>
	<path id="XMLID_121_" d="M27.3,41.3C27.1,41.5,27,41.7,27,42s0.1,0.5,0.3,0.7c0.2,0.2,0.4,0.3,0.7,0.3s0.5-0.1,0.7-0.3
		S29,42.2,29,42s-0.1-0.5-0.3-0.7C28.3,40.9,27.6,40.9,27.3,41.3"/>
</g>
<g>
	<path class="st3" d="M22.2,17.3h-0.1c0-0.7-0.6-1.3-1.3-1.3h-0.1H16h-2.7h-6C6.6,16,6,16.6,6,17.2v9.5C6,27.4,6.6,28,7.3,28h6h1.5
		h5.9c0.7,0,1.3-0.6,1.4-1.2v-7.7c0.1-0.1,0.1-0.3,0.1-0.5V17.3z"/>
	<path class="st2" d="M20.8,14.9h-7.5c-0.2,0-0.4,0-0.6,0.1H7.3C6,15,5,16,5,17.2v9.5C5,28,6,29,7.3,29h5.9h1.5h6
		c1.3,0,2.3-1,2.4-2.2v-8.1v-1.4v-0.1C23.1,15.9,22,14.9,20.8,14.9z M21.1,23H17v-1.7c0-0.2,0.2-0.3,0.3-0.3h3.5c0.1,0,0.2,0,0.3,0
		V23z M13.1,27C13,26.9,13,26.9,13,26.8v-9.5c0-0.2,0.3-0.4,0.3-0.4h7.5c0.2,0,0.3,0.2,0.3,0.3v1.7C21,19,21,19,20.9,19h-3.5
		c-1.3,0-2.3,1.1-2.3,2.3v5.5c0,0.1,0,0.2-0.1,0.2H13.1z M7,21h4v2H7V21z M7.3,16.9H11c0,0.1,0,2.1,0,2.1H7v-1.7
		C7,17.1,7.3,16.9,7.3,16.9z M7,26.8V25h4v1.7c0,0.1,0,0.2,0,0.3H7.3C7.1,27,7,26.9,7,26.8z M20.8,27H17c0-0.1,0-0.1,0-0.2V25h4.1
		v1.7C21.1,26.9,20.9,27,20.8,27z"/>
</g>
</svg>
