<?xml version="1.0" encoding="utf-8"?>
<!-- Generator: Adobe Illustrator 21.0.0, SVG Export Plug-In . SVG Version: 6.00 Build 0)  -->
<svg version="1.1" id="Capa_1" xmlns="http://www.w3.org/2000/svg" xmlns:xlink="http://www.w3.org/1999/xlink" x="0px" y="0px"
	 viewBox="0 0 58 58" style="enable-background:new 0 0 58 58;" xml:space="preserve">
<style type="text/css">
	.st0{fill:#969696;}
	.st1{opacity:0.8;}
	.st2{fill:#353535;}
	.st3{fill:#F0C41B;}
	.st4{fill:#F3D55C;}
	.st5{fill:none;}
</style>
<path id="XMLID_128_" class="st0" d="M54.8,50H3.2C1.4,50,0,48.6,0,46.8V11.2C0,9.4,1.4,8,3.2,8h51.6c1.8,0,3.2,1.4,3.2,3.2v35.6
	C58,48.6,56.6,50,54.8,50"/>
<g class="st1">
	<path id="XMLID_127_" class="st2" d="M15,36H6c-0.6,0-1,0.4-1,1s0.4,1,1,1h9c0.6,0,1-0.4,1-1S15.6,36,15,36"/>
	<path id="XMLID_126_" class="st2" d="M29,37c0-0.6-0.4-1-1-1h-9c-0.6,0-1,0.4-1,1s0.4,1,1,1h9C28.6,38,29,37.6,29,37"/>
	<path id="XMLID_125_" class="st2" d="M7,41H6c-0.6,0-1,0.4-1,1s0.4,1,1,1h1c0.6,0,1-0.4,1-1S7.6,41,7,41"/>
	<path id="XMLID_124_" class="st2" d="M13,41h-2c-0.6,0-1,0.4-1,1s0.4,1,1,1h2c0.6,0,1-0.4,1-1S13.6,41,13,41"/>
	<path id="XMLID_123_" class="st2" d="M18,41h-1c-0.6,0-1,0.4-1,1s0.4,1,1,1h1c0.6,0,1-0.4,1-1S18.6,41,18,41"/>
	<path id="XMLID_122_" class="st2" d="M24,41h-2c-0.6,0-1,0.4-1,1s0.4,1,1,1h2c0.6,0,1-0.4,1-1S24.6,41,24,41"/>
	<path id="XMLID_121_" class="st2" d="M27.3,41.3C27.1,41.5,27,41.7,27,42s0.1,0.5,0.3,0.7c0.2,0.2,0.4,0.3,0.7,0.3s0.5-0.1,0.7-0.3
		c0.2-0.2,0.3-0.5,0.3-0.7s-0.1-0.5-0.3-0.7C28.3,40.9,27.6,40.9,27.3,41.3"/>
</g>
<g>
	<path id="XMLID_118_" class="st3" d="M20.7,28H7.3C6.6,28,6,27.4,6,26.7v-9.5C6,16.6,6.6,16,7.3,16h13.5c0.7,0,1.3,0.6,1.3,1.3v9.5
		C22,27.4,21.4,28,20.7,28"/>
	<path id="XMLID_115_" class="st4" d="M20.7,29H7.3C6,29,5,28,5,26.7v-9.5C5,16,6,15,7.3,15h13.5c1.2,0,2.3,1,2.3,2.3v9.5
		C23,28,22,29,20.7,29 M7.3,17C7.1,17,7,17.1,7,17.3v9.5C7,26.9,7.1,27,7.3,27h13.5c0.1,0,0.3-0.1,0.3-0.3v-9.5
		c0-0.1-0.1-0.3-0.3-0.3H7.3z"/>
	<path id="XMLID_114_" class="st3" d="M22,17.3c0-0.7-0.6-1.3-1.3-1.3H16h-2.7c-0.7,0-1.3,0.6-1.3,1.3V20v6.7c0,0.7,0.6,1.3,1.3,1.3
		h1.5c0.7,0,1.3-0.6,1.3-1.3v-5.5c0-0.7,0.6-1.3,1.3-1.3h3.5c0.7,0,1.3-0.6,1.3-1.3V17.3z"/>
	<path id="XMLID_111_" class="st4" d="M14.7,29h-1.5C12,29,11,28,11,26.7v-9.5c0-1.2,1-2.3,2.3-2.3h7.5c1.2,0,2.3,1,2.3,2.3v1.5
		c0,1.2-1,2.3-2.3,2.3h-3.5c-0.1,0-0.3,0.1-0.3,0.3v5.5C17,28,16,29,14.7,29 M13.3,17c-0.1,0-0.3,0.1-0.3,0.3v9.5
		c0,0.1,0.1,0.3,0.3,0.3h1.5c0.1,0,0.3-0.1,0.3-0.3v-5.5c0-1.2,1-2.3,2.3-2.3h3.5c0.1,0,0.3-0.1,0.3-0.3v-1.5c0-0.1-0.1-0.3-0.3-0.3
		H13.3z"/>
	<line id="XMLID_110_" class="st5" x1="16" y1="24" x2="22" y2="24"/>
	<path id="XMLID_109_" class="st4" d="M22,25h-6c-0.6,0-1-0.4-1-1s0.4-1,1-1h6c0.6,0,1,0.4,1,1S22.6,25,22,25"/>
	<line id="XMLID_108_" class="st5" x1="12" y1="20" x2="6" y2="20"/>
	<path id="XMLID_107_" class="st4" d="M12,21H6c-0.6,0-1-0.4-1-1s0.4-1,1-1h6c0.6,0,1,0.4,1,1S12.6,21,12,21"/>
	<line id="XMLID_106_" class="st5" x1="12" y1="24" x2="6" y2="24"/>
	<path id="XMLID_105_" class="st4" d="M12,25H6c-0.6,0-1-0.4-1-1s0.4-1,1-1h6c0.6,0,1,0.4,1,1S12.6,25,12,25"/>
</g>
</svg>
