<?xml version="1.0" encoding="utf-8"?>
<!-- Generator: Adobe Illustrator 21.0.0, SVG Export Plug-In . SVG Version: 6.00 Build 0)  -->
<svg version="1.1" id="Capa_1" xmlns="http://www.w3.org/2000/svg" xmlns:xlink="http://www.w3.org/1999/xlink" x="0px" y="0px"
	 viewBox="0 0 58 58" style="enable-background:new 0 0 58 58;" xml:space="preserve">
<style type="text/css">
	.st0{fill:#FFFFFF;}
	.st1{fill:#3D6DEB;}
</style>
<path id="XMLID_128_" class="st0" d="M54.8,50H3.2C1.4,50,0,48.6,0,46.8V11.2C0,9.4,1.4,8,3.2,8h51.6c1.8,0,3.2,1.4,3.2,3.2v35.6
	C58,48.6,56.6,50,54.8,50"/>
<g>
	<g>
		<path class="st1" d="M18.6,29c0,3.1,1.9,5.7,4.7,6.8V22.2C20.5,23.2,18.6,25.9,18.6,29z"/>
		<path class="st1" d="M41.4,19.4c-2.6-2.4-6.1-3.7-9.7-3.7H29h-3.2c-7.7,0-13.4,5.8-13.4,13.4c0,7.3,6,13.2,13.4,13.2H29h2.7l0.1,0
			c0,0,0,0,0,0c3.5,0,7-1.4,9.6-3.9c2.7-2.5,4.2-5.9,4.2-9.4C45.6,25.4,44.1,21.9,41.4,19.4z M29,39.2c-1,0.3-2.1,0.5-3.1,0.5
			c-5.9,0-10.7-4.8-10.7-10.7S20,18.3,25.9,18.3c1.1,0,2.2,0.2,3.1,0.5c4.3,1.3,7.5,5.4,7.5,10.2S33.3,37.8,29,39.2z"/>
		<path class="st1" d="M29,22.4c-0.2-0.1-0.4-0.2-0.5-0.2v13.6c0.2-0.1,0.4-0.2,0.5-0.2c2.4-1.2,4.1-3.7,4.1-6.5
			C33.1,26.1,31.4,23.6,29,22.4z"/>
	</g>
	<path class="st0" d="M29,18.8c-1-0.3-2.1-0.5-3.1-0.5c-5.9,0-10.7,4.8-10.7,10.7S20,39.6,25.9,39.6c1.1,0,2.2-0.2,3.1-0.5
		c4.3-1.3,7.5-5.4,7.5-10.2S33.3,20.1,29,18.8z M23.2,35.8c-2.7-1-4.7-3.7-4.7-6.8c0-3.1,1.9-5.7,4.7-6.8V35.8z M29,35.5
		c-0.2,0.1-0.4,0.2-0.5,0.2V22.2c0.2,0.1,0.4,0.2,0.5,0.2c2.4,1.2,4.1,3.7,4.1,6.5C33.1,31.9,31.4,34.3,29,35.5z"/>
</g>
</svg>
