<?xml version="1.0" encoding="utf-8"?>
<!-- Generator: Adobe Illustrator 21.0.0, SVG Export Plug-In . SVG Version: 6.00 Build 0)  -->
<svg version="1.1" id="Capa_1" xmlns="http://www.w3.org/2000/svg" xmlns:xlink="http://www.w3.org/1999/xlink" x="0px" y="0px"
	 viewBox="0 0 58 58" style="enable-background:new 0 0 58 58;" xml:space="preserve">
<style type="text/css">
	.st0{fill:#FFFFFF;}
	.st1{fill:#0F549D;}
	.st2{fill:#B41F36;}
	.st3{fill:#329947;}
</style>
<path id="XMLID_128_" class="st0" d="M54.8,50H3.2C1.4,50,0,48.6,0,46.8V11.2C0,9.4,1.4,8,3.2,8h51.6c1.8,0,3.2,1.4,3.2,3.2v35.6
	C58,48.6,56.6,50,54.8,50"/>
<g>
	<path class="st1" d="M21.3,14.4h-6.9c-3.3,0-5.6,2.3-5.6,5.6v10c0,0,0,0,0,0c0.3,1.3,1.6,2.2,3.1,2.2c1.6,0,2.9-1.1,2.9-2.7v-5h4.2
		v4.9c0,2.8-3.6,4.1-6.1,4.2c-1.4,0-2.9-0.5-3.9-1.2c0,0-0.1,0-0.1,0c0,0,0,0,0,0c0,0,0,0-0.1,0c0,0,0,0,0,0.1v11.1
		c0,0,0,0.1,0.1,0.1h7.1c2.5,0,5.4-2.4,5.4-5.4L21.3,14.4C21.3,14.4,21.3,14.4,21.3,14.4z"/>
	<path class="st2" d="M35.1,14.4h-6.8c-3.4,0-5.6,2.2-5.6,5.5v5.7c0,0,0,0.1,0,0.1c0,0,0.1,0,0.1,0c0.6-0.5,1.6-1.1,2.8-1.1h7.3v1.3
		c-1.8-0.4-3.4-0.6-4.2-0.6c-1.9,0-3.4,1.5-3.4,3.4l0,0l0,0c0,1.9,1.5,3.4,3.4,3.4c1,0,2.6-0.2,4.2-0.5v1.2h-7.3
		c-1.1,0-2.1-0.4-2.7-1.1c0,0-0.1,0-0.1,0c0,0,0,0,0,0.1v11.7c0,0,0,0.1,0.1,0.1h7c2.5,0,5.4-2.4,5.4-5.4L35.1,14.4
		C35.2,14.4,35.2,14.4,35.1,14.4z"/>
	<g>
		<path class="st3" d="M38.9,32C38.9,32.1,38.9,32.1,38.9,32l3.1,0.1c0.8,0,1.6-0.7,1.6-1.6c0-0.8-0.7-1.6-1.6-1.6h-3.1
			c0,0-0.1,0-0.1,0.1V32z"/>
		<path class="st3" d="M49.2,14.4h-6.8c-1.8,0-3.3,0.6-4.2,1.7v0c0,0-1.4,1.4-1.4,3.7c0,0.1,0,0.2,0,0.2v2v2.4c0,0,0,0.1,0.1,0.1H45
			c1.1,0,2.1,1,2.1,2.1c0,1.1-1,2.1-2.1,2.1c0,0-0.1,0-0.1,0.1c0,0,0,0.1,0.1,0.1c1.3,0,2.3,0.9,2.3,2c0,1.1-1,2-2.3,2h-8.2
			c0,0-0.1,0-0.1,0.1v10.6c0,0,0,0.1,0.1,0.1h7c2.5,0,5.4-2.4,5.4-5.4L49.2,14.4C49.2,14.4,49.2,14.4,49.2,14.4z"/>
		<path class="st3" d="M38.9,28.4H42c0.8,0,1.5-0.7,1.5-1.5c0-0.8-0.7-1.6-1.6-1.6h-3c0,0-0.1,0-0.1,0.1L38.9,28.4
			C38.9,28.4,38.9,28.4,38.9,28.4z"/>
	</g>
</g>
</svg>
