<?xml version="1.0" encoding="utf-8"?>
<!-- Generator: Adobe Illustrator 21.0.0, SVG Export Plug-In . SVG Version: 6.00 Build 0)  -->
<svg version="1.1" id="Capa_1" xmlns="http://www.w3.org/2000/svg" xmlns:xlink="http://www.w3.org/1999/xlink" x="0px" y="0px"
	 viewBox="0 0 58 58" style="enable-background:new 0 0 58 58;" xml:space="preserve">
<style type="text/css">
	.st0{fill:#353535;}
	.st1{fill:#FFBC4F;}
	.st2{fill:#FF7D4F;}
</style>
<path id="XMLID_128_" class="st0" d="M54.8,50H3.2C1.4,50,0,48.6,0,46.8V11.2C0,9.4,1.4,8,3.2,8h51.6c1.8,0,3.2,1.4,3.2,3.2v35.6
	C58,48.6,56.6,50,54.8,50"/>
<g>
	<path class="st1" d="M22.9,18c-6.1,0-11,4.9-11,11s4.9,11,11,11s11-4.9,11-11S29,18,22.9,18z"/>
	<path class="st2" d="M35.1,18c-6.1,0-11,4.9-11,11s4.9,11,11,11s11-4.9,11-11S41.2,18,35.1,18z"/>
	<g>
		<path class="st1" d="M28.4,32.6c0-0.6-0.4-1-1-1h-3c0.2,0.7,0.4,1.4,0.7,2h2.3C27.9,33.6,28.4,33.2,28.4,32.6z"/>
		<path class="st1" d="M28.4,26.1c0-0.6-0.4-1-1-1h-2.6c-0.2,0.6-0.4,1.3-0.6,2h3.1C27.9,27.1,28.4,26.6,28.4,26.1z"/>
		<path class="st1" d="M31.1,29.3c0-0.6-0.4-1-1-1h-6c0,0.2,0,0.4,0,0.7c0,0.5,0,0.9,0.1,1.3h5.9C30.7,30.3,31.1,29.9,31.1,29.3z"/>
	</g>
</g>
</svg>
