<?xml version="1.0" encoding="utf-8"?>
<!-- Generator: Adobe Illustrator 21.0.0, SVG Export Plug-In . SVG Version: 6.00 Build 0)  -->
<svg version="1.1" id="Capa_1" xmlns="http://www.w3.org/2000/svg" xmlns:xlink="http://www.w3.org/1999/xlink" x="0px" y="0px"
	 viewBox="0 0 58 58" style="enable-background:new 0 0 58 58;" xml:space="preserve">
<style type="text/css">
	.st0{display:none;}
	.st1{opacity:0.2;fill:#FFFFFF;}
	.st2{fill:#FFFFFF;}
</style>
<rect x="-3.6" y="-2.6" class="st0" width="64.2" height="64.2"/>
<g>
	<path class="st1" d="M43.3,18.8c0.5-3.2,0-5.5-1.8-7.5C39.6,9.1,36,8,31.5,8H18.5c-0.9,0-1.8,0.7-1.9,1.6l-5.4,34.5
		c-0.1,0.7,0.4,1.3,1.1,1.3h8.1l-0.5,3.5c-0.1,0.5,0.4,1.1,0.9,1.1h6.7c0.8,0,1.5-0.5,1.6-1.3v-0.4l1.3-8.1l0.1-0.4
		c0.1-0.8,0.8-1.3,1.6-1.3h1.1c6.6,0,11.7-2.7,13.2-10.4c0.7-3.2,0.3-5.9-1.3-7.8C44.6,19.6,43.9,19.2,43.3,18.8L43.3,18.8"/>
	<path class="st2" d="M41.5,11.2c-0.7-0.8-1.7-1.5-2.8-2C36.8,8.4,34.3,8,31.5,8H18.5c-0.9,0-1.8,0.7-1.9,1.6l-5.4,34.5
		c-0.1,0.7,0.4,1.3,1.1,1.3h8.1l2-12.8V33c0.1-0.9,0.9-1.6,1.9-1.6H28c7.5,0,13.5-3.1,15.1-11.8c0-0.3,0.1-0.5,0.1-0.8
		C43.8,15.5,43.3,13.3,41.5,11.2z"/>
</g>
</svg>
