<?xml version="1.0" encoding="utf-8"?>
<!-- Generator: Adobe Illustrator 21.0.0, SVG Export Plug-In . SVG Version: 6.00 Build 0)  -->
<svg version="1.1" id="Capa_1" xmlns="http://www.w3.org/2000/svg" xmlns:xlink="http://www.w3.org/1999/xlink" x="0px" y="0px"
	 viewBox="0 0 58 58" style="enable-background:new 0 0 58 58;" xml:space="preserve">
<style type="text/css">
	.st0{fill:#FFFFFF;}
	.st1{fill:#E58E1A;}
	.st2{fill:#002870;}
</style>
<path id="XMLID_128_" class="st0" d="M54.8,50H3.2C1.4,50,0,48.6,0,46.8V11.2C0,9.4,1.4,8,3.2,8h51.6c1.8,0,3.2,1.4,3.2,3.2v35.6
	C58,48.6,56.6,50,54.8,50"/>
<path class="st1" d="M12.9,29.2l-1.4-6.9c-0.2-0.9-0.9-1.2-1.8-1.3H3.6l-0.1,0.3C8.4,22.7,11.6,25.7,12.9,29.2z"/>
<g>
	<polygon class="st2" points="27.4,21.3 23.3,21.3 20.8,36.8 24.8,36.8 	"/>
	<path class="st2" d="M15.4,36.8l6.3-15.5h-4.3l-3.9,10.6l-0.4-1.6c-0.8-1.9-3-4.7-5.6-6.4l3.6,12.9H15.4z"/>
	<path class="st2" d="M38.9,31.7c0-1.8-1.1-3.1-3.4-4.2c-1.4-0.7-2.3-1.2-2.3-1.9c0-0.6,0.7-1.3,2.3-1.3c1.3,0,2.3,0.3,3,0.6
		l0.4,0.2l0.5-3.4c-0.8-0.3-2-0.6-3.6-0.6c-4,0-6.8,2.1-6.8,5.1c0,2.2,2,3.5,3.5,4.2c1.6,0.8,2.1,1.2,2.1,1.9c0,1-1.2,1.5-2.4,1.5
		c-1.6,0-2.5-0.2-3.8-0.8l-0.5-0.2l-0.6,3.5c0.9,0.4,2.7,0.8,4.5,0.8C36.1,37,38.8,34.9,38.9,31.7z"/>
	<path class="st2" d="M43.7,34.5c0.5,0,4.6,0,5.2,0c0.1,0.5,0.5,2.3,0.5,2.3H53l-3.3-15.5h-3.1c-1,0-1.7,0.3-2.1,1.3l-6,14.2h4.2
		C42.8,36.8,43.5,34.9,43.7,34.5z M46.4,26.9c0,0,0.3-0.9,0.5-1.5l0.3,1.3c0,0,0.8,3.7,0.9,4.5h-3.3C45.1,30.4,46.4,26.9,46.4,26.9z
		"/>
</g>
</svg>
